<svg width="64" height="64" viewBox="0 0 64 64" fill="none" xmlns="http://www.w3.org/2000/svg">
<g opacity="0.6">
<circle cx="31.7109" cy="32.1758" r="30" fill="white"/>
<path d="M11.4609 18.6758L15.2109 13.4258L20.4609 15.6758" stroke="#8B2720" stroke-width="2.25" stroke-linecap="round"/>
<path d="M14.4609 21.6758L16.7109 18.6758L21.2109 19.4258" stroke="#8B2720" stroke-width="2.25" stroke-linecap="round"/>
<path d="M51.2109 17.9258L49.7109 14.1758L43.7109 14.9258" stroke="#8B2720" stroke-width="2.25" stroke-linecap="round"/>
<path d="M49.7109 22.4258L45.9609 17.9258L41.4609 19.4258" stroke="#8B2720" stroke-width="2.25" stroke-linecap="round"/>
<path d="M12.2109 45.6758L15.2109 48.6758L20.4609 47.1758" stroke="#8B2720" stroke-width="2.25" stroke-linecap="round"/>
<path d="M14.4609 39.6758L15.9609 43.4258L21.2109 41.1758" stroke="#8B2720" stroke-width="2.25" stroke-linecap="round"/>
<path d="M51.9609 44.9258L50.4609 50.1758L44.4609 48.6758" stroke="#8B2720" stroke-width="2.25" stroke-linecap="round"/>
<path d="M50.4609 40.4258L47.4609 44.9258L42.9609 43.4258" stroke="#8B2720" stroke-width="2.25" stroke-linecap="round"/>
<path d="M17.1334 21.249C17.3119 21.8442 17.9391 22.1819 18.5342 22.0033C19.1293 21.8248 19.467 21.1976 19.2885 20.6025L18.2109 20.9258L17.1334 21.249ZM12.2109 10.4258L11.2569 11.022C12.69 13.3149 15.3881 15.4314 17.1334 21.249L18.2109 20.9258L19.2885 20.6025C17.4338 14.4202 14.2319 11.5367 13.1649 9.82953L12.2109 10.4258Z" fill="#8B2720"/>
<path d="M17.1334 39.3525C17.3119 38.7574 17.9391 38.4197 18.5342 38.5982C19.1293 38.7768 19.467 39.4039 19.2885 39.999L18.2109 39.6758L17.1334 39.3525ZM12.2109 53.1758L11.2569 52.5795C12.4666 50.644 15.3684 45.2356 17.1334 39.3525L18.2109 39.6758L19.2885 39.999C17.4534 46.1159 14.4552 51.7076 13.1649 53.772L12.2109 53.1758Z" fill="#8B2720"/>
<path d="M45.5385 21.249C45.36 21.8442 44.7328 22.1819 44.1377 22.0033C43.5426 21.8248 43.2048 21.1976 43.3834 20.6025L44.4609 20.9258L45.5385 21.249ZM51.2109 10.4258L52.1649 11.022C51.7911 11.6202 51.2567 12.2233 50.7166 12.8208C50.1557 13.4413 49.5467 14.0998 48.919 14.8806C47.6781 16.4243 46.3865 18.4223 45.5385 21.249L44.4609 20.9258L43.3834 20.6025C44.3354 17.4293 45.7937 15.1773 47.1654 13.4709C47.8439 12.6268 48.5068 11.9102 49.0474 11.312C49.609 10.6908 50.0058 10.2314 50.2569 9.82953L51.2109 10.4258Z" fill="#8B2720"/>
<path d="M47.7885 39.3525C47.61 38.7574 46.9828 38.4197 46.3877 38.5982C45.7926 38.7768 45.4548 39.4039 45.6334 39.999L46.7109 39.6758L47.7885 39.3525ZM52.7109 53.1758L53.6649 52.5795C52.4552 50.644 49.5534 45.2356 47.7885 39.3525L46.7109 39.6758L45.6334 39.999C47.4684 46.1159 50.4666 51.7076 51.7569 53.772L52.7109 53.1758Z" fill="#8B2720"/>
<path d="M18.2109 23.9258L25.7109 24.6758" stroke="#272727" stroke-width="3" stroke-linecap="round"/>
<path d="M45.9609 23.9258L37.7109 24.6758" stroke="#272727" stroke-width="3" stroke-linecap="round"/>
<path d="M25.7109 44.176C30.945 42.5168 33.8974 42.0519 39.2109 42.676" stroke="#272727" stroke-width="3" stroke-linecap="round"/>
<path d="M30.8203 0.160156L31.3945 0.347656L31.9687 0.523438C32.1133 0.569568 32.2334 0.583565 32.3555 0.558594L32.9297 0.429688L33.5039 0.3125L34.1484 0.253906C34.5645 0.266124 34.9607 0.374289 35.3203 0.558594L35.8359 0.898438L36.3516 1.29688L36.7617 1.63672L37.2422 1.49609L37.8516 1.32031C38.5593 1.11654 39.3031 1.14346 40.0078 1.46094L41.0625 1.92969C41.3835 2.07446 41.7017 2.2162 42.0234 2.33984L43.0781 2.73828C43.4682 2.88816 43.8509 3.06002 44.2266 3.24219L44.7305 3.48828L45.2461 3.73437C45.4926 3.85356 45.7578 3.95161 46.043 4.02734L46.6055 4.17969L47.168 4.32031C47.8107 4.49093 48.3191 4.86624 48.6797 5.35156L48.9844 5.86719L49.2773 6.45312L49.5586 7.03906C49.5978 7.12039 49.6351 7.17275 49.6523 7.19141C49.6646 7.20389 49.6706 7.21211 49.6758 7.21484L50.1797 7.47266L50.6719 7.73047C51.1338 7.96993 51.556 8.26754 51.9258 8.63281L52.7109 9.41797C52.937 9.64172 53.1754 9.86018 53.4258 10.0625L53.8711 10.4141L54.3047 10.7656C54.7107 11.0944 55.0582 11.4791 55.3477 11.9141L55.6641 12.3828L55.9687 12.8398C55.9923 12.8752 56.0536 12.9566 56.2383 13.0391L56.8359 13.2969L57.4336 13.5664C58.12 13.873 58.6968 14.3839 59.0273 15.1133L59.2617 15.6406L59.5078 16.168C59.7102 16.6147 59.8586 17.0817 59.9648 17.5625L60.2227 18.7109C60.2976 19.0502 60.3823 19.3823 60.4805 19.6953L60.6445 20.2227L60.8203 20.7617C60.9363 21.1318 61.0437 21.5047 61.1484 21.875L61.3008 22.4141L61.4531 22.9414C61.5879 23.418 61.6606 23.9096 61.6758 24.4062L61.6875 24.9687L61.7109 25.5312C61.7196 25.8178 61.7472 26.0992 61.8047 26.3633L61.9219 26.8906L62.0391 27.4297C62.0978 27.6997 62.1827 27.9778 62.2969 28.2617L62.5195 28.8008L62.7305 29.3281C62.8774 29.6937 63.0153 30.0312 63.1289 30.3359L63.2812 30.7812L63.4453 31.2148C63.5059 31.3774 63.6069 31.6447 63.6328 31.9297C63.6433 32.0476 63.6652 32.4098 63.4805 32.7969C63.4452 32.8706 63.3812 32.9325 63.3281 33.0078L63.3516 33.1133L63.4219 33.6875C63.4983 34.2596 63.4635 34.8286 63.3164 35.3867L63.1758 35.9492L63.0234 36.5C62.9096 36.9298 62.7689 37.3545 62.6016 37.7656L62.3906 38.293L62.168 38.8203C62.0577 39.0915 61.9796 39.3679 61.9219 39.6406L61.8047 40.1797L61.6875 40.7305C61.6142 41.0766 61.5526 41.4291 61.4883 41.7852L61.3828 42.3477L61.2773 42.8984C61.1718 43.4828 60.9477 44.028 60.6094 44.5156L60.2812 44.9844L59.9648 45.4531C59.8544 45.6121 59.7675 45.7932 59.7187 45.9922L59.5898 46.5547L59.4492 47.1172C59.2832 47.7904 58.9253 48.3723 58.4062 48.8281L57.9609 49.2148L57.5273 49.6016C57.435 49.6824 57.37 49.7707 57.3281 49.8945L57.1406 50.457L56.9531 51.0078C56.7612 51.5752 56.4508 52.0931 56.0391 52.5312L55.2656 53.3516C54.8538 53.7898 54.3647 54.1283 53.8125 54.3594L53.25 54.5937L52.6992 54.8164C52.4813 54.9076 52.3185 55.0167 52.1953 55.1328L51.7969 55.5195L51.3984 55.8945C51.2383 56.0458 51.0763 56.2393 50.9297 56.4805L50.625 56.9961L50.3086 57.5117C50.0038 58.0129 49.6094 58.4407 49.1367 58.7891L48.2227 59.4687C47.6118 59.919 46.9026 60.1011 46.1836 60.0781L45.5391 60.0547L44.918 60.043L44.5664 60.4297L44.1445 60.8633C43.7281 61.3052 43.236 61.6566 42.668 61.8828L41.6133 62.3047C41.2531 62.4481 40.8895 62.5895 40.5234 62.7266L39.9844 62.9258L39.457 63.125C39.0168 63.2898 38.56 63.4161 38.0977 63.5L37.5352 63.5937L36.9727 63.6992C36.4626 63.7916 35.9432 63.8173 35.4258 63.7695L34.8516 63.7109L34.2773 63.6641C34.0432 63.6424 33.8132 63.6517 33.5859 63.6992L32.4609 63.9336C31.7271 64.0878 30.9995 63.9802 30.3516 63.6523L29.8125 63.3711L29.2617 63.0898L28.6992 63.3008L28.1133 63.5C27.3184 63.7731 26.484 63.6992 25.7461 63.2539L25.2305 62.9492L24.7148 62.6328C24.6529 62.5957 24.6054 62.5897 24.5273 62.5977L23.332 62.7148C22.7256 62.7765 22.1177 62.7175 21.5391 62.5156L20.4609 62.1406C19.814 61.9149 19.278 61.5091 18.8555 60.9922L18.457 60.5117L18.0586 60.0195C17.9157 59.8447 17.7874 59.7517 17.6836 59.7031L17.1797 59.4687L16.6875 59.2344C16.5549 59.1723 16.3614 59.1207 16.0898 59.1055L15.4453 59.0703L14.7891 59.0352C14.074 58.9944 13.3917 58.7503 12.8203 58.2617L12.375 57.8867L11.9414 57.5117C11.6151 57.2325 11.301 56.9414 11.0039 56.6328L10.6055 56.2109L10.207 55.8008C9.76966 55.3461 9.46144 54.8013 9.26953 54.207L9.07031 53.6211L8.89453 53.082L8.37891 52.8594L7.80469 52.6133C7.25974 52.3837 6.76199 52.0646 6.33984 51.6523L5.91797 51.2422L5.50781 50.8437C5.09954 50.445 4.77245 49.9798 4.53516 49.4609L4.28906 48.9336L4.05469 48.4062C3.93243 48.1382 3.79037 47.8746 3.62109 47.6328L3.28125 47.1641L2.95312 46.6836C2.59963 46.1782 2.37015 45.6153 2.27344 45.0078L2.08594 43.8359C2.02923 43.4776 1.96178 43.1303 1.88672 42.793L1.76953 42.2422L1.64063 41.6797C1.56007 41.3178 1.47771 40.9585 1.39453 40.6016L1.13672 39.5C1.03354 39.0567 0.966989 38.6068 0.9375 38.1523L0.867188 37.0273C0.847132 36.7171 0.809233 36.405 0.75 36.1016L0.644531 35.5625L0.539063 35.0117C0.467628 34.6458 0.389177 34.2719 0.316406 33.8984L0.210938 33.3359L0.0937501 32.7734C-0.0218046 32.1804 0.00348198 31.5773 0.152344 30.9922L0.292969 30.4414L0.433594 29.8789C0.459904 29.773 0.464472 29.6511 0.421875 29.4922L0.269531 28.9062L0.105469 28.3203C-0.10064 27.5513 -0.00249779 26.7678 0.398438 26.0703L0.691406 25.5547L0.996094 25.0273C1.05146 24.9303 1.07148 24.8428 1.06641 24.7344L1.03125 24.1367L1.00781 23.5391C0.969236 22.76 1.21339 22.0358 1.71094 21.4414L2.09766 20.9727L2.49609 20.5156C2.64655 20.3362 2.74023 20.1588 2.80078 19.9883L2.98828 19.4492L3.17578 18.9219C3.37514 18.3562 3.69552 17.8495 4.11328 17.4219L4.51172 17.0117L4.92187 16.6016C4.93032 16.5928 4.93123 16.5836 4.93359 16.5781C4.93776 16.5678 4.95215 16.5332 4.95703 16.4727L5.05078 15.207C5.11166 14.4529 5.41789 13.7487 6 13.2031L6.84375 12.4062C7.22299 12.0514 7.64785 11.7505 8.10937 11.5039L9.16406 10.9414C9.36628 10.8328 9.51618 10.7089 9.63281 10.5781L10.0078 10.1562L10.3711 9.74609C10.5136 9.58517 10.6566 9.38435 10.7812 9.125L11.0391 8.5625L11.3086 8.01172C11.6413 7.31941 12.1889 6.77646 12.9258 6.48828L13.4766 6.27734L14.0156 6.06641C14.1586 6.01057 14.2817 5.92904 14.3906 5.80859L14.7891 5.36328L15.1875 4.92969C15.6356 4.43254 16.1928 4.07249 16.8398 3.88672L17.4023 3.73437L17.9531 3.57031C18.3537 3.4553 18.7583 3.35377 19.1602 3.26562L19.7227 3.14844L20.2852 3.01953C20.4542 2.98202 20.6167 2.91033 20.7773 2.79687L21.7383 2.11719C22.19 1.79858 22.6852 1.55599 23.2148 1.40234L23.7656 1.25L24.3164 1.08594C24.769 0.95504 25.2303 0.862419 25.6992 0.816406L26.2734 0.769531L26.8359 0.710938C27.1 0.685024 27.365 0.623944 27.6328 0.535156L28.1953 0.347656L28.7461 0.171875C29.4286 -0.0548887 30.1432 -0.0563033 30.8203 0.160156ZM29.1445 3.19531L28.582 3.38281C28.1074 3.54051 27.6222 3.65082 27.1289 3.69922L26.5664 3.74609L25.9922 3.80469C25.7056 3.83281 25.4248 3.8887 25.1484 3.96875L24.5977 4.13281L24.0469 4.28516C23.8485 4.34289 23.6588 4.43584 23.4727 4.56641L22.5117 5.24609C22.0328 5.58429 21.4915 5.82361 20.918 5.94922L20.3672 6.07812L19.8047 6.19531C19.4657 6.26961 19.1258 6.35533 18.7852 6.45312L18.2227 6.61719L17.6719 6.76953C17.5755 6.7972 17.4933 6.8462 17.4141 6.93359L17.0156 7.37891L16.6172 7.8125C16.1992 8.2763 15.6994 8.63935 15.1172 8.86719L14.5664 9.07812L14.0156 9.27734C14.0123 9.28284 14.021 9.30125 14.0156 9.3125L13.7461 9.86328L13.4766 10.4258C13.2458 10.905 12.9659 11.3488 12.6211 11.7383L12.2461 12.1484L11.8828 12.5703C11.5117 12.9885 11.0647 13.3257 10.5703 13.5898L9.51562 14.1523C9.28006 14.2788 9.07531 14.4285 8.89453 14.5977L8.05078 15.3945C8.0485 15.4052 8.04095 15.4203 8.03906 15.4414L7.99219 16.0859L7.94531 16.7187C7.88591 17.4535 7.60594 18.1469 7.06641 18.6992L6.65625 19.1094L6.25781 19.5195C6.1362 19.644 6.05003 19.7759 6 19.918L5.8125 20.4453L5.625 20.9844C5.43668 21.5171 5.15667 22.0032 4.79297 22.4375L4.40625 22.9062L4.00781 23.3633L3.99609 23.375H4.00781V23.3867L4.03125 23.9844L4.06641 24.582C4.1004 25.2685 3.93983 25.932 3.59766 26.5273L3.29297 27.043L3 27.5469L3.16406 28.1328L3.31641 28.7187C3.48354 29.3424 3.50026 29.983 3.33984 30.6172L3.05859 31.7422C3.0196 31.8981 3.01687 32.0452 3.04687 32.1992L3.25781 33.3242C3.33058 33.6976 3.40904 34.0716 3.48047 34.4375L3.58594 34.9766L3.69141 35.5273C3.77533 35.9572 3.83889 36.4019 3.86719 36.8398L3.90234 37.3906L3.9375 37.9531C3.95637 38.2452 4.0001 38.5358 4.06641 38.8203L4.19531 39.3711L4.3125 39.9102C4.39865 40.2798 4.48698 40.6607 4.57031 41.0352L4.69922 41.5859L4.81641 42.1367C4.90555 42.5372 4.98471 42.9496 5.05078 43.3672L5.23828 44.5391C5.2651 44.7048 5.31452 44.8472 5.40234 44.9727L5.74219 45.4414L6.07031 45.9219C6.3433 46.3121 6.58747 46.7193 6.78516 47.1523L7.01953 47.6797L7.26562 48.207C7.34869 48.3892 7.45973 48.5569 7.60547 48.6992L8.01562 49.0977L8.4375 49.5078C8.57043 49.6374 8.73997 49.7529 8.96484 49.8477L9.53906 50.0937L10.125 50.3398C10.7124 50.5888 11.1787 50.9936 11.4844 51.5234L11.7305 52.0977L11.9297 52.6953L12.1172 53.293C12.182 53.4928 12.2701 53.6297 12.3633 53.7266L13.1602 54.5469C13.3911 54.787 13.6321 55.0205 13.8867 55.2383L14.332 55.6133L14.7656 55.9883C14.7771 55.9981 14.8192 56.0271 14.9648 56.0352L15.6094 56.0703L16.2539 56.1172C16.8443 56.15 17.4185 56.277 17.9531 56.5273L18.9609 56.9961C19.5217 57.2599 19.9924 57.6484 20.3789 58.1211L20.7773 58.6133L21.1758 59.0937C21.2832 59.2251 21.3722 59.2789 21.4453 59.3047L22.5234 59.6797C22.6651 59.7291 22.8329 59.7463 23.0273 59.7266L24.2227 59.6094C24.9432 59.5361 25.64 59.6921 26.2617 60.0664L26.7773 60.3828L27.1992 60.6289L27.7266 60.4648L28.3125 60.2539C29.0824 59.9905 29.8793 60.0487 30.6094 60.418L31.1602 60.6875L31.7109 60.9687C31.7963 61.0119 31.8225 61.0076 31.8398 61.0039L32.9648 60.7695C33.4863 60.6599 34.0159 60.6272 34.5469 60.6758L35.1328 60.7227L35.707 60.7812C35.9551 60.8038 36.1958 60.789 36.4336 60.7461L36.9961 60.6523L37.5586 60.5469C37.8453 60.4949 38.129 60.4148 38.4023 60.3125L38.9297 60.1133L39.4687 59.9141C39.8148 59.7845 40.1601 59.6509 40.5 59.5156L41.5547 59.0937C41.6886 59.0404 41.8281 58.9576 41.9648 58.8125L42.375 58.3672L42.7969 57.9336L43.2656 57.5234C43.7734 57.177 44.3666 57.023 44.9883 57.043L45.6328 57.0547L46.2773 57.0781C46.3489 57.0805 46.3886 57.0711 46.4062 57.0664C46.4199 57.0625 46.4321 57.0615 46.4414 57.0547L47.3555 56.375C47.4951 56.272 47.6284 56.1399 47.7422 55.9531L48.375 54.9219C48.6468 54.4748 48.9636 54.067 49.3359 53.7148L49.7344 53.3398L50.1328 52.9531C50.5421 52.5664 51.0186 52.2687 51.5391 52.0508L52.1016 51.8164L52.6523 51.5937C52.8399 51.5153 52.9803 51.4132 53.0859 51.3008L53.4727 50.8906L53.8594 50.4687C53.9639 50.3567 54.0463 50.2218 54.1055 50.0469L54.293 49.4961L54.4805 48.9336C54.6902 48.3136 55.0533 47.7719 55.5469 47.3398L55.9805 46.9531L56.4258 46.5781C56.4878 46.5238 56.5134 46.4721 56.5312 46.4023L56.8125 45.2773C56.9474 44.727 57.1691 44.2076 57.4922 43.7422L58.1484 42.8047C58.2416 42.6697 58.2953 42.5291 58.3242 42.3711L58.4297 41.8086L58.5352 41.2578C58.6048 40.8722 58.6781 40.486 58.7578 40.1094L58.875 39.5586L58.9922 39.0195C59.088 38.5673 59.2144 38.1163 59.3906 37.6836L59.6133 37.1562L59.8242 36.6289C59.9433 36.3363 60.0478 36.0333 60.1289 35.7266L60.2695 35.1758L60.4219 34.625C60.4688 34.4477 60.4814 34.2709 60.457 34.0859L60.375 33.5117L60.3047 32.9492C60.2765 32.7383 60.2484 32.4611 60.2695 32.1992C60.2777 32.1009 60.3103 31.8879 60.4102 31.6484L60.3164 31.3906C60.2135 31.1146 60.0927 30.8003 59.9531 30.4531L59.7305 29.9141L59.5195 29.375C59.3465 28.9444 59.2057 28.505 59.1094 28.0625L58.9922 27.5352L58.875 26.9961C58.7774 26.5473 58.7251 26.0895 58.7109 25.625L58.6875 25.0625L58.6758 24.5C58.668 24.2454 58.6257 23.9992 58.5586 23.7617L58.4062 23.2227L58.2656 22.6953C58.1689 22.3531 58.0566 22.0068 57.9492 21.6641L57.6211 20.5859C57.4958 20.1863 57.3859 19.7764 57.293 19.3555L57.0352 18.207C56.9734 17.9281 56.8808 17.6645 56.7656 17.4102L56.2969 16.3555C56.2905 16.35 56.2667 16.3321 56.2148 16.3086L55.0195 15.7695C54.4076 15.4962 53.8613 15.0881 53.4727 14.5039L53.168 14.0352L52.8516 13.5781C52.7307 13.3964 52.5879 13.2355 52.418 13.0977L51.5508 12.3945C51.2221 12.129 50.9003 11.8465 50.6016 11.5508L49.8164 10.7656C49.6632 10.6145 49.4855 10.4923 49.2891 10.3906L48.3047 9.875C47.6384 9.53004 47.1573 8.98486 46.8516 8.35156L46.5703 7.75391L46.3008 7.19141L45.8437 7.07422L45.2695 6.92187C44.8056 6.79838 44.3593 6.63611 43.9336 6.42969L43.4297 6.18359L42.9141 5.9375C42.6162 5.79321 42.3096 5.65801 42 5.53906L40.9453 5.14062C40.5685 4.99578 40.1933 4.8285 39.8203 4.66016L39.3047 4.42578L38.7773 4.19141H38.7656C38.756 4.19152 38.7294 4.19007 38.6836 4.20312L37.4648 4.55469C36.5759 4.81079 35.7082 4.61802 35.0039 4.0625L34.4883 3.65234L33.9961 3.26562L33.5391 3.37109L32.9648 3.48828C32.321 3.62164 31.6769 3.58165 31.0547 3.38281L30.4805 3.20703L29.9062 3.01953C29.8155 2.99053 29.7562 2.9993 29.6953 3.01953L29.1445 3.19531Z" fill="black"/>
<path d="M17.2656 30.7871C20.9555 33.9686 23.0202 34.1498 26.7101 30.7871" stroke="#272727" stroke-width="3" stroke-linecap="round"/>
<path d="M37.8223 30.7871C41.5121 33.9686 43.5769 34.1498 47.2667 30.7871" stroke="#272727" stroke-width="3" stroke-linecap="round"/>
</g>
</svg>
