<svg xmlns="http://www.w3.org/2000/svg" width="44" height="44" fill="none"><circle cx="22" cy="22" r="20" fill="#fff"/><path stroke="#8B2720" stroke-linecap="round" stroke-width="1.5" d="M8.5 13 11 9.5l3.5 1.5M10.5 15l1.5-2 3 .5M35 12.5 34 10l-4 .5M34 15.5l-2.5-3-3 1M9 31l2 2 3.5-1M10.5 27l1 2.5L15 28M35.5 30.5l-1 3.5-4-1M34.5 27.5l-2 3-3-1"/><path fill="#8B2720" d="M12.282 14.716a.75.75 0 0 0 1.436-.431l-1.436.43ZM9 7.5l-.636.397c.955 1.529 2.754 2.94 3.918 6.819L13 14.5l.718-.216c-1.236-4.121-3.37-6.043-4.082-7.182L9 7.5ZM12.282 26.785a.75.75 0 0 1 1.436.43l-1.436-.43ZM9 36l-.636-.398c.806-1.29 2.741-4.895 3.918-8.817L13 27l.718.215c-1.223 4.078-3.222 7.806-4.082 9.183L9 36ZM31.218 14.716a.75.75 0 0 1-1.436-.431l1.436.43ZM35 7.5l.636.397c-.25.4-.605.801-.966 1.2-.373.413-.78.852-1.198 1.373-.827 1.029-1.688 2.361-2.254 4.245L30.5 14.5l-.718-.216c.634-2.115 1.607-3.616 2.52-4.754.453-.563.895-1.04 1.256-1.44.374-.413.639-.72.806-.987L35 7.5ZM32.718 26.785a.75.75 0 0 0-1.436.43l1.436-.43ZM36 36l.636-.398c-.806-1.29-2.741-4.895-3.918-8.817L32 27l-.718.215c1.223 4.078 3.222 7.806 4.082 9.183L36 36Z"/><path stroke="#272727" stroke-linecap="round" stroke-width="2" d="m13 16.5 5-2.5M31.5 16.5 26 14"/><path stroke="#272727" stroke-linecap="round" stroke-linejoin="round" stroke-width="2" d="M17 36c1.746-9.157 7.333-14.544 11 0H17Z"/><circle cx="16" cy="22" r="3" fill="#272727"/><circle cx="17.2" cy="22" r=".6" fill="#fff"/><circle cx="3" cy="3" r="3" fill="#272727" transform="matrix(-1 0 0 1 31 19)"/><circle cx="26.8" cy="22" r=".6" fill="#fff"/><path fill="#000" d="m42.069 22.757.996-.09-.996.09Zm.034.379-.996.09.996-.09Zm-.07.745.96.275-.96-.275Zm-.21.733-.962-.275.962.275Zm-.096.752 1-.023-1 .023Zm.017.77-1 .023 1-.023Zm-.153.733-.907-.422.907.422Zm-.323.694-.906-.421.906.421Zm-.276.705-.952-.306.952.306Zm-.23.715.953.306-.953-.306Zm-.178.743.986.165-.986-.165Zm-.13.772-.986-.165.987.165Zm-.392.637-.609-.793.61.793Zm-.328.252.61.793-.61-.793Zm-.328.252-.609-.793.61.793Zm-.359.679-.997-.072.997.072Zm-.031.427.997.072-.997-.072Zm-.031.427-.997-.073.997.073Zm-.403.622.466.885-.466-.885Zm-.743.39-.465-.885.465.885Zm-.627.465-.725-.69.725.69Zm-.512.538-.724-.69.724.69Zm-.465.587-.835-.55.835.55Zm-.21.318-.835-.55.835.55Zm-.21.318.836.55-.835-.55Zm-.444.626.795.606-.795-.606Zm-.47.616.796.606-.796-.606Zm-.63.407.243.97-.242-.97Zm-.394.099-.242-.97.242.97Zm-.394.098-.242-.97.242.97Zm-.723.27.464.886-.464-.886Zm-.656.344-.464-.886.464.886Zm-.6.454.719.695-.72-.695Zm-.546.566-.72-.695.72.695Zm-.664.317-.09-.996.09.996Zm-.391.035.09.997-.09-.996Zm-.391.036.09.996-.09-.996Zm-.735.167-.36-.933.36.933Zm-.69.265.36.934-.36-.934Zm-.662.397.639.77-.64-.77Zm-.637.53.638.769-.638-.77Zm-.703.28-.041-1 .04 1Zm-.768.031.041 1-.04-1Zm-.77-.099-.285.96.285-.96Zm-.774-.229.284-.959-.284.96Zm-.754.037.382.925-.382-.925Zm-.368.152.382.924-.382-.924Zm-.367.152-.382-.924.382.924Zm-.752.234.208.978-.208-.978Zm-.385.082-.208-.978.208.978Zm-.384.082.208.978-.208-.978Zm-.729-.209.646-.763-.646.763Zm-.687-.581-.646.763.646-.763Zm-.742-.189.247.97-.247-.97Zm-.4.102-.247-.969.248.97Zm-.398.102.247.97-.247-.97Zm-.717-.148.618-.786-.618.786Zm-.319-.25-.618.785.619-.786Zm-.318-.251-.618.785.618-.785Zm-.69-.305-.146.989.145-.99Zm-1.496-.244.206-.978-.206.978Zm-.375-.079.205-.978-.205.978Zm-.376-.079-.206.98.206-.98Zm-.629-.395.78-.625-.78.625Zm-.506-.632-.78.625.78-.625Zm-.67-.359.102-.995-.101.995Zm-.831-.085-.102.995.102-.995Zm-.697-.3-.677.735.677-.736Zm-.56-.517-.678.736.677-.736Zm-.447-.633-.914.405.914-.405Zm-.166-.375.914-.404-.914.404Zm-.166-.375.915-.404-.915.404Zm-.413-.642-.735.677.735-.677Zm-.494-.537-.735.678.735-.678Zm-.618-.438.418-.909-.418.909Zm-.37-.171.417-.908-.418.908Zm-.372-.17-.418.908.418-.909Zm-.509-.532.935-.357-.935.357Zm-.137-.361-.935.356.935-.356Zm-.138-.362.934-.356-.934.356Zm-.436-.616-.65.76.65-.76Zm-.297-.255.65-.76-.65.76Zm-.298-.255.65-.76-.65.76Zm-.318-.663.998-.05-.998.05Zm-.4-1.485.61-.793-.61.793Zm-.678-.522-.61.792.61-.792Zm-.244-.686.976.216-.976-.216Zm.188-.852-.976-.216.976.216Zm-.84-1.337.697-.716-.698.716Zm-.402-.675.973-.234-.973.234Zm-.178-.744-.973.233.973-.233Zm-.03-.758-.99-.15.99.15Zm.058-.387.989.15-.989-.15Zm.059-.387-.989-.15.989.15Zm.122-.762.986.167-.986-.167Zm.063-.375.986.167-.986-.166Zm.063-.374-.986-.167.986.167Zm-.06-.756.951-.309-.95.309Zm-.247-.762-.951.309.951-.309Zm-.09-.76-.996-.087.996.087Zm.351-1.469-.797-.604.797.604Zm.252-.332.797.604-.797-.604Zm.251-.332-.797-.604.797.604Zm.337-.69-.973-.231.973.232Zm.17-2.298-.998.07.997-.07Zm.14-.75.895.446-.895-.446Zm.17-.34.895.445-.895-.445Zm.169-.34-.895-.446.895.445Zm.456-.613.687.727-.687-.727Zm.574-.542-.687-.726.687.726Zm.56-.532.69.723-.69-.723Zm.545-.521-.69-.723.69.723Zm.312-.699-.997-.087.997.087Zm.467-1.504-.478-.879.478.879Zm.352-.191.477.878-.477-.878Zm.352-.192-.478-.878.478.878Zm.522-.554-.905-.425.905.425Zm.17-.364-.905-.424.906.424Zm.171-.363.905.424-.905-.424Zm.528-.525.411.912-.41-.912Zm.358-.161-.411-.912.41.912Zm1.063-.473-.397-.918.397.918Zm.348-.15-.396-.918.396.918Zm.348-.15.397.917-.397-.918Zm.68-.311.435.9-.436-.9Zm.661-.32-.435-.9.435.9Zm1.23-.816-.589-.808.59.808ZM14 4.025l-.426-.905.426.905Zm.669-.316.426.905-.426-.905Zm.923-.771.721.692-.721-.692Zm.295-.307-.722-.692.722.692Zm.69-.297-.027 1 .026-1Zm1.545-.116.379.926-.379-.926Zm1.474-.249-.437.9.436-.9Zm.79.384.436-.9-.437.9Zm.763-.014.487.874-.487-.874Zm.737-.41-.488-.874.488.873Zm.732-.004-.486.874.486-.874Zm.727.403-.485.875.485-.874Zm.727.252-.135.99.135-.99Zm1.51-.04-.407-.913.407.914Zm.843-.374.406.913-.406-.913Zm.769-.008.459-.888-.46.888Zm.695.36-.46.887.46-.888Zm.657.424.621-.784-.62.784Zm.62.491-.62.784.62-.784Zm.733.23-.038-1 .038 1Zm.844-.032-.038-1 .038 1Zm.656.343-.839.545.839-.545Zm.467.72.839-.545-.84.544Zm.632.434-.185.983.185-.983Zm.798.15-.184.983.184-.983Zm.642.38-.783.622.783-.622Zm.485.61.783-.622-.783.623Zm.623.448-.35.937.35-.937Zm.381.142.35-.937-.35.937Zm.382.143.35-.937-.35.937Zm.56.498-.893.45.893-.45Zm.359.713.893-.45-.893.45Zm.958 1.18.726-.688-.726.688Zm.537.543.697-.717-.697.717Zm.555.539.697-.718-.697.718Zm.38.65-.965.26.965-.26Zm.103.381-.965.26.965-.26Zm.103.38.965-.26-.965.26Zm.207.746-.961.276.961-.276Zm.105.365.96-.276-.96.276Zm.104.364.961-.276-.96.276Zm.306.683.845-.536-.845.536Zm.202.318-.844.536.844-.536Zm.202.319-.844.535.844-.535Zm.331.67-.938.345.938-.345Zm.259.703-.939.345.939-.345Zm.167.726.995-.1-.995.1Zm.076.75-.995.101.995-.1Zm.238.723-.866.5.866-.5Zm.4.694.867-.5-.866.5Zm.132.733-.984-.177.984.177Zm-.069.385-.984-.176.984.176Zm-.07.386.985.177-.984-.177Zm-.144.677-.968-.251.968.25Zm-.151.582.968.251-.968-.251Zm.41 1.048-.995.09.034.38.996-.091.996-.09-.034-.38-.996.091Zm.035.379-.996.09c.012.13 0 .254-.036.38l.962.275.96.275a3.02 3.02 0 0 0 .106-1.11l-.996.09Zm-.07.745-.962-.275-.105.366.962.275.96.276.106-.367-.962-.275Zm-.105.366-.962-.275-.105.367.962.275.961.275.105-.366-.962-.276Zm-.105.367-.962-.275a3.51 3.51 0 0 0-.134 1.05l1-.023 1-.023a1.51 1.51 0 0 1 .057-.454l-.961-.275Zm-.096.752-1 .023.009.385 1-.023.999-.023-.009-.385-1 .023Zm.008.385-1 .023.01.385.999-.023 1-.022-.009-.386-1 .023Zm.009.385-1 .023a.626.626 0 0 1-.06.288l.907.422.907.422c.173-.372.255-.768.246-1.177l-1 .022Zm-.153.733-.907-.422-.16.347.906.422.907.422.161-.348-.907-.421Zm-.161.347-.907-.422-.161.348.906.421.907.422.162-.347-.907-.422Zm-.162.347-.906-.421a7.078 7.078 0 0 0-.322.82l.952.306.952.306c.064-.198.14-.395.231-.59l-.907-.42Zm-.276.705-.952-.306-.115.358.952.305.952.306.115-.357-.952-.306Zm-.115.357-.952-.305-.115.357.953.306.952.306.114-.358-.952-.306Zm-.114.358-.953-.306a6.26 6.26 0 0 0-.213.885l.986.164.987.165c.035-.212.084-.412.145-.602l-.953-.306Zm-.18.743-.986-.164-.064.385.986.165.987.164.064-.386-.986-.164Zm-.064.386-.986-.165-.065.386.987.165.986.164.065-.386-.987-.164Zm-.064.386-.986-.165c-.001.005-.002.005 0 .002a.056.056 0 0 1 .004-.01c.002-.002.003-.003 0 0a.16.16 0 0 1-.02.017l.61.793.608.793c.407-.312.683-.744.77-1.266l-.986-.164Zm-.393.637-.609-.793-.328.252.61.793.608.793.328-.252-.609-.793Zm-.328.252-.609-.793-.328.252.61.793.608.793.328-.252-.609-.793Zm-.328.252-.609-.793a1.898 1.898 0 0 0-.747 1.4l.997.072.997.072.001-.01a.137.137 0 0 1-.026.047l-.004.005-.609-.793Zm-.359.679-.997-.072-.031.426.997.073.997.072.031-.427-.997-.072Zm-.031.427-.997-.073-.031.427.997.073.997.072.031-.427-.997-.072Zm-.031.427-.997-.073c0 .001.004-.044.041-.102a.271.271 0 0 1 .088-.088l.465.885.466.885c.56-.295.89-.814.934-1.435l-.997-.072Zm-.403.622-.465-.885-.371.195.465.885.465.885.372-.195-.466-.885Zm-.371.195-.465-.885-.372.195.465.885.466.886.371-.196-.465-.885Zm-.372.195-.465-.885a3.388 3.388 0 0 0-.887.66l.725.69.724.689c.087-.09.205-.182.369-.268l-.466-.886Zm-.627.465-.725-.69-.255.27.724.689.725.689.255-.27-.724-.688Zm-.256.269-.724-.69-.256.27.724.689.725.689.256-.27-.725-.688Zm-.256.269-.724-.69a5.21 5.21 0 0 0-.576.726l.835.55.835.55c.108-.163.226-.312.355-.447l-.725-.69Zm-.465.587-.835-.55-.21.317.835.55.835.55.21-.317-.835-.55Zm-.21.318-.835-.55-.21.317.836.55.835.55.21-.317-.836-.55Zm-.21.318-.834-.55a10.19 10.19 0 0 1-.405.57l.795.606.795.606c.17-.223.332-.45.485-.682l-.835-.55Zm-.444.626-.795-.606-.235.308.795.606.795.606.235-.308-.795-.606Zm-.235.308-.795-.606-.235.308.795.606.796.606.234-.308-.795-.606Zm-.235.308-.795-.606c-.012.016-.022.03-.077.043l.243.97.242.97c.472-.118.881-.375 1.183-.77l-.796-.607Zm-.63.407-.242-.97-.394.098.242.97.243.97.394-.098-.242-.97Zm-.394.099-.242-.97-.395.098.243.97.242.97.395-.098-.242-.97Zm-.394.098-.242-.97c-.333.083-.649.2-.944.355l.463.886.464.886c.142-.075.308-.138.502-.187l-.243-.97Zm-.723.27-.463-.886-.328.172.463.886.464.886.328-.172-.464-.886Zm-.328.172-.464-.886-.328.172.464.886.464.886.328-.172-.464-.886Zm-.328.172-.464-.886c-.319.167-.605.385-.856.646l.72.694.719.695c.112-.116.227-.201.345-.263l-.464-.886Zm-.6.454-.72-.694-.273.283.72.694.72.694.272-.282-.72-.695Zm-.274.283-.72-.694-.272.282.72.695.72.694.272-.283-.72-.694Zm-.272.283-.72-.695a.129.129 0 0 1-.014.013c-.001.001-.001 0 0 0h-.001a.108.108 0 0 1-.018.003l.089.996.09.996c.5-.045.945-.258 1.293-.619l-.72-.694Zm-.664.317-.09-.996-.39.035.089.996.09.997.39-.036-.089-.996Zm-.391.035-.09-.995-.39.035.089.996.09.996.39-.035-.089-.996Zm-.391.036-.09-.996a3.717 3.717 0 0 0-1.004.23l.359.933.359.934c.137-.053.291-.09.466-.105l-.09-.996Zm-.735.167-.36-.933-.344.132.36.934.358.933.345-.132-.36-.934Zm-.345.133-.359-.934-.344.133.359.933.359.934.344-.133-.359-.933Zm-.344.132-.36-.933a3.372 3.372 0 0 0-.942.56l.639.77.639.77a1.38 1.38 0 0 1 .383-.233l-.36-.934Zm-.663.397-.639-.77-.319.266.64.769.638.77.319-.265-.64-.77Zm-.319.265-.639-.77-.318.265.639.77.638.769.319-.265-.639-.77Zm-.319.265-.638-.77c-.058.048-.086.05-.105.05l.04 1 .042 1c.492-.021.933-.206 1.3-.511l-.638-.77Zm-.702.28-.041-1-.384.017.041.999.04.999.385-.016-.041-1Zm-.384.016-.04-1-.385.016.041 1 .041.998.384-.015-.041-1Zm-.384.015-.04-.999a1.36 1.36 0 0 1-.446-.058l-.284.958-.285.96c.358.105.725.154 1.096.139l-.04-1Zm-.77-.099.284-.958-.387-.115-.284.959-.285.959.387.114.285-.959Zm-.387-.114.284-.959-.387-.115-.284.96-.284.958.386.115.285-.96Zm-.387-.115.284-.959a2.1 2.1 0 0 0-1.42.072l.382.924.382.925c.03-.013.046-.016.088-.003l.284-.959Zm-.754.037-.382-.924-.368.152.382.924.382.924.368-.151-.382-.925Zm-.368.152-.382-.924-.367.152.382.924.382.924.367-.152-.382-.924Zm-.367.152-.382-.924c-.19.078-.382.138-.579.18l.209.978.208.978c.317-.068.625-.164.926-.288l-.382-.924Zm-.752.234-.209-.978-.384.082.208.978.209.978.384-.082-.208-.978Zm-.385.082-.208-.978-.385.082.209.978.208.978.385-.082-.209-.978Zm-.384.082-.209-.978a.252.252 0 0 1 .11.006c.038.01.043.022.016 0l-.646.763-.645.764c.426.36.977.552 1.582.423l-.208-.978Zm-.729-.209.646-.763-.343-.29-.646.763-.646.763.344.29.645-.763Zm-.343-.29.646-.764-.344-.29-.646.763-.646.763.344.291.646-.763Zm-.344-.291.646-.764c-.45-.38-1.024-.55-1.636-.394l.248.97.247.968a.269.269 0 0 1-.109-.004c-.046-.011-.06-.029-.041-.013l.645-.763Zm-.742-.189-.248-.969-.399.102.248.97.247.968.4-.102-.248-.969Zm-.4.102-.247-.969-.399.102.248.97.247.968.4-.102-.248-.969Zm-.398.102-.248-.969c-.004.001.025-.006.072.004a.245.245 0 0 1 .077.031l-.618.786-.619.785a1.786 1.786 0 0 0 1.583.332l-.247-.969Zm-.717-.148.618-.786-.318-.25-.619.785-.618.786.318.25.619-.785Zm-.319-.25.62-.786-.319-.25-.619.785-.618.785.318.25.619-.785Zm-.318-.251.619-.786a2.441 2.441 0 0 0-1.165-.509l-.145.99-.145.989c.063.01.133.034.218.102l.618-.786Zm-.69-.305.144-.99-.373-.055-.145.99-.145.99.373.054.145-.99Zm-.374-.055.145-.99-.373-.054-.145.99-.145.989.373.054.145-.99Zm-.373-.055.145-.99a11.387 11.387 0 0 1-.688-.122l-.206.978-.205.979c.27.057.54.105.809.145l.145-.99Zm-.749-.134.206-.978-.376-.08-.205.98-.206.978.376.079.205-.979Zm-.375-.079.205-.978-.375-.08-.206.98-.206.978.376.079.206-.979Zm-.376-.079.206-.978a.08.08 0 0 1-.019-.007.156.156 0 0 1-.035-.035l-.78.625-.781.625c.305.381.713.646 1.203.75l.206-.98Zm-.629-.395.78-.625-.252-.316-.781.625-.78.625.253.316.78-.625Zm-.253-.316.78-.625-.253-.316-.78.625-.78.625.252.316.781-.625Zm-.253-.316.78-.625a1.945 1.945 0 0 0-1.348-.729l-.101.995-.102.995.016.002s-.005-.001-.011-.005a.09.09 0 0 1-.016-.01c-.003-.003-.002-.003.001.002l.78-.625Zm-.67-.359.102-.995-.416-.042-.101.995-.102.994.416.043.102-.995Zm-.415-.042.101-.995-.416-.043-.101.995-.102.995.416.042.102-.994Zm-.416-.043.101-.995c-.084-.008-.108-.03-.12-.041l-.678.735-.677.736c.361.333.802.512 1.272.56l.102-.995Zm-.697-.3.678-.736-.281-.258-.677.735-.678.736.28.258.678-.736Zm-.28-.259.677-.735-.28-.259-.678.736-.677.736.28.258.678-.736Zm-.28-.258.677-.736a.888.888 0 0 1-.21-.302l-.914.405-.914.405c.161.365.388.692.683.964l.677-.736Zm-.447-.633.914-.405-.166-.374-.914.404-.914.405.166.375.914-.405Zm-.166-.375.914-.404-.165-.375-.915.404-.914.405.166.375.914-.405Zm-.166-.375.915-.404a3.33 3.33 0 0 0-.592-.916l-.736.678-.735.677c.082.09.162.208.234.37l.914-.405Zm-.413-.642.736-.678-.247-.268-.736.678-.735.677.247.268.735-.677Zm-.247-.268.736-.678-.247-.268-.736.677-.735.678.247.268.735-.677Zm-.247-.269.736-.677a2.914 2.914 0 0 0-.936-.67l-.418.909-.418.908a.92.92 0 0 1 .3.208l.736-.678Zm-.618-.438.418-.909-.371-.17-.418.908-.418.909.371.17.418-.908Zm-.37-.171.417-.908-.371-.171-.418.908-.418.909.371.17.418-.908Zm-.372-.17.418-.91c-.012-.004-.016-.008-.016-.008l.002.002a.103.103 0 0 1 .019.022l.003.005-.935.357-.934.356c.19.5.555.868 1.025 1.084l.418-.909Zm-.509-.532.935-.357-.138-.36-.934.355-.935.357.138.36.934-.355Zm-.137-.361.934-.357-.138-.361-.934.356-.934.356.137.362.935-.356Zm-.138-.362.934-.356a2.506 2.506 0 0 0-.72-1.02l-.65.76-.65.76c.074.063.12.13.152.212l.934-.356Zm-.436-.616.65-.76-.297-.254-.65.76-.65.76.297.254.65-.76Zm-.297-.255.65-.76-.298-.254-.65.76-.65.76.297.254.65-.76Zm-.298-.255.65-.76.007.009a.141.141 0 0 1 .024.047v-.009l-1 .05-.998.05c.027.534.25 1.016.667 1.373l.65-.76Zm-.318-.663.998-.05-.02-.408-.999.05-.999.05.02.409 1-.05Zm-.021-.408.999-.05-.02-.409-1 .05-.998.051.02.408.999-.05Zm-.02-.408.998-.05a1.867 1.867 0 0 0-.747-1.412l-.61.793-.611.792.005.004a.176.176 0 0 1-.032-.062l-.002-.015.998-.05Zm-.36-.67.61-.792-.338-.26-.61.792-.61.792.338.26.61-.791Zm-.338-.26.61-.792-.339-.261-.61.792-.61.792.338.261.61-.792Zm-.339-.26.61-.793c.013.01.068.059.102.155a.335.335 0 0 1 .02.166l-.976-.215-.977-.216c-.064.289-.066.612.049.935.115.325.324.576.562.76l.61-.793Zm-.244-.687.976.216.094-.426-.976-.216-.977-.216-.094.426.977.216Zm.094-.426.976.216.094-.426-.976-.216-.976-.216-.095.426.977.216Zm.094-.426.976.216a1.735 1.735 0 0 0-.496-1.661l-.698.716-.698.716c.001 0-.007-.007-.018-.024a.295.295 0 0 1-.032-.072c-.019-.064-.01-.107-.01-.107l.976.216Zm-.218-.73.698-.715-.311-.304-.698.716-.698.716.311.304.698-.716Zm-.311-.303.698-.716-.312-.304-.698.716-.698.716.312.304.698-.716Zm-.312-.304.698-.716a.402.402 0 0 1-.126-.193l-.973.234-.972.233c.11.456.351.843.675 1.158l.698-.716Zm-.4-.675.972-.234-.09-.372-.972.234-.972.233.089.372.972-.233Zm-.09-.372.972-.234-.089-.371-.972.233-.973.233.09.372.972-.233Zm-.09-.372.973-.233a.96.96 0 0 1-.014-.375l-.989-.15-.988-.15a2.96 2.96 0 0 0 .046 1.142l.973-.234Zm-.03-.758.989.15.059-.387-.989-.15-.989-.15-.058.386.988.15Zm.06-.387.988.15.058-.387-.988-.15-.989-.15-.059.387.99.15Zm.058-.387.988.15c.039-.253.079-.5.12-.745l-.986-.167-.986-.166a47.6 47.6 0 0 0-.125.778l.989.15Zm.122-.762.986.167.063-.375-.986-.166-.986-.167-.063.375.986.166Zm.063-.375.986.167.063-.375-.986-.166-.986-.167-.063.375.986.166Zm.063-.374.986.166a2.57 2.57 0 0 0-.095-1.23l-.95.308-.952.309c.035.109.04.198.025.28l.986.167Zm-.06-.756.951-.309-.123-.38-.951.308-.952.309.124.38.951-.308Zm-.123-.38.95-.31-.123-.38-.951.308-.951.309.123.38.952-.308Zm-.124-.382.951-.308a.902.902 0 0 1-.045-.364l-.996-.088-.996-.087a2.9 2.9 0 0 0 .135 1.156l.951-.309Zm-.09-.76.996.088.033-.38-.996-.087-.996-.087-.033.379.996.087Zm.033-.379.996.088.034-.38-.996-.087-.997-.088-.033.38.996.087Zm.034-.379.996.088a.366.366 0 0 1 .085-.195l-.797-.604-.797-.604c-.27.357-.443.77-.484 1.227l.997.088Zm.284-.71.797.603.252-.332-.797-.604-.797-.604-.252.332.797.604Zm.252-.333.797.604.251-.332-.797-.604-.797-.604-.251.332.797.604Zm.251-.332.797.604c.24-.317.42-.671.513-1.061l-.973-.232-.973-.232a.858.858 0 0 1-.16.317l.796.604Zm.337-.69.973.233.085-.358-.973-.232-.973-.232-.085.358.973.232Zm.085-.357.973.232.085-.358-.972-.232-.973-.232-.086.358.973.232Zm.086-.358.972.232c.083-.348.107-.706.082-1.069l-.998.07-.997.07c.012.183-.001.336-.032.465l.973.232Zm.056-.766.998-.07-.03-.41-.997.071-.997.07.029.409.997-.07Zm-.029-.409.998-.07-.03-.409-.997.07-.997.07.029.41.997-.071Zm-.029-.409.998-.07a.43.43 0 0 1 .038-.233l-.895-.446-.895-.445a2.425 2.425 0 0 0-.243 1.265l.997-.07Zm.141-.749.895.446.17-.34-.895-.446-.896-.446-.17.34.896.446Zm.17-.34.895.445.17-.34-.896-.446-.895-.445-.17.34.896.446Zm.169-.34.895.445c.059-.118.14-.228.248-.331l-.687-.727-.687-.726a3.167 3.167 0 0 0-.664.893l.895.445Zm.456-.613.687.727.287-.271-.687-.727-.687-.726-.287.27.687.727Zm.287-.27.687.726.287-.271-.687-.727-.687-.726-.287.27.687.727Zm.287-.272.687.727c.192-.182.38-.36.563-.536l-.69-.723-.692-.723c-.18.173-.366.349-.555.529l.687.726Zm.56-.532.69.723.273-.26-.69-.724-.692-.723-.273.261.691.723Zm.272-.26.691.722.273-.26-.69-.723-.692-.723-.273.26.691.723Zm.273-.261.691.722c.386-.368.574-.842.617-1.334l-.996-.087-.997-.087a.25.25 0 0 1-.014.073l.003-.004a.049.049 0 0 1 .005-.007l.691.724Zm.312-.699.996.087.038-.437-.996-.088-.996-.087-.039.438.997.087Zm.038-.438.996.088.038-.438-.996-.087-.996-.088-.038.438.996.087ZM6.19 9.6l.996.087c.002-.019.002.013-.03.064a.288.288 0 0 1-.098.098l-.477-.878-.478-.879c-.561.305-.857.833-.909 1.42l.996.088Zm.39-.63.478.88.352-.192-.477-.878-.478-.88-.352.192.478.879Zm.353-.19.477.878.352-.191-.477-.879-.478-.878-.352.19.478.88Zm.352-.192.477.879c.423-.23.746-.574.95-1.009l-.905-.424-.905-.425a.195.195 0 0 1-.095.1l.478.88Zm.522-.554.905.424.17-.363-.904-.425-.906-.424-.17.363.905.425Zm.17-.364.906.425.17-.364-.905-.424-.905-.425-.17.364.905.424Zm.171-.363.905.424a.162.162 0 0 1 .013-.023l.004-.005.002-.001a.1.1 0 0 1 .015-.008l-.41-.912-.412-.912a2.04 2.04 0 0 0-1.022 1.012l.905.425Zm.528-.525.411.912.358-.162-.411-.911-.411-.912-.358.161.411.912Zm.358-.161.41.911.358-.16-.41-.912-.412-.912-.357.161.41.912Zm.357-.161.411.911c.234-.105.465-.207.692-.305l-.397-.918-.397-.918c-.237.102-.477.208-.72.318l.411.912Zm.706-.312.397.918.348-.15-.397-.918-.396-.918-.349.15.397.918Zm.348-.15.397.917.348-.15-.397-.918-.396-.918-.348.15.396.919Zm.348-.15.397.917c.245-.106.484-.215.718-.328l-.436-.9-.435-.9c-.207.1-.42.197-.64.292l.396.918Zm.68-.311.435.9.33-.16-.435-.9-.435-.9-.331.16.435.9Zm.33-.16.436.9.33-.16-.435-.9-.435-.9-.331.16.435.9Zm.331-.16.436.9a5.1 5.1 0 0 0 .784-.471l-.59-.808-.588-.808c-.152.11-.311.206-.477.286l.435.9Zm.63-.38.59.809.3-.219-.59-.808-.588-.808-.3.219.589.808Zm.3-.218.59.808.3-.218-.59-.808-.589-.808-.3.218.59.808Zm.3-.218.59.808a2.89 2.89 0 0 1 .47-.28L14 4.025l-.426-.905c-.28.132-.546.29-.797.473l.59.808ZM14 4.025l.427.904.334-.158-.427-.904-.426-.904-.334.157.426.905Zm.334-.158.427.904.334-.157-.426-.905-.427-.904-.334.158.426.904Zm.335-.158.426.905c.349-.165.655-.397.924-.677l-.722-.692-.721-.693a1.15 1.15 0 0 1-.334.253l.427.904Zm.628-.464.722.692.294-.307-.721-.692-.721-.693-.295.307.721.693Zm.295-.307.721.692.295-.307-.721-.692-.722-.692-.294.306.72.693Zm.295-.307.72.692c.01-.01.015-.012.013-.01a.158.158 0 0 1-.07.022l.026-1 .027-1a1.891 1.891 0 0 0-1.438.604l.722.692Zm.69-.297-.027 1 .396.01.026-1 .026-.999-.395-.01-.027 1Zm.395.01-.026 1 .395.01.026-.999.026-1-.395-.01-.026 1Zm.395.011-.026 1c.4.01.79-.06 1.16-.211l-.379-.926-.378-.925a.845.845 0 0 1-.35.062l-.027 1Zm.755-.137.379.926.36-.147-.38-.926-.378-.925-.36.147.38.925Zm.36-.147.378.926.36-.147-.379-.926L18.462 1l-.36.147.379.925Zm.359-.147.379.926a.178.178 0 0 1-.07.01c-.025-.001-.024-.007.009.009l.436-.9.438-.9C19.549.837 19 .78 18.462 1l.378.925Zm.755.045-.437.9.395.192.436-.9.438-.9-.395-.191-.438.9Zm.395.192-.437.9.395.191.436-.9.437-.899-.395-.191-.436.9Zm.395.192-.437.9a1.78 1.78 0 0 0 1.687-.04l-.487-.874-.487-.873a.222.222 0 0 1 .094-.02c.052-.001.078.013.066.007l-.437.9Zm.763-.014.487.874.368-.206-.487-.873-.487-.874-.368.206.487.873Zm.368-.205.488.873.368-.206-.487-.873-.488-.873-.368.205.487.874Zm.369-.206.487.873s-.01.006-.032.012a.317.317 0 0 1-.209-.014l.486-.874.485-.875a1.707 1.707 0 0 0-1.705.005l.488.873Zm.732-.003-.486.874.364.202.486-.874.485-.875-.364-.202-.485.875Zm.364.202L22.495 3l.364.202.485-.874.486-.875-.364-.202-.485.875Zm.363.202-.485.874c.336.187.696.316 1.077.368l.135-.991.135-.991a1.077 1.077 0 0 1-.376-.135l-.486.875Zm.727.25-.135.992.363.05.135-.992.135-.99-.363-.05-.135.99Zm.363.05-.135.991.363.05.135-.991.134-.991-.362-.05-.135.991Zm.363.05-.135.99c.468.064.918-.034 1.325-.215l-.406-.913-.407-.914c-.154.069-.227.063-.242.06l-.135.992Zm.784-.138.406.913.422-.187-.407-.914-.406-.914-.422.188.407.914Zm.421-.188.407.914.421-.188-.406-.913-.407-.914-.421.188.406.913Zm.422-.187.406.913c.04-.017.04-.01.007-.009a.233.233 0 0 1-.103-.024l.459-.888.459-.888c-.551-.285-1.132-.242-1.635-.018l.407.914Zm.769-.008-.46.888.348.18.46-.888.458-.889-.347-.18-.46.889Zm.347.18-.459.888.348.18.459-.889.459-.888-.348-.18-.459.889Zm.348.18-.46.887c.174.09.34.197.497.321l.62-.784.621-.784a5.063 5.063 0 0 0-.82-.53l-.458.89Zm.657.424-.62.784.31.246.62-.784.621-.784-.31-.246-.62.784Zm.31.246-.62.784.31.245.62-.784.621-.784-.31-.245-.62.784Zm.31.245-.62.784c.407.323.889.464 1.39.445l-.037-1-.038-.998a.175.175 0 0 1-.062-.007.08.08 0 0 1-.012-.008l-.62.784Zm.733.23.038 1 .422-.017-.038-1-.038-.998-.422.016.038.999Zm.422-.016.038 1 .422-.017-.038-1-.038-.998-.422.016.038.999Zm.422-.016.038 1a.324.324 0 0 1-.198-.086c-.017-.016-.023-.027-.023-.026l.839-.545.839-.544a1.702 1.702 0 0 0-1.533-.799l.038 1Zm.656.343-.839.545.234.36.838-.545.84-.545-.234-.36-.839.545Zm.233.36-.838.544.233.36.839-.545.839-.544-.234-.36-.839.545Zm.234.36-.839.544c.295.455.735.77 1.286.873l.185-.983.185-.983c-.004 0-.002 0 .004.002a.107.107 0 0 1 .03.019s-.005-.005-.012-.017l-.84.544Zm.632.434-.185.983.4.075.184-.983.185-.983-.399-.075-.185.983Zm.4.075-.185.983.398.075.185-.983.185-.983-.399-.075-.185.983Zm.398.075-.184.983a.178.178 0 0 1 .028.007l.005.002h.001v.001l.009.01.783-.623.783-.622a2.035 2.035 0 0 0-1.24-.74l-.185.982Zm.642.38-.783.622.242.306.783-.623.783-.622-.242-.305-.783.622Zm.242.305-.783.623.243.305.783-.622.783-.623-.243-.305-.783.622Zm.243.306-.783.622c.28.352.64.606 1.057.762l.35-.937.35-.937a.41.41 0 0 1-.191-.133l-.783.623Zm.623.447-.35.937.382.142.35-.937.35-.937-.382-.142-.35.937Zm.381.142-.35.937.382.142.35-.936.35-.937-.382-.143-.35.937Zm.382.143-.35.936a.123.123 0 0 1 .018.009l-.002-.002-.005-.005.006.01.893-.45.893-.449a1.993 1.993 0 0 0-1.104-.986l-.35.937Zm.56.498-.893.45.18.356.892-.45.894-.449-.18-.356-.893.45Zm.18.357-.894.45.18.356.893-.45.893-.45-.18-.356-.892.45Zm.179.356-.894.45c.161.32.363.61.607.868l.726-.687.726-.687a1.628 1.628 0 0 1-.272-.393l-.893.45Zm.439.631-.726.687.26.275.725-.688.727-.687-.26-.274-.726.687Zm.26.274-.727.688.26.274.726-.687.726-.688-.26-.274-.726.687Zm.26.275-.727.687c.183.193.372.385.567.574l.696-.718.697-.717c-.175-.17-.344-.341-.508-.514l-.726.688Zm.536.543-.696.718.277.269.697-.718.696-.717-.277-.27-.697.718Zm.277.27-.696.717.277.27.697-.718.697-.718-.278-.27-.697.718Zm.278.269-.697.717c.053.052.089.11.112.194l.965-.261.966-.26a2.396 2.396 0 0 0-.65-1.108l-.696.718Zm.38.65-.965.26.102.381.966-.26.965-.26-.102-.382-.966.261Zm.103.381-.965.26.102.381.966-.26.965-.26-.103-.382-.965.261Zm.103.38-.966.261c.07.26.14.513.212.76l.961-.275.961-.275a47.648 47.648 0 0 1-.203-.73l-.965.26Zm.207.746-.961.276.104.364.962-.275.96-.276-.104-.364-.96.275Zm.105.365-.962.275.105.364.961-.275.961-.276-.104-.364-.961.276Zm.104.364-.961.276c.096.334.237.649.423.942l.844-.535.845-.536a1.617 1.617 0 0 1-.19-.423l-.96.276Zm.306.683-.844.535.202.319.844-.536.845-.535-.202-.319-.845.536Zm.202.318-.844.536.202.318.844-.535.845-.536-.202-.318-.845.535Zm.202.319-.844.535c.096.153.175.312.237.48l.938-.345.939-.345a4.514 4.514 0 0 0-.425-.86l-.845.535Zm.331.67-.938.345.13.351.938-.345.938-.345-.13-.351-.938.345Zm.13.351-.939.345.13.352.938-.345.938-.345-.129-.352-.938.345Zm.129.352-.939.345c.057.155.094.315.111.482l.995-.1.995-.1a3.96 3.96 0 0 0-.224-.972l-.938.345Zm.167.726-.995.101.038.375.995-.1.995-.1-.038-.376-.995.1Zm.038.376-.995.1.038.375.995-.1.995-.1-.038-.376-.995.1Zm.038.375-.995.1c.04.4.167.776.367 1.122l.866-.5.866-.5a.796.796 0 0 1-.11-.323l-.994.1Zm.238.722-.866.5.2.347.867-.5.865-.5-.2-.347-.866.5Zm.2.347-.865.5.2.347.866-.5.866-.5-.2-.347-.867.5Zm.2.347-.865.5a.173.173 0 0 1 .015.033v.004c0 .003 0 .01-.002.019l.984.177.984.176c.09-.495 0-.979-.25-1.41l-.865.5Zm.132.733-.984-.177-.07.386.985.176.984.177.07-.386-.985-.176Zm-.069.385-.984-.176-.07.386.985.176.984.177.07-.386-.985-.177Zm-.07.386-.984-.176c-.042.239-.086.438-.128.602l.968.25.968.252c.058-.225.112-.476.161-.751l-.984-.177Zm-.144.677-.968-.251-.075.29.968.252.968.251.075-.29-.968-.252Zm-.075.291-.968-.251-.076.29.968.252.968.251.076-.29-.968-.252Zm-.076.291-.968-.251c-.03.117-.08.334-.058.568.012.12.054.36.24.588.222.273.535.386.815.386v-2a.95.95 0 0 1 .734.35.903.903 0 0 1 .202.478c.013.138-.017.21.003.132l-.968-.251Zm.029.291v1h.104v-2h-.104v1Zm.104 0v1h.105v-2h-.105v1Zm.105 0v1a.937.937 0 0 1-.69-.3.797.797 0 0 1-.163-.261c-.022-.062-.014-.072-.005.03l.996-.09.996-.09a2.15 2.15 0 0 0-.108-.538 1.21 1.21 0 0 0-.242-.404 1.063 1.063 0 0 0-.784-.347v1Zm.138.379-.996.09.035.378.996-.09.996-.09-.035-.379-.996.09Z"/></svg>