<svg width="21" height="26" viewBox="0 0 21 26" fill="none" xmlns="http://www.w3.org/2000/svg">
<path d="M10.0528 2.14868C6.3286 2.14868 3.30199 5.33459 3.30199 9.2548V12.6776C3.30199 13.4 3.00945 14.5015 2.66066 15.1173L1.36676 17.3795C0.567911 18.777 1.11923 20.3285 2.5819 20.8496C7.43124 22.5551 12.6632 22.5551 17.5125 20.8496C18.8739 20.3759 19.4702 18.6822 18.7276 17.3795L17.4337 15.1173C17.0962 14.5015 16.8036 13.4 16.8036 12.6776V9.2548C16.8036 5.34644 13.7658 2.14868 10.0528 2.14868Z" stroke="#292D32" stroke-width="2" stroke-miterlimit="10" stroke-linecap="round"/>
<path d="M12.1343 2.49229C11.7855 2.38569 11.4255 2.30279 11.0542 2.25541C9.97404 2.11329 8.93891 2.1962 7.9713 2.49229C8.29759 1.61586 9.10769 1 10.0528 1C10.9979 1 11.808 1.61586 12.1343 2.49229Z" stroke="#292D32" stroke-width="2" stroke-miterlimit="10" stroke-linecap="round" stroke-linejoin="round"/>
<path d="M13.4282 21.2762C13.4282 23.2304 11.9093 24.8293 10.0528 24.8293C9.13022 24.8293 8.27512 24.4266 7.66757 23.7871C7.05999 23.1475 6.67745 22.2474 6.67745 21.2762" stroke="#292D32" stroke-width="2" stroke-miterlimit="10"/>
</svg>
