<svg width="115" height="128" viewBox="0 0 115 128" fill="none" xmlns="http://www.w3.org/2000/svg">
<g filter="url(#filter0_d_774_9206)">
<path d="M4.25 11C4.25 6.58172 7.83172 3 12.25 3H102.75C107.168 3 110.75 6.58172 110.75 11V115C110.75 119.418 107.168 123 102.75 123H12.25C7.83172 123 4.25 119.418 4.25 115V11Z" fill="white" shape-rendering="crispEdges"/>
<path d="M12.25 3.5H102.75C106.892 3.5 110.25 6.85786 110.25 11V115C110.25 119.142 106.892 122.5 102.75 122.5H12.25C8.10786 122.5 4.75 119.142 4.75 115V11C4.75 6.85786 8.10786 3.5 12.25 3.5Z" stroke="url(#paint0_linear_774_9206)" shape-rendering="crispEdges"/>
<path d="M43.6091 42.5488V43.752H38.6872V47.7168H37.1833V43.752H32.3161V42.5488H43.6091ZM35.1872 35.8496V37.3672H40.7107V35.8496H42.2419V41.2637H33.6833V35.8496H35.1872ZM35.1872 40.0332H40.7107V38.5703H35.1872V40.0332ZM48.7191 37.5449C48.7054 39.1719 49.7308 40.7168 51.6722 41.3457L50.8793 42.5488C49.5052 42.084 48.5345 41.1543 47.9945 39.9648C47.4408 41.2773 46.4222 42.3027 44.9867 42.8086L44.139 41.6055C46.1761 40.9492 47.1879 39.2812 47.1879 37.5312V36.123H48.7191V37.5449ZM54.0375 35.3574V39.0078H55.7601V40.293H54.0375V44.4355H52.5199V35.3574H54.0375ZM54.5296 46.2402V47.4707H46.1214V43.5469H47.68V46.2402H54.5296ZM63.8473 38.3242C63.8336 40.5254 64.9411 42.7676 66.8551 43.6836L65.9254 44.9004C64.5856 44.2236 63.6217 42.918 63.0954 41.3457C62.5553 43.0273 61.5436 44.4219 60.1286 45.1328L59.1989 43.916C61.1813 42.9727 62.3161 40.6074 62.3297 38.3242V36.3555H63.8473V38.3242ZM69.111 35.3574V40.1973H71.0114V41.4961H69.111V47.7168H67.5934V35.3574H69.111ZM76.0804 37.5039C76.0804 39.0352 77.1331 40.5527 79.1018 41.168L78.3225 42.3438C76.9212 41.8994 75.9026 40.9629 75.3421 39.7871C74.7815 41.0654 73.7356 42.084 72.2659 42.5762L71.4866 41.4004C73.469 40.7305 74.5354 39.1172 74.5491 37.5039V37.3535H71.8831V36.1367H78.678V37.3535H76.0804V37.5039ZM81.6858 35.3574V42.8086H80.1546V35.3574H81.6858ZM81.6858 43.3828V47.7168H80.1546V44.6133H73.2503V43.3828H81.6858ZM32.7211 60.7734V62.3457H37.6156V63.5762H26.35V62.3457H31.2172V60.7734H32.7211ZM31.9691 64.3691C34.6488 64.3691 36.2348 65.1348 36.2484 66.5293C36.2348 67.9238 34.6488 68.7031 31.9691 68.7031C29.2758 68.7031 27.6625 67.9238 27.6625 66.5293C27.6625 65.1348 29.2758 64.3691 31.9691 64.3691ZM31.9691 65.5312C30.1508 65.5312 29.1938 65.873 29.2074 66.5293C29.1938 67.2129 30.1508 67.5547 31.9691 67.5547C33.7465 67.5547 34.7172 67.2129 34.7309 66.5293C34.7172 65.873 33.7465 65.5312 31.9691 65.5312ZM36.6039 56.9043V58.1211H33.0492C33.2953 59.126 34.7787 60.0283 37.0824 60.2539L36.5355 61.4434C34.2934 61.2178 32.6391 60.3428 31.9691 59.0918C31.2992 60.3428 29.6586 61.2178 27.4164 61.4434L26.8832 60.2539C29.1664 60.0283 30.6498 59.1328 30.9027 58.1211H27.3754V56.9043H36.6039ZM48.0577 56.3574V59.4062H49.7803V60.6641H48.0577V63.5762H46.5401V56.3574H48.0577ZM41.5772 64.0684V65.1348H46.5401V64.0684H48.0577V68.5664H40.0733V64.0684H41.5772ZM41.5772 67.3633H46.5401V66.3105H41.5772V67.3633ZM45.6514 57.5059V58.7227H38.3233V57.5059H41.2354V56.2617H42.753V57.5059H45.6514ZM41.9873 59.1465C43.7784 59.1465 44.9952 60.0078 45.0088 61.3203C44.9952 62.6328 43.7784 63.4941 41.9873 63.4941C40.1827 63.4941 38.9522 62.6328 38.9522 61.3203C38.9522 60.0078 40.1827 59.1465 41.9873 59.1465ZM41.9873 60.2676C41.044 60.2676 40.4287 60.6641 40.4287 61.3203C40.4287 61.9902 41.044 62.373 41.9873 62.373C42.9307 62.373 43.5596 61.9902 43.5596 61.3203C43.5596 60.6641 42.9307 60.2676 41.9873 60.2676ZM61.5485 62.4688V63.6855H56.777V65.9551H55.2321V63.6855H50.2555V62.4688H61.5485ZM60.3044 67.2266V68.4707H51.6364V64.8066H53.1677V67.2266H60.3044ZM55.8884 56.6309C58.5544 56.6309 60.318 57.6016 60.318 59.1602C60.318 60.7188 58.5544 61.6758 55.8884 61.6758C53.2223 61.6758 51.4587 60.7188 51.4587 59.1602C51.4587 57.6016 53.2223 56.6309 55.8884 56.6309ZM55.8884 57.834C54.193 57.834 53.0856 58.3125 53.0993 59.1602C53.0856 59.9805 54.193 60.459 55.8884 60.459C57.5973 60.459 58.6911 59.9805 58.6911 59.1602C58.6911 58.3125 57.5973 57.834 55.8884 57.834ZM73.5081 62.2773V63.4941H62.2288V62.2773H67.1234V61.1016H63.6097V56.918H72.1409V58.1074H65.1273V59.8984H72.2093V61.1016H68.6136V62.2773H73.5081ZM67.848 64.2051C70.514 64.2051 72.1136 65.0117 72.1273 66.4609C72.1136 67.8965 70.514 68.7168 67.848 68.7168C65.1546 68.7168 63.5413 67.8965 63.5413 66.4609C63.5413 65.0117 65.1546 64.2051 67.848 64.2051ZM67.848 65.3672C66.0433 65.3672 65.0726 65.75 65.0863 66.4609C65.0726 67.1719 66.0433 67.541 67.848 67.541C69.6116 67.541 70.596 67.1719 70.6097 66.4609C70.596 65.75 69.6116 65.3672 67.848 65.3672ZM78.6181 58.5859C78.6181 60.1035 79.6025 61.5254 81.5302 62.1133L80.8056 63.3027C79.4179 62.8721 78.4336 61.9902 77.8935 60.8691C77.3466 62.168 76.3007 63.2002 74.8173 63.6992L74.0517 62.4961C76.0478 61.8398 77.0869 60.2402 77.0869 58.5996V58.4492H74.4755V57.2188H81.1884V58.4492H78.6181V58.5859ZM83.9365 56.3574V59.3242H85.6591V60.5684H83.9365V63.7266H82.4189V56.3574H83.9365ZM79.917 64C82.4736 64 84.0459 64.8613 84.0595 66.3379C84.0459 67.8281 82.4736 68.7031 79.917 68.7031C77.333 68.7031 75.7334 67.8281 75.7334 66.3379C75.7334 64.8613 77.333 64 79.917 64ZM79.917 65.1895C78.2216 65.1895 77.2509 65.5859 77.2509 66.3379C77.2509 67.1035 78.2216 67.5137 79.917 67.5137C81.6123 67.5137 82.5556 67.1035 82.5556 66.3379C82.5556 65.5859 81.6123 65.1895 79.917 65.1895ZM30.766 80.3242C30.7523 82.5254 31.8598 84.7676 33.7738 85.6836L32.8441 86.9004C31.5043 86.2236 30.5404 84.918 30.0141 83.3457C29.474 85.0273 28.4623 86.4219 27.0473 87.1328L26.1176 85.916C28.1 84.9727 29.2348 82.6074 29.2484 80.3242V78.3555H30.766V80.3242ZM36.0297 77.3574V82.1973H37.9301V83.4961H36.0297V89.7168H34.5121V77.3574H36.0297ZM42.9991 79.5039C42.9991 81.0352 44.0518 82.5527 46.0205 83.168L45.2412 84.3438C43.8399 83.8994 42.8213 82.9629 42.2608 81.7871C41.7002 83.0654 40.6543 84.084 39.1846 84.5762L38.4053 83.4004C40.3877 82.7305 41.4541 81.1172 41.4678 79.5039V79.3535H38.8018V78.1367H45.5967V79.3535H42.9991V79.5039ZM48.6045 77.3574V84.8086H47.0733V77.3574H48.6045ZM48.6045 85.3828V89.7168H47.0733V86.6133H40.169V85.3828H48.6045ZM56.7738 78.2598C58.6331 78.2598 59.973 79.9551 59.9866 82.6211C59.973 85.3145 58.6331 86.9961 56.7738 86.9961C54.9007 86.9961 53.5472 85.3145 53.5609 82.6211C53.5472 79.9551 54.9007 78.2598 56.7738 78.2598ZM56.7738 79.627C55.7347 79.627 55.0238 80.7344 55.0238 82.6211C55.0238 84.5215 55.7347 85.6289 56.7738 85.6289C57.8265 85.6289 58.5238 84.5215 58.5238 82.6211C58.5238 80.7344 57.8265 79.627 56.7738 79.627ZM64.9632 80.3105V81.582H63.1312V83.9609H64.9632V85.2051H63.1312V89.7168H61.6136V77.3574H63.1312V80.3105H64.9632ZM75.2959 78.1094V79.2168C75.2959 80.3721 75.2959 81.6367 74.9677 83.3867H76.6767V84.6172H71.7685V89.7305H70.2373V84.6172H65.4111V83.3867H73.4228C73.7646 81.7051 73.7783 80.4473 73.7783 79.3398H66.7373V78.1094H75.2959ZM81.8004 79.5859C81.8004 81.1035 82.7848 82.5254 84.7125 83.1133L83.9879 84.3027C82.6002 83.8721 81.6158 82.9902 81.0758 81.8691C80.5289 83.168 79.483 84.2002 77.9996 84.6992L77.234 83.4961C79.2301 82.8398 80.2691 81.2402 80.2691 79.5996V79.4492H77.6578V78.2188H84.3707V79.4492H81.8004V79.5859ZM87.1188 77.3574V80.3242H88.8414V81.5684H87.1188V84.7266H85.6012V77.3574H87.1188ZM83.0992 85C85.6559 85 87.2281 85.8613 87.2418 87.3379C87.2281 88.8281 85.6559 89.7031 83.0992 89.7031C80.5152 89.7031 78.9156 88.8281 78.9156 87.3379C78.9156 85.8613 80.5152 85 83.0992 85ZM83.0992 86.1895C81.4039 86.1895 80.4332 86.5859 80.4332 87.3379C80.4332 88.1035 81.4039 88.5137 83.0992 88.5137C84.7945 88.5137 85.7379 88.1035 85.7379 87.3379C85.7379 86.5859 84.7945 86.1895 83.0992 86.1895Z" fill="black"/>
</g>
<defs>
<filter id="filter0_d_774_9206" x="0.25" y="0" width="114.5" height="128" filterUnits="userSpaceOnUse" color-interpolation-filters="sRGB">
<feFlood flood-opacity="0" result="BackgroundImageFix"/>
<feColorMatrix in="SourceAlpha" type="matrix" values="0 0 0 0 0 0 0 0 0 0 0 0 0 0 0 0 0 0 127 0" result="hardAlpha"/>
<feOffset dy="1"/>
<feGaussianBlur stdDeviation="2"/>
<feComposite in2="hardAlpha" operator="out"/>
<feColorMatrix type="matrix" values="0 0 0 0 0 0 0 0 0 0 0 0 0 0 0 0 0 0 0.25 0"/>
<feBlend mode="normal" in2="BackgroundImageFix" result="effect1_dropShadow_774_9206"/>
<feBlend mode="normal" in="SourceGraphic" in2="effect1_dropShadow_774_9206" result="shape"/>
</filter>
<linearGradient id="paint0_linear_774_9206" x1="19" y1="20.5" x2="95" y2="113.5" gradientUnits="userSpaceOnUse">
<stop stop-color="#D10F31"/>
<stop offset="1" stop-color="#63B0E4"/>
</linearGradient>
</defs>
</svg>
