<svg xmlns="http://www.w3.org/2000/svg" width="34" height="35" fill="none"><mask id="a" width="30" height="29" x="2" y="3" maskUnits="userSpaceOnUse" style="mask-type:luminance"><path fill="#fff" fill-rule="evenodd" d="M2.834 3.333H31.11v28.263H2.834V3.334Z" clip-rule="evenodd"/></mask><g mask="url(#a)"><path fill="#A9A9A9" fill-rule="evenodd" d="M10.838 5.458c-3.571 0-5.879 2.447-5.879 6.232v11.549c0 3.786 2.308 6.232 5.88 6.232h12.253c3.58 0 5.894-2.446 5.894-6.232v-11.55c0-3.784-2.314-6.231-5.894-6.231H10.838Zm12.254 26.137H10.838c-4.788 0-8.004-3.358-8.004-8.356v-11.55c0-4.997 3.216-8.356 8.004-8.356h12.254c4.796 0 8.019 3.359 8.019 8.357v11.549c0 4.998-3.223 8.357-8.019 8.357Z" clip-rule="evenodd"/></g><path fill="#A9A9A9" fill-rule="evenodd" d="M7.482 24.839a1.06 1.06 0 0 1-.77-1.792l2.164-2.285a3.054 3.054 0 0 1 4.302-.13l1.357 1.378a.972.972 0 0 0 1.373.015c.143-.168 3.229-3.915 3.229-3.915a3.438 3.438 0 0 1 2.333-1.241c.92-.081 1.815.187 2.527.772.061.05.117.097 3.228 3.292a1.061 1.061 0 1 1-1.522 1.482s-2.903-2.98-3.11-3.18c-.22-.18-.572-.285-.919-.251-.353.035-.67.204-.895.477-3.293 3.994-3.332 4.032-3.386 4.084a3.095 3.095 0 0 1-4.372-.045s-1.317-1.337-1.34-1.364c-.327-.303-.911-.284-1.26.086l-2.168 2.285c-.21.221-.49.332-.771.332ZM12.124 12.016a1.423 1.423 0 1 0 .004 2.846 1.423 1.423 0 0 0-.004-2.846Zm.001 4.97a3.552 3.552 0 0 1-3.547-3.548 3.55 3.55 0 0 1 3.547-3.547 3.554 3.554 0 0 1 3.549 3.547 3.553 3.553 0 0 1-3.549 3.549Z" clip-rule="evenodd"/></svg>