<svg width="30" height="29" viewBox="0 0 30 29" fill="none" xmlns="http://www.w3.org/2000/svg">
<mask id="mask0_870_1491" style="mask-type:luminance" maskUnits="userSpaceOnUse" x="0" y="0" width="30" height="29">
<path fill-rule="evenodd" clip-rule="evenodd" d="M0.833984 0.333496H29.1101V28.5957H0.833984V0.333496Z" fill="white"/>
</mask>
<g mask="url(#mask0_870_1491)">
<path fill-rule="evenodd" clip-rule="evenodd" d="M8.83815 2.45801C5.26673 2.45801 2.95898 4.90459 2.95898 8.68992V20.2386C2.95898 24.0253 5.26673 26.4705 8.83815 26.4705H21.0923C24.6722 26.4705 26.9856 24.0253 26.9856 20.2386V8.68992C26.9856 4.90459 24.6722 2.45801 21.0923 2.45801H8.83815ZM21.0923 28.5955H8.83815C4.04982 28.5955 0.833984 25.2366 0.833984 20.2386V8.68992C0.833984 3.69192 4.04982 0.333008 8.83815 0.333008H21.0923C25.8877 0.333008 29.1106 3.69192 29.1106 8.68992V20.2386C29.1106 25.2366 25.8877 28.5955 21.0923 28.5955V28.5955Z" fill="#A9A9A9"/>
</g>
<path fill-rule="evenodd" clip-rule="evenodd" d="M5.48194 21.8387C5.21844 21.8387 4.95636 21.7424 4.75094 21.5469C4.32453 21.1446 4.30753 20.4702 4.71128 20.0467L6.87594 17.7616C8.02203 16.5447 9.95578 16.4852 11.1784 17.6327L12.5355 19.0097C12.9138 19.3922 13.5286 19.3992 13.9083 19.0252C14.0514 18.8567 17.1369 15.1096 17.1369 15.1096C17.7234 14.3984 18.5507 13.9592 19.4701 13.8686C20.3909 13.7878 21.2849 14.0556 21.9974 14.6407C22.0584 14.6902 22.1136 14.7384 25.2246 17.933C25.634 18.3523 25.6269 19.0252 25.2062 19.4347C24.7869 19.8469 24.1125 19.8342 23.7031 19.4148C23.7031 19.4148 20.8004 16.4356 20.5935 16.2344C20.3739 16.0545 20.0212 15.9497 19.6741 15.9837C19.3214 16.0191 19.004 16.1877 18.7788 16.4611C15.4864 20.4547 15.4468 20.4929 15.3929 20.5453C14.1774 21.7382 12.2154 21.7183 11.0211 20.5C11.0211 20.5 9.70361 19.1627 9.68094 19.1357C9.35369 18.8326 8.77003 18.8524 8.42011 19.2222L6.25261 21.5072C6.04294 21.7282 5.76244 21.8387 5.48194 21.8387V21.8387Z" fill="#A9A9A9"/>
<path fill-rule="evenodd" clip-rule="evenodd" d="M10.1236 9.01562C9.34014 9.01562 8.70264 9.65312 8.70264 10.438C8.70264 11.2228 9.34014 11.8617 10.125 11.8617C10.9098 11.8617 11.5487 11.2228 11.5487 10.438C11.5487 9.65454 10.9098 9.01704 10.1236 9.01562M10.125 13.9867C8.16855 13.9867 6.57764 12.3944 6.57764 10.438C6.57764 8.48154 8.16855 6.89062 10.125 6.89062C12.0828 6.89204 13.6737 8.48437 13.6737 10.438C13.6737 12.3944 12.0814 13.9867 10.125 13.9867" fill="#A9A9A9"/>
</svg>
