<svg width="31" height="31" viewBox="0 0 31 31" fill="none" xmlns="http://www.w3.org/2000/svg">
<path d="M19.5179 19.7856C20.5529 19.7856 21.3929 20.6256 21.3929 21.6606V23.8056L21.3843 23.9214C21.0521 26.2003 19.0057 27.2953 15.5718 27.2953C12.1507 27.2953 10.0711 26.2131 9.62215 23.961L9.60715 23.8035V21.6606C9.60715 20.6256 10.4471 19.7856 11.4821 19.7856H19.5179ZM20.0471 13.3571H26.4821C27.5171 13.3571 28.3571 14.1971 28.3571 15.2321V17.3771L28.3486 17.4928C28.0164 19.7717 25.97 20.8667 22.5361 20.8667L22.3561 20.8646C22.1909 20.2774 21.8477 19.7558 21.3737 19.3719C20.8997 18.9879 20.3183 18.7604 19.7096 18.7206L19.5179 18.7142H18.53C19.0899 18.2628 19.5414 17.6916 19.8514 17.0426C20.1615 16.3936 20.3221 15.6834 20.3214 14.9642C20.3214 14.4006 20.225 13.8606 20.0471 13.3571ZM4.51786 13.3571H10.9529C10.775 13.8606 10.6786 14.4006 10.6786 14.9642C10.6786 16.3892 11.2979 17.6717 12.2814 18.5535L12.47 18.7142H11.4821C10.13 18.7142 8.99 19.6249 8.64286 20.8678L8.6075 20.8667C5.18643 20.8667 3.10679 19.7846 2.65786 17.5324L2.64286 17.3749V15.2321C2.64286 14.1971 3.48286 13.3571 4.51786 13.3571ZM15.5 11.2142C16.4946 11.2142 17.4484 11.6093 18.1517 12.3126C18.8549 13.0158 19.25 13.9697 19.25 14.9642C19.25 15.9588 18.8549 16.9126 18.1517 17.6159C17.4484 18.3191 16.4946 18.7142 15.5 18.7142C14.5054 18.7142 13.5516 18.3191 12.8484 17.6159C12.1451 16.9126 11.75 15.9588 11.75 14.9642C11.75 13.9697 12.1451 13.0158 12.8484 12.3126C13.5516 11.6093 14.5054 11.2142 15.5 11.2142ZM22.4643 4.78564C23.4589 4.78564 24.4127 5.18073 25.1159 5.88399C25.8192 6.58726 26.2143 7.54108 26.2143 8.53564C26.2143 9.53021 25.8192 10.484 25.1159 11.1873C24.4127 11.8906 23.4589 12.2856 22.4643 12.2856C21.4697 12.2856 20.5159 11.8906 19.8126 11.1873C19.1094 10.484 18.7143 9.53021 18.7143 8.53564C18.7143 7.54108 19.1094 6.58726 19.8126 5.88399C20.5159 5.18073 21.4697 4.78564 22.4643 4.78564ZM8.53572 4.78564C9.53028 4.78564 10.4841 5.18073 11.1874 5.88399C11.8906 6.58726 12.2857 7.54108 12.2857 8.53564C12.2857 9.53021 11.8906 10.484 11.1874 11.1873C10.4841 11.8906 9.53028 12.2856 8.53572 12.2856C7.54116 12.2856 6.58733 11.8906 5.88407 11.1873C5.18081 10.484 4.78572 9.53021 4.78572 8.53564C4.78572 7.54108 5.18081 6.58726 5.88407 5.88399C6.58733 5.18073 7.54116 4.78564 8.53572 4.78564Z" fill="#272727"/>
</svg>
