<svg width="31" height="31" viewBox="0 0 31 31" fill="none" xmlns="http://www.w3.org/2000/svg">
<path d="M19.5179 19.7858C20.5529 19.7858 21.3929 20.6258 21.3929 21.6608V23.8058L21.3843 23.9215C21.0521 26.2004 19.0057 27.2954 15.5718 27.2954C12.1507 27.2954 10.0711 26.2133 9.62215 23.9611L9.60715 23.8036V21.6608C9.60715 20.6258 10.4471 19.7858 11.4821 19.7858H19.5179ZM20.0471 13.3572H26.4821C27.5171 13.3572 28.3571 14.1972 28.3571 15.2322V17.3772L28.3486 17.4929C28.0164 19.7718 25.97 20.8668 22.5361 20.8668L22.3561 20.8647C22.1909 20.2775 21.8477 19.756 21.3737 19.372C20.8997 18.988 20.3183 18.7605 19.7096 18.7208L19.5179 18.7143H18.53C19.0899 18.2629 19.5414 17.6917 19.8514 17.0427C20.1615 16.3938 20.3221 15.6835 20.3214 14.9643C20.3214 14.4008 20.225 13.8608 20.0471 13.3572ZM4.51786 13.3572H10.9529C10.775 13.8608 10.6786 14.4008 10.6786 14.9643C10.6786 16.3893 11.2979 17.6718 12.2814 18.5536L12.47 18.7143H11.4821C10.13 18.7143 8.99 19.6251 8.64286 20.8679L8.6075 20.8668C5.18643 20.8668 3.10679 19.7847 2.65786 17.5326L2.64286 17.3751V15.2322C2.64286 14.1972 3.48286 13.3572 4.51786 13.3572ZM15.5 11.2143C16.4946 11.2143 17.4484 11.6094 18.1517 12.3127C18.8549 13.0159 19.25 13.9698 19.25 14.9643C19.25 15.9589 18.8549 16.9127 18.1517 17.616C17.4484 18.3192 16.4946 18.7143 15.5 18.7143C14.5054 18.7143 13.5516 18.3192 12.8484 17.616C12.1451 16.9127 11.75 15.9589 11.75 14.9643C11.75 13.9698 12.1451 13.0159 12.8484 12.3127C13.5516 11.6094 14.5054 11.2143 15.5 11.2143ZM22.4643 4.78577C23.4589 4.78577 24.4127 5.18085 25.1159 5.88412C25.8192 6.58738 26.2143 7.5412 26.2143 8.53577C26.2143 9.53033 25.8192 10.4842 25.1159 11.1874C24.4127 11.8907 23.4589 12.2858 22.4643 12.2858C21.4697 12.2858 20.5159 11.8907 19.8126 11.1874C19.1094 10.4842 18.7143 9.53033 18.7143 8.53577C18.7143 7.5412 19.1094 6.58738 19.8126 5.88412C20.5159 5.18085 21.4697 4.78577 22.4643 4.78577ZM8.53572 4.78577C9.53028 4.78577 10.4841 5.18085 11.1874 5.88412C11.8906 6.58738 12.2857 7.5412 12.2857 8.53577C12.2857 9.53033 11.8906 10.4842 11.1874 11.1874C10.4841 11.8907 9.53028 12.2858 8.53572 12.2858C7.54116 12.2858 6.58733 11.8907 5.88407 11.1874C5.18081 10.4842 4.78572 9.53033 4.78572 8.53577C4.78572 7.5412 5.18081 6.58738 5.88407 5.88412C6.58733 5.18085 7.54116 4.78577 8.53572 4.78577Z" fill="#D3D3D3"/>
</svg>
