<svg width="22" height="22" viewBox="0 0 22 22" fill="none" xmlns="http://www.w3.org/2000/svg">
<path d="M18.8291 0.5C20.3019 0.5 21.4961 1.69423 21.4961 3.16699V14.833C21.4961 16.2526 20.3863 17.4092 18.9873 17.4912C18.9904 17.4388 18.9961 17.3862 18.9961 17.333V5.66699C18.9961 4.19423 17.8019 3 16.3291 3H4.66309C4.60958 3 4.55663 3.0047 4.50391 3.00781C4.58636 1.60922 5.74383 0.5 7.16309 0.5H18.8291Z" fill="#272727"/>
<path d="M14.8372 5.5H3.17057C2.2501 5.5 1.50391 6.24619 1.50391 7.16667V18.8333C1.50391 19.7538 2.2501 20.5 3.17057 20.5H14.8372C15.7577 20.5 16.5039 19.7538 16.5039 18.8333V7.16667C16.5039 6.24619 15.7577 5.5 14.8372 5.5Z" fill="#272727" stroke="#272727" stroke-width="2" stroke-linecap="round" stroke-linejoin="round"/>
</svg>
