<svg width="44" height="44" viewBox="0 0 44 44" fill="none" xmlns="http://www.w3.org/2000/svg">
<circle cx="22" cy="22" r="20" fill="white"/>
<path d="M8.5 13L11 9.5L14.5 11" stroke="#8B2720" stroke-width="1.5" stroke-linecap="round"/>
<path d="M10.5 15L12 13L15 13.5" stroke="#8B2720" stroke-width="1.5" stroke-linecap="round"/>
<path d="M35 12.5L34 10L30 10.5" stroke="#8B2720" stroke-width="1.5" stroke-linecap="round"/>
<path d="M34 15.5L31.5 12.5L28.5 13.5" stroke="#8B2720" stroke-width="1.5" stroke-linecap="round"/>
<path d="M9 31L11 33L14.5 32" stroke="#8B2720" stroke-width="1.5" stroke-linecap="round"/>
<path d="M10.5 27L11.5 29.5L15 28" stroke="#8B2720" stroke-width="1.5" stroke-linecap="round"/>
<path d="M35.5 30.5L34.5 34L30.5 33" stroke="#8B2720" stroke-width="1.5" stroke-linecap="round"/>
<path d="M34.5 27.5L32.5 30.5L29.5 29.5" stroke="#8B2720" stroke-width="1.5" stroke-linecap="round"/>
<path d="M12.2816 14.7155C12.4007 15.1123 12.8188 15.3374 13.2155 15.2184C13.6123 15.0993 13.8374 14.6812 13.7184 14.2845L12.2816 14.7155ZM9 7.5L8.364 7.8975C9.31934 9.42605 11.1181 10.8371 12.2816 14.7155L13 14.5L13.7184 14.2845C12.4819 10.1629 10.3473 8.24062 9.636 7.1025L9 7.5Z" fill="#8B2720"/>
<path d="M12.2816 26.7845C12.4007 26.3877 12.8188 26.1626 13.2155 26.2816C13.6123 26.4007 13.8374 26.8188 13.7184 27.2155L12.2816 26.7845ZM9 36L8.364 35.6025C9.17047 34.3122 11.105 30.7066 12.2816 26.7845L13 27L13.7184 27.2155C12.495 31.2934 10.4962 35.0212 9.636 36.3975L9 36Z" fill="#8B2720"/>
<path d="M31.2184 14.7155C31.0993 15.1123 30.6812 15.3374 30.2845 15.2184C29.8877 15.0993 29.6626 14.6812 29.7816 14.2845L31.2184 14.7155ZM35 7.5L35.636 7.8975C35.3868 8.29627 35.0305 8.69835 34.6705 9.09665C34.2965 9.51037 33.8905 9.94933 33.4721 10.4699C32.6448 11.499 31.7837 12.831 31.2184 14.7155L30.5 14.5L29.7816 14.2845C30.4163 12.169 31.3885 10.6677 32.3029 9.53011C32.7553 8.96734 33.1972 8.48963 33.5577 8.09085C33.932 7.67665 34.1966 7.3704 34.364 7.1025L35 7.5Z" fill="#8B2720"/>
<path d="M32.7184 26.7845C32.5993 26.3877 32.1812 26.1626 31.7845 26.2816C31.3877 26.4007 31.1626 26.8188 31.2816 27.2155L32.7184 26.7845ZM36 36L36.636 35.6025C35.8295 34.3122 33.895 30.7066 32.7184 26.7845L32 27L31.2816 27.2155C32.505 31.2934 34.5038 35.0212 35.364 36.3975L36 36Z" fill="#8B2720"/>
<path d="M13 16.5L18 14" stroke="#272727" stroke-width="2" stroke-linecap="round"/>
<path d="M31.5 16.5L26 14" stroke="#272727" stroke-width="2" stroke-linecap="round"/>
<path d="M17 36C18.746 26.8428 24.3333 21.4561 28 36H17Z" stroke="#272727" stroke-width="2" stroke-linecap="round" stroke-linejoin="round"/>
<circle cx="16" cy="22" r="3" fill="#272727"/>
<circle cx="17.2001" cy="21.9999" r="0.6" fill="white"/>
<circle cx="3" cy="3" r="3" transform="matrix(-1 0 0 1 31 19)" fill="#272727"/>
<circle cx="26.8002" cy="21.9999" r="0.6" fill="white"/>
<path d="M42.0687 22.7572L43.0646 22.6668L42.0687 22.7572ZM42.103 23.1358L41.1071 23.2261L42.103 23.1358ZM42.0325 23.8809L42.9938 24.1561L42.0325 23.8809ZM41.8226 24.614L40.8612 24.3388L41.8226 24.614ZM41.7265 25.3658L42.7262 25.3431L41.7265 25.3658ZM41.744 26.1363L40.7442 26.1591L41.744 26.1363ZM41.5913 26.8688L40.6845 26.4471L41.5913 26.8688ZM41.2684 27.5632L40.3616 27.1415L41.2684 27.5632ZM40.9921 28.2679L40.04 27.9622L40.9921 28.2679ZM40.7625 28.9829L41.7147 29.2886L40.7625 28.9829ZM40.5835 29.7261L41.5698 29.8905L40.5835 29.7261ZM40.4549 30.4976L39.4685 30.3332L40.4549 30.4976ZM40.0624 31.1352L39.4534 30.3421L40.0624 31.1352ZM39.7343 31.3872L40.3432 32.1804L39.7343 31.3872ZM39.4061 31.6391L38.7972 30.8459L39.4061 31.6391ZM39.047 32.3179L38.0496 32.2455L39.047 32.3179ZM39.016 32.7448L40.0133 32.8172L39.016 32.7448ZM38.985 33.1716L37.9876 33.0992L38.985 33.1716ZM38.5824 33.7938L39.0477 34.6789L38.5824 33.7938ZM37.8393 34.1844L37.374 33.2993L37.8393 34.1844ZM37.2119 34.6486L36.4874 33.9594L37.2119 34.6486ZM36.7003 35.1865L35.9757 34.4972L36.7003 35.1865ZM36.2348 35.7735L35.3998 35.2233L36.2348 35.7735ZM36.0252 36.0916L35.1902 35.5414L36.0252 36.0916ZM35.8156 36.4097L36.6506 36.9599L35.8156 36.4097ZM35.3711 37.036L36.1664 37.6422L35.3711 37.036ZM34.9013 37.6522L35.6966 38.2585L34.9013 37.6522ZM34.2719 38.059L34.5144 39.0291L34.2719 38.059ZM33.8775 38.1576L33.635 37.1874L33.8775 38.1576ZM33.483 38.2562L33.2405 37.286L33.483 38.2562ZM32.7604 38.5265L33.2241 39.4125L32.7604 38.5265ZM32.1041 38.87L31.6404 37.984L32.1041 38.87ZM31.5032 39.3244L32.2228 40.0188L31.5032 39.3244ZM30.9578 39.8896L30.2382 39.1952L30.9578 39.8896ZM30.294 40.2074L30.2045 39.2114L30.294 40.2074ZM29.903 40.2425L29.9925 41.2385L29.903 40.2425ZM29.512 40.2777L29.6015 41.2736L29.512 40.2777ZM28.7766 40.4453L28.4176 39.5119L28.7766 40.4453ZM28.0879 40.7102L28.447 41.6435L28.0879 40.7102ZM27.4249 41.1073L28.0637 41.8766L27.4249 41.1073ZM26.7875 41.6366L27.4263 42.4059L26.7875 41.6366ZM26.0849 41.9169L26.044 40.9177L26.0849 41.9169ZM25.3171 41.9483L25.358 42.9475L25.3171 41.9483ZM24.5465 41.8494L24.2623 42.8082L24.5465 41.8494ZM23.773 41.6201L24.0572 40.6614L23.773 41.6201ZM23.0187 41.6574L23.4007 42.5816L23.0187 41.6574ZM22.6513 41.8092L23.0332 42.7334L22.6513 41.8092ZM22.2838 41.9611L21.9018 41.0369L22.2838 41.9611ZM21.5317 42.195L21.7402 43.173L21.5317 42.195ZM21.1471 42.2769L20.9386 41.2989L21.1471 42.2769ZM20.7626 42.3589L20.9711 43.3369L20.7626 42.3589ZM20.0344 42.1502L20.6803 41.3868L20.0344 42.1502ZM19.3473 41.569L18.7015 42.3324L19.3473 41.569ZM18.6048 41.3803L18.8523 42.3492L18.6048 41.3803ZM18.2057 41.4822L17.9582 40.5134L18.2057 41.4822ZM17.8067 41.5842L18.0543 42.5531L17.8067 41.5842ZM17.0896 41.4357L17.7082 40.65L17.0896 41.4357ZM16.7715 41.1852L16.1529 41.9709L16.7715 41.1852ZM16.4534 40.9348L15.8348 41.7205L16.4534 40.9348ZM15.7622 40.6296L15.6171 41.619L15.7622 40.6296ZM14.2674 40.3864L14.4731 39.4078L14.2674 40.3864ZM13.8917 40.3074L14.0974 39.3288L13.8917 40.3074ZM13.516 40.2284L13.3103 41.2071L13.516 40.2284ZM12.8871 39.8332L13.6678 39.2083L12.8871 39.8332ZM12.3808 39.2008L11.6002 39.8258L12.3808 39.2008ZM11.7116 38.8421L11.8132 37.8472L11.7116 38.8421ZM10.8796 38.7571L10.778 39.752L10.8796 38.7571ZM10.1831 38.4564L9.50574 39.1921L10.1831 38.4564ZM9.62225 37.94L8.94487 38.6756L9.62225 37.94ZM9.17592 37.307L8.26151 37.7118L9.17592 37.307ZM9.01003 36.9323L9.92443 36.5275L9.01003 36.9323ZM8.84413 36.5575L9.75854 36.1528L8.84413 36.5575ZM8.43121 35.9147L7.69573 36.5922L8.43121 35.9147ZM7.93715 35.3784L7.20167 36.0559L7.93715 35.3784ZM7.31911 34.9396L7.73687 34.0311L7.31911 34.9396ZM6.9481 34.769L7.36586 33.8605L6.9481 34.769ZM6.57709 34.5984L6.15933 35.507L6.57709 34.5984ZM6.06837 34.0667L7.00276 33.7104L6.06837 34.0667ZM5.93066 33.7055L4.99627 34.0617L5.93066 33.7055ZM5.79296 33.3443L6.72734 32.988L5.79296 33.3443ZM5.35747 32.7283L4.70724 33.488L5.35747 32.7283ZM5.0597 32.4734L5.70993 31.7137L5.0597 32.4734ZM4.76192 32.2185L5.41215 31.4588L4.76192 32.2185ZM4.44356 31.5554L5.4423 31.505L4.44356 31.5554ZM4.04327 30.0697L4.65351 29.2774L4.04327 30.0697ZM3.36617 29.5481L2.75592 30.3403L3.36617 29.5481ZM3.12172 28.8616L4.09814 29.0775L3.12172 28.8616ZM3.30994 28.0103L2.33352 27.7944L3.30994 28.0103ZM2.4691 26.6732L3.16716 25.9571L2.4691 26.6732ZM2.06823 25.9976L3.04062 25.7642L2.06823 25.9976ZM1.8898 25.2541L0.917412 25.4875L1.8898 25.2541ZM1.85933 24.4956L0.870667 24.3454L1.85933 24.4956ZM1.91808 24.1088L2.90674 24.2589L1.91808 24.1088ZM1.97682 23.722L0.988159 23.5718L1.97682 23.722ZM2.09886 22.9603L3.0849 23.1268L2.09886 22.9603ZM2.16215 22.5855L3.14819 22.752L2.16215 22.5855ZM2.22544 22.2107L1.2394 22.0442L2.22544 22.2107ZM2.16516 21.455L3.11636 21.1464L2.16516 21.455ZM1.91803 20.6932L0.96683 21.0017L1.91803 20.6932ZM1.82783 19.9332L0.83168 19.8455L1.82783 19.9332ZM2.17933 18.4641L1.38223 17.8603L2.17933 18.4641ZM2.43075 18.1322L3.22785 18.7361L2.43075 18.1322ZM2.68216 17.8003L1.88505 17.1965L2.68216 17.8003ZM3.0189 17.1106L2.04617 16.8787L3.0189 17.1106ZM3.18841 14.8115L2.19089 14.8818L3.18841 14.8115ZM3.32908 14.0623L4.22437 14.5078L3.32908 14.0623ZM3.49857 13.7217L4.39385 14.1672L3.49857 13.7217ZM3.66805 13.3811L2.77276 12.9356L3.66805 13.3811ZM4.12424 12.7694L4.81133 13.496L4.12424 12.7694ZM4.69766 12.2271L4.01058 11.5006L4.69766 12.2271ZM5.25731 11.6952L5.94822 12.4181L5.25731 11.6952ZM5.80319 11.1735L5.11228 10.4505L5.80319 11.1735ZM6.11452 10.475L5.11834 10.3876L6.11452 10.475ZM6.58166 8.97078L6.10426 8.0921L6.58166 8.97078ZM6.93365 8.77954L7.41105 9.65823L6.93365 8.77954ZM7.28563 8.5883L6.80823 7.70962L7.28563 8.5883ZM7.80807 8.0336L6.90269 7.609L7.80807 8.0336ZM7.97852 7.67014L7.07314 7.24554L7.97852 7.67014ZM8.14898 7.30668L9.05436 7.73128L8.14898 7.30668ZM8.67705 6.78202L9.088 7.69367L8.67705 6.78202ZM9.03467 6.62081L8.62372 5.70915L9.03467 6.62081ZM10.098 6.14795L9.70137 5.23L10.098 6.14795ZM10.4462 5.99751L10.0495 5.07955L10.4462 5.99751ZM10.7943 5.84707L11.191 6.76502L10.7943 5.84707ZM11.4734 5.53654L11.9089 6.43673L11.4734 5.53654ZM12.1352 5.21636L11.6997 4.31616L12.1352 5.21636ZM13.3653 4.40076L12.7762 3.59269L13.3653 4.40076ZM13.9992 4.02463L13.5726 3.12019L13.9992 4.02463ZM14.6676 3.70938L15.0942 4.61382L14.6676 3.70938ZM15.5909 2.93792L16.3124 3.63038L15.5909 2.93792ZM15.8855 2.631L15.164 1.93854L15.8855 2.631ZM16.5754 2.33443L16.5493 3.33408L16.5754 2.33443ZM18.1211 2.21842L18.4996 3.14399L18.1211 2.21842ZM19.5945 1.96919L19.1576 2.86868L19.5945 1.96919ZM20.3845 2.35292L20.8214 1.45343L20.3845 2.35292ZM21.1479 2.33926L21.6351 3.21252L21.1479 2.33926ZM21.8846 1.92819L21.3974 1.05493L21.8846 1.92819ZM22.6168 1.9246L22.1314 2.79893L22.6168 1.9246ZM23.3444 2.3285L22.859 3.20282L23.3444 2.3285ZM24.071 2.57986L23.936 3.57071L24.071 2.57986ZM25.5809 2.54066L25.1745 1.62695L25.5809 2.54066ZM26.4238 2.16578L26.8302 3.07949L26.4238 2.16578ZM27.1928 2.15794L27.6519 1.26959L27.1928 2.15794ZM27.8877 2.51714L27.4285 3.40549L27.8877 2.51714ZM28.5453 2.94228L29.166 2.15824L28.5453 2.94228ZM29.1656 3.43334L28.5449 4.21738L29.1656 3.43334ZM29.8979 3.66284L29.86 2.66356L29.8979 3.66284ZM30.7424 3.63078L30.7044 2.6315L30.7424 3.63078ZM31.398 3.97432L30.5592 4.51879L31.398 3.97432ZM31.8648 4.69347L32.7036 4.149L31.8648 4.69347ZM32.4972 5.1281L32.3124 6.11087L32.4972 5.1281ZM33.2953 5.27821L33.1105 6.26098L33.2953 5.27821ZM33.9369 5.65837L33.1539 6.2805L33.9369 5.65837ZM34.4217 6.26858L35.2047 5.64645L34.4217 6.26858ZM35.0454 6.716L34.6956 7.65283L35.0454 6.716ZM35.4265 6.85831L35.7763 5.92147L35.4265 6.85831ZM35.8077 7.00062L36.1574 6.06378L35.8077 7.00062ZM36.3681 7.49937L35.4748 7.94878L36.3681 7.49937ZM36.7268 8.21226L37.6201 7.76286L36.7268 8.21226ZM37.6851 9.39159L38.4113 8.70411L37.6851 9.39159ZM38.2222 9.93516L38.9187 9.21764L38.2222 9.93516ZM38.7769 10.4737L39.4735 9.75619L38.7769 10.4737ZM39.1572 11.124L38.1917 11.3846L39.1572 11.124ZM39.26 11.505L38.2945 11.7655L39.26 11.505ZM39.3628 11.8859L40.3283 11.6254L39.3628 11.8859ZM39.5701 12.6312L38.6089 12.9069L39.5701 12.6312ZM39.6746 12.9956L40.6359 12.7199L39.6746 12.9956ZM39.7791 13.3599L40.7403 13.0843L39.7791 13.3599ZM40.0854 14.0427L40.93 13.5073L40.0854 14.0427ZM40.2873 14.3612L39.4427 14.8966L40.2873 14.3612ZM40.4892 14.6796L39.6446 15.215L40.4892 14.6796ZM40.8203 15.3497L39.8818 15.6948L40.8203 15.3497ZM41.0789 16.0529L40.1403 16.398L41.0789 16.0529ZM41.246 16.7795L42.241 16.6791L41.246 16.7795ZM41.3218 17.5296L40.3268 17.6301L41.3218 17.5296ZM41.5601 18.2517L40.6941 18.7518L41.5601 18.2517ZM41.9609 18.9458L42.8269 18.4457L41.9609 18.9458ZM42.0922 19.6786L41.1079 19.502L42.0922 19.6786ZM42.023 20.0644L41.0387 19.8878L42.023 20.0644ZM41.9538 20.4502L42.938 20.6267L41.9538 20.4502ZM41.809 21.1269L40.8411 20.8758L41.809 21.1269ZM41.658 21.709L42.626 21.9601L41.658 21.709ZM42.0687 22.7572L41.0728 22.8475L41.1071 23.2261L42.103 23.1358L43.0989 23.0454L43.0646 22.6668L42.0687 22.7572ZM42.103 23.1358L41.1071 23.2261C41.1188 23.3552 41.1071 23.4797 41.0711 23.6057L42.0325 23.8809L42.9938 24.1561C43.0977 23.7934 43.133 23.4211 43.0989 23.0454L42.103 23.1358ZM42.0325 23.8809L41.0711 23.6057L40.9661 23.9723L41.9275 24.2474L42.8889 24.5226L42.9938 24.1561L42.0325 23.8809ZM41.9275 24.2474L40.9661 23.9723L40.8612 24.3388L41.8226 24.614L42.784 24.8892L42.8889 24.5226L41.9275 24.2474ZM41.8226 24.614L40.8612 24.3388C40.7633 24.681 40.7186 25.0321 40.7267 25.3885L41.7265 25.3658L42.7262 25.3431C42.7226 25.1858 42.7421 25.0357 42.784 24.8892L41.8226 24.614ZM41.7265 25.3658L40.7267 25.3885L40.7355 25.7738L41.7352 25.7511L42.735 25.7283L42.7262 25.3431L41.7265 25.3658ZM41.7352 25.7511L40.7355 25.7738L40.7442 26.1591L41.744 26.1363L42.7437 26.1136L42.735 25.7283L41.7352 25.7511ZM41.744 26.1363L40.7442 26.1591C40.7466 26.2636 40.7271 26.3556 40.6845 26.4471L41.5913 26.8688L42.498 27.2905C42.6708 26.9191 42.753 26.5227 42.7437 26.1136L41.744 26.1363ZM41.5913 26.8688L40.6845 26.4471L40.5231 26.7943L41.4298 27.216L42.3366 27.6377L42.498 27.2905L41.5913 26.8688ZM41.4298 27.216L40.5231 26.7943L40.3616 27.1415L41.2684 27.5632L42.1751 27.9849L42.3366 27.6377L41.4298 27.216ZM41.2684 27.5632L40.3616 27.1415C40.2368 27.4099 40.1295 27.6835 40.04 27.9622L40.9921 28.2679L41.9442 28.5736C42.0078 28.3756 42.0846 28.1794 42.1751 27.9849L41.2684 27.5632ZM40.9921 28.2679L40.04 27.9622L39.9252 28.3197L40.8773 28.6254L41.8294 28.9311L41.9442 28.5736L40.9921 28.2679ZM40.8773 28.6254L39.9252 28.3197L39.8104 28.6772L40.7625 28.9829L41.7147 29.2886L41.8294 28.9311L40.8773 28.6254ZM40.7625 28.9829L39.8104 28.6772C39.7185 28.9636 39.6476 29.2587 39.5971 29.5617L40.5835 29.7261L41.5698 29.8905C41.6051 29.6793 41.6536 29.4789 41.7147 29.2886L40.7625 28.9829ZM40.5835 29.7261L39.5971 29.5617L39.5328 29.9474L40.5192 30.1119L41.5056 30.2763L41.5698 29.8905L40.5835 29.7261ZM40.5192 30.1119L39.5328 29.9474L39.4685 30.3332L40.4549 30.4976L41.4413 30.662L41.5056 30.2763L40.5192 30.1119ZM40.4549 30.4976L39.4685 30.3332C39.4677 30.3378 39.4673 30.3381 39.4683 30.3353C39.4694 30.3324 39.471 30.3289 39.473 30.3257C39.4749 30.3226 39.4756 30.3222 39.4736 30.3244C39.4715 30.3267 39.4654 30.3329 39.4534 30.3421L40.0624 31.1352L40.6714 31.9284C41.0783 31.6161 41.3542 31.1844 41.4413 30.662L40.4549 30.4976ZM40.0624 31.1352L39.4534 30.3421L39.1253 30.594L39.7343 31.3872L40.3432 32.1804L40.6714 31.9284L40.0624 31.1352ZM39.7343 31.3872L39.1253 30.594L38.7972 30.8459L39.4061 31.6391L40.0151 32.4323L40.3432 32.1804L39.7343 31.3872ZM39.4061 31.6391L38.7972 30.8459C38.3433 31.1944 38.0901 31.6874 38.0496 32.2455L39.047 32.3179L40.0443 32.3904C40.0451 32.3794 40.0463 32.3767 40.0453 32.3804C40.0442 32.3844 40.0415 32.3924 40.0362 32.4025C40.0308 32.4126 40.0247 32.4212 40.0193 32.4274C40.0141 32.4336 40.0117 32.4349 40.0151 32.4323L39.4061 31.6391ZM39.047 32.3179L38.0496 32.2455L38.0186 32.6723L39.016 32.7448L40.0133 32.8172L40.0443 32.3904L39.047 32.3179ZM39.016 32.7448L38.0186 32.6723L37.9876 33.0992L38.985 33.1716L39.9823 33.2441L40.0133 32.8172L39.016 32.7448ZM38.985 33.1716L37.9876 33.0992C37.9875 33.1 37.9917 33.0554 38.0292 32.9973C38.0673 32.9385 38.1094 32.9127 38.1171 32.9086L38.5824 33.7938L39.0477 34.6789C39.6085 34.3841 39.9372 33.865 39.9823 33.2441L38.985 33.1716ZM38.5824 33.7938L38.1171 32.9086L37.7455 33.1039L38.2108 33.9891L38.6762 34.8742L39.0477 34.6789L38.5824 33.7938ZM38.2108 33.9891L37.7455 33.1039L37.374 33.2993L37.8393 34.1844L38.3046 35.0696L38.6762 34.8742L38.2108 33.9891ZM37.8393 34.1844L37.374 33.2993C37.0423 33.4736 36.7422 33.6915 36.4874 33.9594L37.2119 34.6486L37.9364 35.3379C38.0227 35.2472 38.1409 35.1556 38.3046 35.0696L37.8393 34.1844ZM37.2119 34.6486L36.4874 33.9594L36.2316 34.2283L36.9561 34.9176L37.6806 35.6068L37.9364 35.3379L37.2119 34.6486ZM36.9561 34.9176L36.2316 34.2283L35.9757 34.4972L36.7003 35.1865L37.4248 35.8757L37.6806 35.6068L36.9561 34.9176ZM36.7003 35.1865L35.9757 34.4972C35.7632 34.7206 35.5713 34.963 35.3998 35.2233L36.2348 35.7735L37.0698 36.3237C37.1778 36.1599 37.2962 36.0109 37.4248 35.8757L36.7003 35.1865ZM36.2348 35.7735L35.3998 35.2233L35.1902 35.5414L36.0252 36.0916L36.8602 36.6418L37.0698 36.3237L36.2348 35.7735ZM36.0252 36.0916L35.1902 35.5414L34.9806 35.8595L35.8156 36.4097L36.6506 36.9599L36.8602 36.6418L36.0252 36.0916ZM35.8156 36.4097L34.9806 35.8595C34.8536 36.0521 34.7188 36.2422 34.5758 36.4297L35.3711 37.036L36.1664 37.6422C36.3366 37.4189 36.4981 37.1914 36.6506 36.9599L35.8156 36.4097ZM35.3711 37.036L34.5758 36.4297L34.3409 36.7379L35.1362 37.3441L35.9315 37.9503L36.1664 37.6422L35.3711 37.036ZM35.1362 37.3441L34.3409 36.7379L34.106 37.046L34.9013 37.6522L35.6966 38.2585L35.9315 37.9503L35.1362 37.3441ZM34.9013 37.6522L34.106 37.046C34.0942 37.0615 34.0839 37.0752 34.0295 37.0888L34.2719 38.059L34.5144 39.0291C34.9859 38.9113 35.3952 38.6538 35.6966 38.2585L34.9013 37.6522ZM34.2719 38.059L34.0295 37.0888L33.635 37.1874L33.8775 38.1576L34.1199 39.1277L34.5144 39.0291L34.2719 38.059ZM33.8775 38.1576L33.635 37.1874L33.2405 37.286L33.483 38.2562L33.7255 39.2263L34.1199 39.1277L33.8775 38.1576ZM33.483 38.2562L33.2405 37.286C32.9081 37.3691 32.592 37.4859 32.2966 37.6405L32.7604 38.5265L33.2241 39.4125C33.3662 39.3381 33.5319 39.2747 33.7255 39.2263L33.483 38.2562ZM32.7604 38.5265L32.2966 37.6405L31.9685 37.8123L32.4322 38.6983L32.896 39.5842L33.2241 39.4125L32.7604 38.5265ZM32.4322 38.6983L31.9685 37.8123L31.6404 37.984L32.1041 38.87L32.5678 39.756L32.896 39.5842L32.4322 38.6983ZM32.1041 38.87L31.6404 37.984C31.321 38.1512 31.0354 38.3691 30.7836 38.63L31.5032 39.3244L32.2228 40.0188C32.3347 39.9028 32.4497 39.8178 32.5678 39.756L32.1041 38.87ZM31.5032 39.3244L30.7836 38.63L30.5109 38.9126L31.2305 39.607L31.9501 40.3014L32.2228 40.0188L31.5032 39.3244ZM31.2305 39.607L30.5109 38.9126L30.2382 39.1952L30.9578 39.8896L31.6774 40.584L31.9501 40.3014L31.2305 39.607ZM30.9578 39.8896L30.2382 39.1952C30.2307 39.2029 30.226 39.2066 30.2243 39.2079C30.2227 39.209 30.2226 39.2089 30.2237 39.2084C30.2247 39.2079 30.2248 39.208 30.2229 39.2085C30.2209 39.2091 30.2151 39.2104 30.2045 39.2114L30.294 40.2074L30.3835 41.2034C30.8838 41.1584 31.3287 40.9453 31.6774 40.584L30.9578 39.8896ZM30.294 40.2074L30.2045 39.2114L29.8135 39.2465L29.903 40.2425L29.9925 41.2385L30.3835 41.2034L30.294 40.2074ZM29.903 40.2425L29.8135 39.2465L29.4225 39.2817L29.512 40.2777L29.6015 41.2736L29.9925 41.2385L29.903 40.2425ZM29.512 40.2777L29.4225 39.2817C29.0754 39.3129 28.7391 39.3883 28.4176 39.5119L28.7766 40.4453L29.1357 41.3786C29.2734 41.3256 29.4272 41.2893 29.6015 41.2736L29.512 40.2777ZM28.7766 40.4453L28.4176 39.5119L28.0733 39.6444L28.4323 40.5777L28.7913 41.5111L29.1357 41.3786L28.7766 40.4453ZM28.4323 40.5777L28.0733 39.6444L27.7289 39.7768L28.0879 40.7102L28.447 41.6435L28.7913 41.5111L28.4323 40.5777ZM28.0879 40.7102L27.7289 39.7768C27.3861 39.9087 27.0721 40.1004 26.7861 40.3379L27.4249 41.1073L28.0637 41.8766C28.2026 41.7613 28.3306 41.6883 28.447 41.6435L28.0879 40.7102ZM27.4249 41.1073L26.7861 40.3379L26.4673 40.6026L27.1062 41.3719L27.745 42.1413L28.0637 41.8766L27.4249 41.1073ZM27.1062 41.3719L26.4673 40.6026L26.1486 40.8672L26.7875 41.6366L27.4263 42.4059L27.745 42.1413L27.1062 41.3719ZM26.7875 41.6366L26.1486 40.8672C26.0908 40.9152 26.0632 40.917 26.044 40.9177L26.0849 41.9169L26.1258 42.9161C26.6184 42.8959 27.0591 42.7108 27.4263 42.4059L26.7875 41.6366ZM26.0849 41.9169L26.044 40.9177L25.6601 40.9335L25.701 41.9326L25.7419 42.9318L26.1258 42.9161L26.0849 41.9169ZM25.701 41.9326L25.6601 40.9335L25.2762 40.9492L25.3171 41.9483L25.358 42.9475L25.7419 42.9318L25.701 41.9326ZM25.3171 41.9483L25.2762 40.9492C25.1355 40.9549 24.9884 40.9374 24.8307 40.8907L24.5465 41.8494L24.2623 42.8082C24.6202 42.9143 24.9869 42.9627 25.358 42.9475L25.3171 41.9483ZM24.5465 41.8494L24.8307 40.8907L24.4439 40.776L24.1597 41.7348L23.8755 42.6936L24.2623 42.8082L24.5465 41.8494ZM24.1597 41.7348L24.4439 40.776L24.0572 40.6614L23.773 41.6201L23.4888 42.5789L23.8755 42.6936L24.1597 41.7348ZM23.773 41.6201L24.0572 40.6614C23.5833 40.5209 23.0967 40.5432 22.6368 40.7332L23.0187 41.6574L23.4007 42.5816C23.4308 42.5691 23.447 42.5665 23.4888 42.5789L23.773 41.6201ZM23.0187 41.6574L22.6368 40.7332L22.2693 40.885L22.6513 41.8092L23.0332 42.7334L23.4007 42.5816L23.0187 41.6574ZM22.6513 41.8092L22.2693 40.885L21.9018 41.0369L22.2838 41.9611L22.6657 42.8853L23.0332 42.7334L22.6513 41.8092ZM22.2838 41.9611L21.9018 41.0369C21.7123 41.1152 21.5196 41.1751 21.3232 41.2169L21.5317 42.195L21.7402 43.173C22.0566 43.1055 22.3653 43.0094 22.6657 42.8853L22.2838 41.9611ZM21.5317 42.195L21.3232 41.2169L20.9386 41.2989L21.1471 42.2769L21.3556 43.255L21.7402 43.173L21.5317 42.195ZM21.1471 42.2769L20.9386 41.2989L20.5541 41.3809L20.7626 42.3589L20.9711 43.3369L21.3556 43.255L21.1471 42.2769ZM20.7626 42.3589L20.5541 41.3809C20.5644 41.3787 20.5812 41.3764 20.6027 41.3771C20.6244 41.3777 20.6454 41.3812 20.6637 41.3864C20.7016 41.3973 20.7068 41.4092 20.6803 41.3868L20.0344 42.1502L19.3886 42.9137C19.8152 43.2746 20.3657 43.466 20.9711 43.3369L20.7626 42.3589ZM20.0344 42.1502L20.6803 41.3868L20.3368 41.0962L19.6909 41.8596L19.045 42.6231L19.3886 42.9137L20.0344 42.1502ZM19.6909 41.8596L20.3368 41.0962L19.9932 40.8055L19.3473 41.569L18.7015 42.3324L19.045 42.6231L19.6909 41.8596ZM19.3473 41.569L19.9932 40.8055C19.5439 40.4254 18.9692 40.255 18.3572 40.4114L18.6048 41.3803L18.8523 42.3492C18.8465 42.3506 18.832 42.3536 18.8107 42.3538C18.789 42.354 18.7659 42.3513 18.7436 42.3457C18.6967 42.3338 18.6827 42.3165 18.7015 42.3324L19.3473 41.569ZM18.6048 41.3803L18.3572 40.4114L17.9582 40.5134L18.2057 41.4822L18.4533 42.4511L18.8523 42.3492L18.6048 41.3803ZM18.2057 41.4822L17.9582 40.5134L17.5592 40.6153L17.8067 41.5842L18.0543 42.5531L18.4533 42.4511L18.2057 41.4822ZM17.8067 41.5842L17.5592 40.6153C17.555 40.6164 17.5836 40.6091 17.6307 40.6188C17.6524 40.6233 17.6714 40.6301 17.6864 40.6373C17.6935 40.6408 17.699 40.6439 17.7028 40.6463C17.7065 40.6486 17.7083 40.65 17.7082 40.65L17.0896 41.4357L16.471 42.2214C16.9325 42.5847 17.4929 42.6965 18.0543 42.5531L17.8067 41.5842ZM17.0896 41.4357L17.7082 40.65L17.3901 40.3995L16.7715 41.1852L16.1529 41.9709L16.471 42.2214L17.0896 41.4357ZM16.7715 41.1852L17.3901 40.3995L17.072 40.1491L16.4534 40.9348L15.8348 41.7205L16.1529 41.9709L16.7715 41.1852ZM16.4534 40.9348L17.072 40.1491C16.7331 39.8822 16.3418 39.7039 15.9074 39.6402L15.7622 40.6296L15.6171 41.619C15.6802 41.6282 15.7496 41.6534 15.8348 41.7205L16.4534 40.9348ZM15.7622 40.6296L15.9074 39.6402L15.5343 39.5854L15.3892 40.5748L15.244 41.5642L15.6171 41.619L15.7622 40.6296ZM15.3892 40.5748L15.5343 39.5854L15.1613 39.5307L15.0161 40.5201L14.8709 41.5095L15.244 41.5642L15.3892 40.5748ZM15.0161 40.5201L15.1613 39.5307C14.9332 39.4972 14.7038 39.4563 14.4731 39.4078L14.2674 40.3864L14.0616 41.365C14.3318 41.4218 14.6016 41.47 14.8709 41.5095L15.0161 40.5201ZM14.2674 40.3864L14.4731 39.4078L14.0974 39.3288L13.8917 40.3074L13.686 41.286L14.0616 41.365L14.2674 40.3864ZM13.8917 40.3074L14.0974 39.3288L13.7217 39.2498L13.516 40.2284L13.3103 41.2071L13.686 41.286L13.8917 40.3074ZM13.516 40.2284L13.7217 39.2498C13.714 39.2482 13.7097 39.2467 13.7078 39.2459C13.706 39.2451 13.7046 39.2444 13.703 39.2435C13.7011 39.2423 13.6886 39.2343 13.6678 39.2083L12.8871 39.8332L12.1065 40.4582C12.4115 40.8392 12.8198 41.104 13.3103 41.2071L13.516 40.2284ZM12.8871 39.8332L13.6678 39.2083L13.4146 38.892L12.634 39.517L11.8533 40.142L12.1065 40.4582L12.8871 39.8332ZM12.634 39.517L13.4146 38.892L13.1614 38.5758L12.3808 39.2008L11.6002 39.8258L11.8533 40.142L12.634 39.517ZM12.3808 39.2008L13.1614 38.5758C12.8191 38.1482 12.3476 37.9018 11.8132 37.8472L11.7116 38.8421L11.61 39.8369C11.622 39.8381 11.6267 39.8396 11.626 39.8394C11.6251 39.8391 11.6207 39.8377 11.6145 39.8344C11.6082 39.831 11.6029 39.8273 11.5994 39.8243C11.596 39.8214 11.5965 39.8212 11.6002 39.8258L12.3808 39.2008ZM11.7116 38.8421L11.8132 37.8472L11.3971 37.8048L11.2956 38.7996L11.194 39.7944L11.61 39.8369L11.7116 38.8421ZM11.2956 38.7996L11.3971 37.8048L10.9811 37.7623L10.8796 38.7571L10.778 39.752L11.194 39.7944L11.2956 38.7996ZM10.8796 38.7571L10.9811 37.7623C10.8967 37.7537 10.873 37.7323 10.8605 37.7208L10.1831 38.4564L9.50574 39.1921C9.86714 39.5249 10.3078 39.7039 10.778 39.752L10.8796 38.7571ZM10.1831 38.4564L10.8605 37.7208L10.58 37.4626L9.90268 38.1982L9.22531 38.9339L9.50574 39.1921L10.1831 38.4564ZM9.90268 38.1982L10.58 37.4626L10.2996 37.2044L9.62225 37.94L8.94487 38.6756L9.22531 38.9339L9.90268 38.1982ZM9.62225 37.94L10.2996 37.2044C10.2209 37.1319 10.1496 37.0362 10.0903 36.9022L9.17592 37.307L8.26151 37.7118C8.42339 38.0775 8.64967 38.4038 8.94487 38.6756L9.62225 37.94ZM9.17592 37.307L10.0903 36.9022L9.92443 36.5275L9.01003 36.9323L8.09562 37.3371L8.26151 37.7118L9.17592 37.307ZM9.01003 36.9323L9.92443 36.5275L9.75854 36.1528L8.84413 36.5575L7.92972 36.9623L8.09562 37.3371L9.01003 36.9323ZM8.84413 36.5575L9.75854 36.1528C9.60907 35.8151 9.41413 35.5057 9.16669 35.2371L8.43121 35.9147L7.69573 36.5922C7.77767 36.6811 7.85801 36.8003 7.92972 36.9623L8.84413 36.5575ZM8.43121 35.9147L9.16669 35.2371L8.91966 34.969L8.18418 35.6465L7.4487 36.3241L7.69573 36.5922L8.43121 35.9147ZM8.18418 35.6465L8.91966 34.969L8.67263 34.7008L7.93715 35.3784L7.20167 36.0559L7.4487 36.3241L8.18418 35.6465ZM7.93715 35.3784L8.67263 34.7008C8.4082 34.4138 8.08994 34.1934 7.73687 34.0311L7.31911 34.9396L6.90135 35.8482C7.04296 35.9133 7.13673 35.9854 7.20167 36.0559L7.93715 35.3784ZM7.31911 34.9396L7.73687 34.0311L7.36586 33.8605L6.9481 34.769L6.53034 35.6776L6.90135 35.8482L7.31911 34.9396ZM6.9481 34.769L7.36586 33.8605L6.99485 33.6899L6.57709 34.5984L6.15933 35.507L6.53034 35.6776L6.9481 34.769ZM6.57709 34.5984L6.99485 33.6899C6.98328 33.6846 6.97853 33.6812 6.9785 33.6812C6.97845 33.6812 6.97935 33.6818 6.98095 33.6832C6.98257 33.6845 6.98465 33.6865 6.987 33.6889C6.992 33.6941 6.9964 33.6999 6.99972 33.7052C7.00296 33.7104 7.00364 33.7127 7.00276 33.7104L6.06837 34.0667L5.13398 34.4229C5.32473 34.9232 5.68899 35.2907 6.15933 35.507L6.57709 34.5984ZM6.06837 34.0667L7.00276 33.7104L6.86505 33.3492L5.93066 33.7055L4.99627 34.0617L5.13398 34.4229L6.06837 34.0667ZM5.93066 33.7055L6.86505 33.3492L6.72734 32.988L5.79296 33.3443L4.85857 33.7005L4.99627 34.0617L5.93066 33.7055ZM5.79296 33.3443L6.72734 32.988C6.57515 32.5889 6.33131 32.2455 6.0077 31.9685L5.35747 32.7283L4.70724 33.488C4.78067 33.5508 4.82715 33.6181 4.85857 33.7005L5.79296 33.3443ZM5.35747 32.7283L6.0077 31.9685L5.70993 31.7137L5.0597 32.4734L4.40946 33.2331L4.70724 33.488L5.35747 32.7283ZM5.0597 32.4734L5.70993 31.7137L5.41215 31.4588L4.76192 32.2185L4.11169 32.9783L4.40946 33.2331L5.0597 32.4734ZM4.76192 32.2185L5.41215 31.4588C5.41071 31.4576 5.41386 31.4601 5.41916 31.4669C5.42458 31.4738 5.43019 31.4826 5.43495 31.4925C5.43967 31.5024 5.44199 31.5101 5.44291 31.5139C5.44378 31.5174 5.4428 31.515 5.4423 31.505L4.44356 31.5554L3.44483 31.6057C3.47171 32.1389 3.69462 32.6213 4.11169 32.9783L4.76192 32.2185ZM4.44356 31.5554L5.4423 31.505L5.42172 31.0967L4.42299 31.1471L3.42425 31.1974L3.44483 31.6057L4.44356 31.5554ZM4.42299 31.1471L5.42172 31.0967L5.40114 30.6884L4.40241 30.7388L3.40367 30.7891L3.42425 31.1974L4.42299 31.1471ZM4.40241 30.7388L5.40114 30.6884C5.37194 30.1092 5.099 29.6206 4.65351 29.2774L4.04327 30.0697L3.43303 30.8619C3.44135 30.8683 3.44201 30.87 3.43835 30.8658C3.43447 30.8613 3.42794 30.8528 3.42123 30.8403C3.41448 30.8277 3.40965 30.815 3.40667 30.804C3.40376 30.7932 3.4036 30.7875 3.40367 30.7891L4.40241 30.7388ZM4.04327 30.0697L4.65351 29.2774L4.31496 29.0167L3.70472 29.8089L3.09448 30.6011L3.43303 30.8619L4.04327 30.0697ZM3.70472 29.8089L4.31496 29.0167L3.97641 28.7559L3.36617 29.5481L2.75592 30.3403L3.09448 30.6011L3.70472 29.8089ZM3.36617 29.5481L3.97641 28.7559C3.98893 28.7655 4.04365 28.8146 4.07783 28.9106C4.11152 29.0052 4.09927 29.0724 4.09814 29.0775L3.12172 28.8616L2.1453 28.6458C2.08144 28.9346 2.07856 29.2581 2.19373 29.5815C2.30939 29.9063 2.5177 30.1568 2.75592 30.3403L3.36617 29.5481ZM3.12172 28.8616L4.09814 29.0775L4.19225 28.6519L3.21583 28.436L2.23941 28.2201L2.1453 28.6458L3.12172 28.8616ZM3.21583 28.436L4.19225 28.6519L4.28636 28.2262L3.30994 28.0103L2.33352 27.7944L2.23941 28.2201L3.21583 28.436ZM3.30994 28.0103L4.28636 28.2262C4.42366 27.6052 4.24649 27.0094 3.79047 26.5648L3.0924 27.2808L2.39433 27.9969C2.3954 27.9979 2.38738 27.9903 2.37633 27.9727C2.36492 27.9545 2.35305 27.9302 2.34431 27.9009C2.3253 27.8371 2.33358 27.7942 2.33352 27.7944L3.30994 28.0103ZM3.0924 27.2808L3.79047 26.5648L3.47882 26.261L2.78075 26.977L2.08268 27.693L2.39433 27.9969L3.0924 27.2808ZM2.78075 26.977L3.47882 26.261L3.16716 25.9571L2.4691 26.6732L1.77103 27.3892L2.08268 27.693L2.78075 26.977ZM2.4691 26.6732L3.16716 25.9571C3.07536 25.8676 3.05018 25.8041 3.04062 25.7642L2.06823 25.9976L1.09584 26.231C1.20524 26.6868 1.4473 27.0736 1.77103 27.3892L2.4691 26.6732ZM2.06823 25.9976L3.04062 25.7642L2.9514 25.3925L1.97902 25.6259L1.00663 25.8592L1.09584 26.231L2.06823 25.9976ZM1.97902 25.6259L2.9514 25.3925L2.86219 25.0207L1.8898 25.2541L0.917412 25.4875L1.00663 25.8592L1.97902 25.6259ZM1.8898 25.2541L2.86219 25.0207C2.83356 24.9015 2.82776 24.779 2.84799 24.6457L1.85933 24.4956L0.870667 24.3454C0.812574 24.7279 0.82708 25.1111 0.917412 25.4875L1.8898 25.2541ZM1.85933 24.4956L2.84799 24.6457L2.90674 24.2589L1.91808 24.1088L0.929413 23.9586L0.870667 24.3454L1.85933 24.4956ZM1.91808 24.1088L2.90674 24.2589L2.96548 23.8721L1.97682 23.722L0.988159 23.5718L0.929413 23.9586L1.91808 24.1088ZM1.97682 23.722L2.96548 23.8721C3.00384 23.6195 3.04365 23.3711 3.0849 23.1268L2.09886 22.9603L1.11282 22.7938C1.06968 23.0493 1.02813 23.3086 0.988159 23.5718L1.97682 23.722ZM2.09886 22.9603L3.0849 23.1268L3.14819 22.752L2.16215 22.5855L1.17611 22.419L1.11282 22.7938L2.09886 22.9603ZM2.16215 22.5855L3.14819 22.752L3.21148 22.3772L2.22544 22.2107L1.2394 22.0442L1.17611 22.419L2.16215 22.5855ZM2.22544 22.2107L3.21148 22.3772C3.28194 21.9599 3.24571 21.5451 3.11636 21.1464L2.16516 21.455L1.21396 21.7636C1.24937 21.8727 1.25333 21.9617 1.2394 22.0442L2.22544 22.2107ZM2.16516 21.455L3.11636 21.1464L2.9928 20.7655L2.0416 21.0741L1.0904 21.3827L1.21396 21.7636L2.16516 21.455ZM2.0416 21.0741L2.9928 20.7655L2.86923 20.3846L1.91803 20.6932L0.96683 21.0017L1.0904 21.3827L2.0416 21.0741ZM1.91803 20.6932L2.86923 20.3846C2.82609 20.2516 2.81412 20.1329 2.82398 20.0209L1.82783 19.9332L0.83168 19.8455C0.797055 20.2389 0.845226 20.6269 0.96683 21.0017L1.91803 20.6932ZM1.82783 19.9332L2.82398 20.0209L2.85734 19.6418L1.86119 19.5541L0.865043 19.4665L0.83168 19.8455L1.82783 19.9332ZM1.86119 19.5541L2.85734 19.6418L2.8907 19.2627L1.89455 19.1751L0.898405 19.0874L0.865043 19.4665L1.86119 19.5541ZM1.89455 19.1751L2.8907 19.2627C2.89492 19.2148 2.91131 19.1539 2.97644 19.0679L2.17933 18.4641L1.38223 17.8603C1.11213 18.2168 0.938674 18.6298 0.898405 19.0874L1.89455 19.1751ZM2.17933 18.4641L2.97644 19.0679L3.22785 18.7361L2.43075 18.1322L1.63364 17.5284L1.38223 17.8603L2.17933 18.4641ZM2.43075 18.1322L3.22785 18.7361L3.47927 18.4042L2.68216 17.8003L1.88505 17.1965L1.63364 17.5284L2.43075 18.1322ZM2.68216 17.8003L3.47927 18.4042C3.71954 18.087 3.89863 17.7326 3.99163 17.3425L3.0189 17.1106L2.04617 16.8787C2.0254 16.9658 1.98 17.0712 1.88505 17.1965L2.68216 17.8003ZM3.0189 17.1106L3.99163 17.3425L4.07695 16.9847L3.10422 16.7528L2.13149 16.5208L2.04617 16.8787L3.0189 17.1106ZM3.10422 16.7528L4.07695 16.9847L4.16227 16.6268L3.18954 16.3949L2.21681 16.163L2.13149 16.5208L3.10422 16.7528ZM3.18954 16.3949L4.16227 16.6268C4.24525 16.2789 4.26914 15.9206 4.24357 15.5582L3.24605 15.6285L2.24853 15.6989C2.26138 15.8812 2.2476 16.0338 2.21681 16.163L3.18954 16.3949ZM3.24605 15.6285L4.24357 15.5582L4.21475 15.1496L3.21723 15.22L2.21971 15.2904L2.24853 15.6989L3.24605 15.6285ZM3.21723 15.22L4.21475 15.1496L4.18594 14.7411L3.18841 14.8115L2.19089 14.8818L2.21971 15.2904L3.21723 15.22ZM3.18841 14.8115L4.18594 14.7411C4.17829 14.6327 4.19694 14.563 4.22437 14.5078L3.32908 14.0623L2.43379 13.6169C2.23525 14.0159 2.16012 14.4456 2.19089 14.8818L3.18841 14.8115ZM3.32908 14.0623L4.22437 14.5078L4.39385 14.1672L3.49857 13.7217L2.60328 13.2762L2.43379 13.6169L3.32908 14.0623ZM3.49857 13.7217L4.39385 14.1672L4.56334 13.8266L3.66805 13.3811L2.77276 12.9356L2.60328 13.2762L3.49857 13.7217ZM3.66805 13.3811L4.56334 13.8266C4.62204 13.7086 4.70235 13.599 4.81133 13.496L4.12424 12.7694L3.43716 12.0428C3.16386 12.3013 2.94004 12.5995 2.77276 12.9356L3.66805 13.3811ZM4.12424 12.7694L4.81133 13.496L5.09803 13.2248L4.41095 12.4983L3.72387 11.7717L3.43716 12.0428L4.12424 12.7694ZM4.41095 12.4983L5.09803 13.2248L5.38474 12.9537L4.69766 12.2271L4.01058 11.5006L3.72387 11.7717L4.41095 12.4983ZM4.69766 12.2271L5.38474 12.9537C5.5771 12.7718 5.76493 12.5933 5.94822 12.4181L5.25731 11.6952L4.5664 10.9722C4.38576 11.1449 4.20049 11.321 4.01058 11.5006L4.69766 12.2271ZM5.25731 11.6952L5.94822 12.4181L6.22116 12.1573L5.53025 11.4343L4.83934 10.7114L4.5664 10.9722L5.25731 11.6952ZM5.53025 11.4343L6.22116 12.1573L6.4941 11.8964L5.80319 11.1735L5.11228 10.4505L4.83934 10.7114L5.53025 11.4343ZM5.80319 11.1735L6.4941 11.8964C6.87984 11.5278 7.06757 11.054 7.11069 10.5623L6.11452 10.475L5.11834 10.3876C5.11381 10.4392 5.1047 10.46 5.10411 10.4613C5.10372 10.4622 5.10448 10.4604 5.10674 10.4572C5.10901 10.4539 5.11119 10.4516 5.11228 10.4505L5.80319 11.1735ZM6.11452 10.475L7.11069 10.5623L7.14908 10.1247L6.1529 10.0373L5.15673 9.94995L5.11834 10.3876L6.11452 10.475ZM6.1529 10.0373L7.14908 10.1247L7.18747 9.68705L6.19129 9.59967L5.19512 9.5123L5.15673 9.94995L6.1529 10.0373ZM6.19129 9.59967L7.18747 9.68705C7.18911 9.66827 7.1894 9.69994 7.1577 9.75101C7.1238 9.80563 7.08125 9.83741 7.05907 9.84946L6.58166 8.97078L6.10426 8.0921C5.54276 8.39717 5.24666 8.92466 5.19512 9.5123L6.19129 9.59967ZM6.58166 8.97078L7.05907 9.84946L7.41105 9.65823L6.93365 8.77954L6.45624 7.90086L6.10426 8.0921L6.58166 8.97078ZM6.93365 8.77954L7.41105 9.65823L7.76304 9.46699L7.28563 8.5883L6.80823 7.70962L6.45624 7.90086L6.93365 8.77954ZM7.28563 8.5883L7.76304 9.46699C8.18557 9.23742 8.50945 8.89319 8.71345 8.4582L7.80807 8.0336L6.90269 7.609C6.87942 7.65862 6.85501 7.6842 6.80823 7.70962L7.28563 8.5883ZM7.80807 8.0336L8.71345 8.4582L8.8839 8.09474L7.97852 7.67014L7.07314 7.24554L6.90269 7.609L7.80807 8.0336ZM7.97852 7.67014L8.8839 8.09474L9.05436 7.73128L8.14898 7.30668L7.24359 6.88208L7.07314 7.24554L7.97852 7.67014ZM8.14898 7.30668L9.05436 7.73128C9.0602 7.71883 9.06481 7.71153 9.06732 7.70791C9.06977 7.70439 9.07103 7.70318 9.07103 7.70318C9.07113 7.70308 9.07123 7.70299 9.07141 7.70284C9.07159 7.70269 9.07207 7.70231 9.07298 7.70168C9.07465 7.70055 9.07921 7.69763 9.088 7.69367L8.67705 6.78202L8.2661 5.87036C7.8045 6.07843 7.45601 6.42914 7.24359 6.88208L8.14898 7.30668ZM8.67705 6.78202L9.088 7.69367L9.44562 7.53247L9.03467 6.62081L8.62372 5.70915L8.2661 5.87036L8.67705 6.78202ZM9.03467 6.62081L9.44562 7.53247L9.80324 7.37126L9.39229 6.4596L8.98134 5.54795L8.62372 5.70915L9.03467 6.62081ZM9.39229 6.4596L9.80324 7.37126C10.0371 7.26585 10.2676 7.16407 10.4947 7.06591L10.098 6.14795L9.70137 5.23C9.46434 5.33242 9.22433 5.43841 8.98134 5.54795L9.39229 6.4596ZM10.098 6.14795L10.4947 7.06591L10.8429 6.91547L10.4462 5.99751L10.0495 5.07955L9.70137 5.23L10.098 6.14795ZM10.4462 5.99751L10.8429 6.91547L11.191 6.76502L10.7943 5.84707L10.3976 4.92911L10.0495 5.07955L10.4462 5.99751ZM10.7943 5.84707L11.191 6.76502C11.4357 6.65926 11.6751 6.54984 11.9089 6.43673L11.4734 5.53654L11.0379 4.63634C10.8305 4.73668 10.6171 4.83428 10.3976 4.92911L10.7943 5.84707ZM11.4734 5.53654L11.9089 6.43673L12.2398 6.27664L11.8043 5.37645L11.3688 4.47625L11.0379 4.63634L11.4734 5.53654ZM11.8043 5.37645L12.2398 6.27664L12.5707 6.11655L12.1352 5.21636L11.6997 4.31616L11.3688 4.47625L11.8043 5.37645ZM12.1352 5.21636L12.5707 6.11655C12.8457 5.98354 13.1072 5.82642 13.355 5.64583L12.7659 4.83776L12.1768 4.0297C12.0249 4.14045 11.866 4.23573 11.6997 4.31616L12.1352 5.21636ZM12.7659 4.83776L13.355 5.64583L13.6547 5.42732L13.0656 4.61926L12.4765 3.8112L12.1768 4.0297L12.7659 4.83776ZM13.0656 4.61926L13.6547 5.42732L13.9544 5.20882L13.3653 4.40076L12.7762 3.59269L12.4765 3.8112L13.0656 4.61926ZM13.3653 4.40076L13.9544 5.20882C14.1034 5.10018 14.2603 5.00712 14.4258 4.92907L13.9992 4.02463L13.5726 3.12019C13.2925 3.2523 13.0268 3.40999 12.7762 3.59269L13.3653 4.40076ZM13.9992 4.02463L14.4258 4.92907L14.76 4.77144L14.3334 3.867L13.9068 2.96256L13.5726 3.12019L13.9992 4.02463ZM14.3334 3.867L14.76 4.77144L15.0942 4.61382L14.6676 3.70938L14.241 2.80494L13.9068 2.96256L14.3334 3.867ZM14.6676 3.70938L15.0942 4.61382C15.4427 4.44941 15.7495 4.21682 16.0178 3.93729L15.2963 3.24484L14.5749 2.55238C14.4504 2.68208 14.338 2.75918 14.241 2.80494L14.6676 3.70938ZM15.2963 3.24484L16.0178 3.93729L16.3124 3.63038L15.5909 2.93792L14.8695 2.24546L14.5749 2.55238L15.2963 3.24484ZM15.5909 2.93792L16.3124 3.63038L16.6069 3.32346L15.8855 2.631L15.164 1.93854L14.8695 2.24546L15.5909 2.93792ZM15.8855 2.631L16.6069 3.32346C16.6163 3.31367 16.6206 3.3109 16.6189 3.31208C16.6171 3.31342 16.6107 3.31758 16.6002 3.32212C16.5895 3.32671 16.5781 3.33014 16.5672 3.33216C16.5566 3.33415 16.55 3.3341 16.5493 3.33408L16.5754 2.33443L16.6016 1.33477C16.0337 1.31991 15.5388 1.54813 15.164 1.93854L15.8855 2.631ZM16.5754 2.33443L16.5493 3.33408L16.9447 3.34442L16.9708 2.34477L16.997 1.34511L16.6016 1.33477L16.5754 2.33443ZM16.9708 2.34477L16.9447 3.34442L17.3401 3.35477L17.3662 2.35511L17.3923 1.35545L16.997 1.34511L16.9708 2.34477ZM17.3662 2.35511L17.3401 3.35477C17.7396 3.36522 18.1293 3.29547 18.4996 3.14399L18.1211 2.21842L17.7425 1.29284C17.6335 1.3374 17.52 1.35879 17.3923 1.35545L17.3662 2.35511ZM18.1211 2.21842L18.4996 3.14399L18.8591 2.99696L18.4806 2.07138L18.102 1.14581L17.7425 1.29284L18.1211 2.21842ZM18.4806 2.07138L18.8591 2.99696L19.2186 2.84993L18.84 1.92435L18.4615 0.998777L18.102 1.14581L18.4806 2.07138ZM18.84 1.92435L19.2186 2.84993C19.2131 2.85219 19.2028 2.85564 19.1888 2.85801C19.1747 2.8604 19.1609 2.86099 19.1491 2.86028C19.1242 2.85881 19.1252 2.85294 19.1576 2.86868L19.5945 1.96919L20.0315 1.06969C19.5494 0.835552 19.0002 0.778439 18.4615 0.998777L18.84 1.92435ZM19.5945 1.96919L19.1576 2.86868L19.5526 3.06055L19.9895 2.16106L20.4265 1.26156L20.0315 1.06969L19.5945 1.96919ZM19.9895 2.16106L19.5526 3.06055L19.9476 3.25242L20.3845 2.35292L20.8214 1.45343L20.4265 1.26156L19.9895 2.16106ZM20.3845 2.35292L19.9476 3.25242C20.4905 3.51612 21.0906 3.51632 21.6351 3.21252L21.1479 2.33926L20.6606 1.46599C20.6661 1.46293 20.701 1.44657 20.755 1.4456C20.8073 1.44467 20.8329 1.45898 20.8214 1.45343L20.3845 2.35292ZM21.1479 2.33926L21.6351 3.21252L22.0035 3.00699L21.5162 2.13372L21.029 1.26046L20.6606 1.46599L21.1479 2.33926ZM21.5162 2.13372L22.0035 3.00699L22.3719 2.80145L21.8846 1.92819L21.3974 1.05493L21.029 1.26046L21.5162 2.13372ZM21.8846 1.92819L22.3719 2.80145C22.3722 2.80127 22.3615 2.80727 22.3402 2.81328C22.3182 2.81947 22.2897 2.82435 22.2567 2.82451C22.185 2.82487 22.1393 2.8033 22.1314 2.79893L22.6168 1.9246L23.1021 1.05028C22.552 0.744891 21.94 0.752144 21.3974 1.05493L21.8846 1.92819ZM22.6168 1.9246L22.1314 2.79893L22.4952 3.00087L22.9806 2.12655L23.4659 1.25223L23.1021 1.05028L22.6168 1.9246ZM22.9806 2.12655L22.4952 3.00087L22.859 3.20282L23.3444 2.3285L23.8297 1.45417L23.4659 1.25223L22.9806 2.12655ZM23.3444 2.3285L22.859 3.20282C23.1954 3.38956 23.5555 3.51888 23.936 3.57071L24.071 2.57986L24.2059 1.58901C24.1027 1.57494 23.9784 1.53669 23.8297 1.45417L23.3444 2.3285ZM24.071 2.57986L23.936 3.57071L24.2988 3.62012L24.4338 2.62927L24.5687 1.63842L24.2059 1.58901L24.071 2.57986ZM24.4338 2.62927L24.2988 3.62012L24.6616 3.66954L24.7966 2.67869L24.9315 1.68784L24.5687 1.63842L24.4338 2.62927ZM24.7966 2.67869L24.6616 3.66954C25.1299 3.73332 25.5802 3.63539 25.9872 3.45438L25.5809 2.54066L25.1745 1.62695C25.0195 1.69586 24.947 1.68995 24.9315 1.68784L24.7966 2.67869ZM25.5809 2.54066L25.9872 3.45438L26.4087 3.26693L26.0023 2.35322L25.596 1.4395L25.1745 1.62695L25.5809 2.54066ZM26.0023 2.35322L26.4087 3.26693L26.8302 3.07949L26.4238 2.16578L26.0175 1.25206L25.596 1.4395L26.0023 2.35322ZM26.4238 2.16578L26.8302 3.07949C26.8703 3.06164 26.8698 3.06971 26.837 3.07004C26.8208 3.07021 26.8015 3.06837 26.781 3.06346C26.7606 3.05856 26.7445 3.0519 26.7336 3.04628L27.1928 2.15794L27.6519 1.26959C27.1008 0.984736 26.5203 1.02844 26.0175 1.25206L26.4238 2.16578ZM27.1928 2.15794L26.7336 3.04628L27.0811 3.22589L27.5402 2.33754L27.9994 1.4492L27.6519 1.26959L27.1928 2.15794ZM27.5402 2.33754L27.0811 3.22589L27.4285 3.40549L27.8877 2.51714L28.3469 1.6288L27.9994 1.4492L27.5402 2.33754ZM27.8877 2.51714L27.4285 3.40549C27.6025 3.49539 27.7676 3.60206 27.9246 3.72632L28.5453 2.94228L29.166 2.15824C28.9095 1.95513 28.6362 1.77837 28.3469 1.6288L27.8877 2.51714ZM28.5453 2.94228L27.9246 3.72632L28.2347 3.97185L28.8554 3.18781L29.4762 2.40377L29.166 2.15824L28.5453 2.94228ZM28.8554 3.18781L28.2347 3.97185L28.5449 4.21738L29.1656 3.43334L29.7863 2.6493L29.4762 2.40377L28.8554 3.18781ZM29.1656 3.43334L28.5449 4.21738C28.9519 4.53958 29.4338 4.68119 29.9359 4.66212L29.8979 3.66284L29.86 2.66356C29.8218 2.66501 29.8054 2.66008 29.8028 2.65924C29.8008 2.65862 29.7994 2.65802 29.7978 2.65718C29.7962 2.65631 29.7924 2.65413 29.7863 2.6493L29.1656 3.43334ZM29.8979 3.66284L29.9359 4.66212L30.3581 4.64609L30.3201 3.64681L30.2822 2.64753L29.86 2.66356L29.8979 3.66284ZM30.3201 3.64681L30.3581 4.64609L30.7803 4.63006L30.7424 3.63078L30.7044 2.6315L30.2822 2.64753L30.3201 3.64681ZM30.7424 3.63078L30.7803 4.63006C30.7717 4.63038 30.7194 4.62906 30.6532 4.59441C30.6229 4.57851 30.599 4.56031 30.5819 4.54417C30.5654 4.52853 30.5587 4.51806 30.5592 4.51879L31.398 3.97432L32.2368 3.42985C31.8928 2.90004 31.3441 2.60721 30.7044 2.6315L30.7424 3.63078ZM31.398 3.97432L30.5592 4.51879L30.7926 4.87836L31.6314 4.3339L32.4702 3.78943L32.2368 3.42985L31.398 3.97432ZM31.6314 4.3339L30.7926 4.87836L31.026 5.23794L31.8648 4.69347L32.7036 4.149L32.4702 3.78943L31.6314 4.3339ZM31.8648 4.69347L31.026 5.23794C31.3212 5.6927 31.7613 6.00722 32.3124 6.11087L32.4972 5.1281L32.6821 4.14533C32.6785 4.14466 32.6805 4.14472 32.6864 4.14713C32.6925 4.1496 32.6994 4.15325 32.706 4.15776C32.7091 4.15988 32.7115 4.16182 32.7133 4.16334C32.7151 4.16486 32.7159 4.16574 32.7158 4.16568C32.7158 4.16563 32.7113 4.16094 32.7036 4.149L31.8648 4.69347ZM32.4972 5.1281L32.3124 6.11087L32.7115 6.18592L32.8963 5.20316L33.0811 4.22039L32.6821 4.14533L32.4972 5.1281ZM32.8963 5.20316L32.7115 6.18592L33.1105 6.26098L33.2953 5.27821L33.4802 4.29544L33.0811 4.22039L32.8963 5.20316ZM33.2953 5.27821L33.1105 6.26098C33.1255 6.26379 33.1347 6.26673 33.1394 6.26848C33.1419 6.26938 33.1434 6.27007 33.1443 6.27047C33.1447 6.27068 33.145 6.27083 33.1452 6.27092C33.1453 6.27101 33.1454 6.27106 33.1454 6.27106C33.1454 6.27107 33.1454 6.27105 33.1453 6.27101C33.1453 6.27096 33.1452 6.27092 33.1452 6.27088C33.145 6.27079 33.1452 6.27086 33.1455 6.27119C33.1461 6.27173 33.149 6.27434 33.1539 6.2805L33.9369 5.65837L34.7198 5.03624C34.4019 4.63621 33.9716 4.38787 33.4802 4.29544L33.2953 5.27821ZM33.9369 5.65837L33.1539 6.2805L33.3964 6.58561L34.1793 5.96348L34.9622 5.34134L34.7198 5.03624L33.9369 5.65837ZM34.1793 5.96348L33.3964 6.58561L33.6388 6.89071L34.4217 6.26858L35.2047 5.64645L34.9622 5.34134L34.1793 5.96348ZM34.4217 6.26858L33.6388 6.89071C33.9187 7.24284 34.279 7.4973 34.6956 7.65283L35.0454 6.716L35.3951 5.77916C35.3035 5.74495 35.2481 5.70112 35.2047 5.64645L34.4217 6.26858ZM35.0454 6.716L34.6956 7.65283L35.0767 7.79514L35.4265 6.85831L35.7763 5.92147L35.3951 5.77916L35.0454 6.716ZM35.4265 6.85831L35.0767 7.79514L35.4579 7.93745L35.8077 7.00062L36.1574 6.06378L35.7763 5.92147L35.4265 6.85831ZM35.8077 7.00062L35.4579 7.93745C35.4692 7.94168 35.4747 7.94479 35.4761 7.94559C35.4773 7.94631 35.476 7.94567 35.4736 7.9435C35.4711 7.94132 35.4696 7.93943 35.4691 7.93889C35.4688 7.93844 35.471 7.94118 35.4748 7.94878L36.3681 7.49937L37.2615 7.04997C37.0262 6.5823 36.6425 6.2449 36.1574 6.06378L35.8077 7.00062ZM36.3681 7.49937L35.4748 7.94878L35.6541 8.30522L36.5475 7.85582L37.4408 7.40641L37.2615 7.04997L36.3681 7.49937ZM36.5475 7.85582L35.6541 8.30522L35.8334 8.66167L36.7268 8.21226L37.6201 7.76286L37.4408 7.40641L36.5475 7.85582ZM36.7268 8.21226L35.8334 8.66167C35.9943 8.98146 36.1957 9.27294 36.4395 9.53048L37.1658 8.843L37.892 8.15552C37.7895 8.04734 37.6983 7.91833 37.6201 7.76286L36.7268 8.21226ZM37.1658 8.843L36.4395 9.53048L36.6992 9.80478L37.4254 9.1173L38.1516 8.42982L37.892 8.15552L37.1658 8.843ZM37.4254 9.1173L36.6992 9.80478L36.9589 10.0791L37.6851 9.39159L38.4113 8.70411L38.1516 8.42982L37.4254 9.1173ZM37.6851 9.39159L36.9589 10.0791C37.1419 10.2724 37.3308 10.4636 37.5256 10.6527L38.2222 9.93516L38.9187 9.21764C38.7436 9.0477 38.5745 8.87652 38.4113 8.70411L37.6851 9.39159ZM38.2222 9.93516L37.5256 10.6527L37.803 10.922L38.4995 10.2044L39.1961 9.48691L38.9187 9.21764L38.2222 9.93516ZM38.4995 10.2044L37.803 10.922L38.0804 11.1912L38.7769 10.4737L39.4735 9.75619L39.1961 9.48691L38.4995 10.2044ZM38.7769 10.4737L38.0804 11.1912C38.1334 11.2427 38.169 11.3005 38.1917 11.3846L39.1572 11.124L40.1226 10.8634C40.0082 10.4395 39.7903 10.0638 39.4735 9.75619L38.7769 10.4737ZM39.1572 11.124L38.1917 11.3846L38.2945 11.7655L39.26 11.505L40.2254 11.2444L40.1226 10.8634L39.1572 11.124ZM39.26 11.505L38.2945 11.7655L38.3974 12.1465L39.3628 11.8859L40.3283 11.6254L40.2254 11.2444L39.26 11.505ZM39.3628 11.8859L38.3974 12.1465C38.4672 12.4053 38.5377 12.6588 38.6089 12.9069L39.5701 12.6312L40.5314 12.3556C40.4632 12.1179 40.3955 11.8745 40.3283 11.6254L39.3628 11.8859ZM39.5701 12.6312L38.6089 12.9069L38.7133 13.2712L39.6746 12.9956L40.6359 12.7199L40.5314 12.3556L39.5701 12.6312ZM39.6746 12.9956L38.7133 13.2712L38.8178 13.6355L39.7791 13.3599L40.7403 13.0843L40.6359 12.7199L39.6746 12.9956ZM39.7791 13.3599L38.8178 13.6355C38.9136 13.9696 39.0549 14.2848 39.2408 14.5781L40.0854 14.0427L40.93 13.5073C40.8468 13.376 40.7838 13.2359 40.7403 13.0843L39.7791 13.3599ZM40.0854 14.0427L39.2408 14.5781L39.4427 14.8966L40.2873 14.3612L41.1319 13.8258L40.93 13.5073L40.0854 14.0427ZM40.2873 14.3612L39.4427 14.8966L39.6446 15.215L40.4892 14.6796L41.3338 14.1442L41.1319 13.8258L40.2873 14.3612ZM40.4892 14.6796L39.6446 15.215C39.7414 15.3678 39.8202 15.5274 39.8818 15.6948L40.8203 15.3497L41.7589 15.0046C41.6481 14.7032 41.5061 14.4161 41.3338 14.1442L40.4892 14.6796ZM40.8203 15.3497L39.8818 15.6948L40.0111 16.0464L40.9496 15.7013L41.8882 15.3562L41.7589 15.0046L40.8203 15.3497ZM40.9496 15.7013L40.0111 16.0464L40.1403 16.398L41.0789 16.0529L42.0175 15.7078L41.8882 15.3562L40.9496 15.7013ZM41.0789 16.0529L40.1403 16.398C40.1973 16.553 40.2342 16.713 40.2511 16.88L41.246 16.7795L42.241 16.6791C42.2074 16.346 42.1328 16.0215 42.0175 15.7078L41.0789 16.0529ZM41.246 16.7795L40.2511 16.88L40.289 17.255L41.2839 17.1546L42.2789 17.0541L42.241 16.6791L41.246 16.7795ZM41.2839 17.1546L40.289 17.255L40.3268 17.6301L41.3218 17.5296L42.3167 17.4291L42.2789 17.0541L41.2839 17.1546ZM41.3218 17.5296L40.3268 17.6301C40.3672 18.0297 40.4943 18.4057 40.6941 18.7518L41.5601 18.2517L42.426 17.7516C42.3587 17.6349 42.3269 17.5295 42.3167 17.4291L41.3218 17.5296ZM41.5601 18.2517L40.6941 18.7518L40.8945 19.0989L41.7605 18.5987L42.6265 18.0986L42.426 17.7516L41.5601 18.2517ZM41.7605 18.5987L40.8945 19.0989L41.095 19.4459L41.9609 18.9458L42.8269 18.4457L42.6265 18.0986L41.7605 18.5987ZM41.9609 18.9458L41.095 19.4459C41.102 19.4581 41.1056 19.4665 41.1073 19.4711C41.109 19.4757 41.1095 19.4781 41.1096 19.4788C41.1097 19.4795 41.1099 19.4808 41.1099 19.4834C41.1099 19.4861 41.1097 19.4921 41.1079 19.502L42.0922 19.6786L43.0764 19.8552C43.1653 19.3599 43.0757 18.8765 42.8269 18.4457L41.9609 18.9458ZM42.0922 19.6786L41.1079 19.502L41.0387 19.8878L42.023 20.0644L43.0072 20.241L43.0764 19.8552L42.0922 19.6786ZM42.023 20.0644L41.0387 19.8878L40.9695 20.2736L41.9538 20.4502L42.938 20.6267L43.0072 20.241L42.023 20.0644ZM41.9538 20.4502L40.9695 20.2736C40.9266 20.5127 40.8835 20.7125 40.8411 20.8758L41.809 21.1269L42.777 21.3781C42.8353 21.1534 42.8887 20.9019 42.938 20.6267L41.9538 20.4502ZM41.809 21.1269L40.8411 20.8758L40.7656 21.1668L41.7335 21.418L42.7015 21.6691L42.777 21.3781L41.809 21.1269ZM41.7335 21.418L40.7656 21.1668L40.6901 21.4578L41.658 21.709L42.626 21.9601L42.7015 21.6691L41.7335 21.418ZM41.658 21.709L40.6901 21.4578C40.6598 21.5745 40.6091 21.7916 40.6324 22.0259C40.6442 22.1452 40.6856 22.3868 40.8713 22.6142C41.0939 22.8868 41.407 23 41.6869 23V22V21C41.9319 21 42.2178 21.1011 42.4206 21.3494C42.5865 21.5526 42.6156 21.7578 42.6226 21.8285C42.6362 21.9659 42.6059 22.0375 42.626 21.9601L41.658 21.709ZM41.6869 22V23H41.7913V22V21H41.6869V22ZM41.7913 22V23H41.8956V22V21H41.7913V22ZM41.8956 22V23C41.5702 23 41.3345 22.8391 41.2067 22.6998C41.0968 22.5801 41.0542 22.4678 41.0435 22.4387C41.021 22.3771 41.0292 22.3673 41.0384 22.4689L42.0343 22.3786L43.0303 22.2882C43.0166 22.1375 42.9903 21.9384 42.9215 21.7506C42.8877 21.6584 42.819 21.4988 42.6802 21.3475C42.5234 21.1766 42.2559 21 41.8956 21V22ZM42.0343 22.3786L41.0384 22.4689L41.0728 22.8475L42.0687 22.7572L43.0646 22.6668L43.0303 22.2882L42.0343 22.3786Z" fill="black"/>
</svg>
