<svg width="29" height="24" viewBox="0 0 29 24" fill="none" xmlns="http://www.w3.org/2000/svg">
<path d="M0.850141 8.42377C8.6235 -2.97924 21.4694 -0.622175 27.2344 8.43822C27.7185 9.19897 27.5421 10.1871 26.8819 10.8013L20.7407 16.5147L15.3891 21.8766C14.6181 22.6491 13.3703 22.6608 12.5849 21.9031L7 16.5147L1.13855 10.8596C0.471279 10.2158 0.327879 9.18989 0.850141 8.42377Z" fill="#272727"/>
<path d="M7 16.5147L12.5849 11.1264C13.3703 10.3687 14.6181 10.3804 15.3891 11.1529L20.7407 16.5147M7 16.5147L1.13855 10.8596C0.471279 10.2158 0.327879 9.18989 0.850141 8.42377C8.6235 -2.97924 21.4694 -0.622175 27.2344 8.43822C27.7185 9.19897 27.5421 10.1871 26.8819 10.8013L20.7407 16.5147M7 16.5147L12.5849 21.9031C13.3703 22.6608 14.6181 22.6491 15.3891 21.8766L20.7407 16.5147" stroke="#272727" stroke-linejoin="round"/>
<path d="M6.5 16.7684L12.5858 10.6826C13.3668 9.90155 14.6332 9.90155 15.4142 10.6826L21.5 16.7684" stroke="white" stroke-width="1.5" stroke-linecap="round" stroke-linejoin="round"/>
</svg>
