<svg width="29" height="24" viewBox="0 0 29 24" fill="none" xmlns="http://www.w3.org/2000/svg">
<path d="M0.850141 8.92377C8.6235 -2.47924 21.4694 -0.122175 27.2344 8.93822C27.7185 9.69897 27.5421 10.6871 26.8819 11.3013L20.7407 17.0147L15.3891 22.3766C14.6181 23.1491 13.3703 23.1608 12.5849 22.4031L7 17.0147L1.13855 11.3596C0.471279 10.7158 0.327879 9.68989 0.850141 8.92377Z" fill="#D3D3D3"/>
<path d="M7 17.0147L12.5849 11.6264C13.3703 10.8687 14.6181 10.8804 15.3891 11.6529L20.7407 17.0147M7 17.0147L1.13855 11.3596C0.471279 10.7158 0.327879 9.68989 0.850141 8.92377C8.6235 -2.47924 21.4694 -0.122175 27.2344 8.93822C27.7185 9.69897 27.5421 10.6871 26.8819 11.3013L20.7407 17.0147M7 17.0147L12.5849 22.4031C13.3703 23.1608 14.6181 23.1491 15.3891 22.3766L20.7407 17.0147" stroke="#D3D3D3" stroke-linejoin="round"/>
<path d="M6.5 17.2684L12.5858 11.1826C13.3668 10.4015 14.6332 10.4015 15.4142 11.1826L21.5 17.2684" stroke="white" stroke-width="1.5" stroke-linecap="round" stroke-linejoin="round"/>
</svg>
