<svg width="12" height="8" viewBox="0 0 12 8" fill="none" xmlns="http://www.w3.org/2000/svg">
<rect width="12" height="8" fill="#E5E5E5"/>
<g id="&#235;&#148;&#148;&#236;&#158;&#144;&#236;&#157;&#184;(&#236;&#158;&#145;&#236;&#151;&#133; &#236;&#153;&#132;&#235;&#163;&#140;)">
<path d="M-267 -9345C-267 -9346.1 -266.105 -9347 -265 -9347H4204C4205.1 -9347 4206 -9346.1 4206 -9345V4472C4206 4473.1 4205.1 4474 4204 4474H-265C-266.104 4474 -267 4473.1 -267 4472V-9345Z" fill="#565656"/>
<path d="M-265 -9347V-9346H4204V-9347V-9348H-265V-9347ZM4206 -9345H4205V4472H4206H4207V-9345H4206ZM4204 4474V4473H-265V4474V4475H4204V4474ZM-267 4472H-266V-9345H-267H-268V4472H-267ZM-265 4474V4473C-265.552 4473 -266 4472.55 -266 4472H-267H-268C-268 4473.66 -266.657 4475 -265 4475V4474ZM4206 4472H4205C4205 4472.55 4204.55 4473 4204 4473V4474V4475C4205.66 4475 4207 4473.66 4207 4472H4206ZM4204 -9347V-9346C4204.55 -9346 4205 -9345.55 4205 -9345H4206H4207C4207 -9346.66 4205.66 -9348 4204 -9348V-9347ZM-265 -9347V-9348C-266.657 -9348 -268 -9346.66 -268 -9345H-267H-266C-266 -9345.55 -265.552 -9346 -265 -9346V-9347Z" fill="black" fill-opacity="0.1"/>
<g id="field_hashtag_search_result" clip-path="url(#clip0_0_1)">
<rect width="390" height="844" transform="translate(-115 -190)" fill="#FDFEFC"/>
<g id="Frame 1000006202">
<g id="light">
<rect x="-35.9502" y="-10.75" width="58.5" height="29.5" rx="14.75" stroke="#D3D3D3" stroke-width="0.5" stroke-linejoin="round"/>
<path id="back_button" d="M10.7998 1.5L5.66768 6.5L0.799805 1.5" stroke="#D3D3D3" stroke-width="1.2" stroke-linecap="round" stroke-linejoin="round"/>
</g>
</g>
</g>
</g>
<defs>
<clipPath id="clip0_0_1">
<rect width="390" height="844" fill="white" transform="translate(-115 -190)"/>
</clipPath>
</defs>
</svg>
