<svg width="115" height="128" viewBox="0 0 115 128" fill="none" xmlns="http://www.w3.org/2000/svg">
<g filter="url(#filter0_d_774_9255)">
<path d="M4.25 11C4.25 6.58172 7.83172 3 12.25 3H102.75C107.168 3 110.75 6.58172 110.75 11V115C110.75 119.418 107.168 123 102.75 123H12.25C7.83172 123 4.25 119.418 4.25 115V11Z" fill="white" shape-rendering="crispEdges"/>
<path d="M12.25 3.5H102.75C106.892 3.5 110.25 6.85786 110.25 11V115C110.25 119.142 106.892 122.5 102.75 122.5H12.25C8.10786 122.5 4.75 119.142 4.75 115V11C4.75 6.85786 8.10786 3.5 12.25 3.5Z" stroke="url(#paint0_linear_774_9255)" shape-rendering="crispEdges"/>
<path d="M56.5173 35.3574V47.7168H55.068V41.4141H53.6735V47.0879H52.279V35.5898H53.6735V40.1973H55.068V35.3574H56.5173ZM50.8845 36.8203V38.0508H47.7946V43.5469C49.1413 43.5332 50.2487 43.4648 51.4997 43.2324L51.6091 44.4766C50.1188 44.7773 48.82 44.8184 47.0973 44.832H46.2634V36.8203H50.8845ZM68.1898 35.3711V44.3945H66.6722V39.8691H64.4847V38.6387H66.6722V35.3711H68.1898ZM68.5042 46.2402V47.4707H60.0823V43.6016H61.5999V46.2402H68.5042ZM62.3792 37.832C62.3792 39.3223 63.3773 40.8535 65.2913 41.4824L64.5257 42.6992C63.1448 42.2275 62.1673 41.291 61.6273 40.1152C61.0804 41.4209 60.0482 42.4531 58.5921 42.959L57.8128 41.7285C59.7816 41.0859 60.8343 39.459 60.8343 37.8184V37.4902H58.264V36.2598H64.9359V37.4902H62.3792V37.832ZM43.669 56.3711V60.2539H45.3916V61.5117H43.669V65.5996H42.1514V56.3711H43.669ZM41.2627 57.7383V58.9551H33.9346V57.7383H36.8467V56.3574H38.3643V57.7383H41.2627ZM37.5987 59.4609C39.376 59.4609 40.6065 60.4043 40.6202 61.8262C40.6065 63.2344 39.376 64.1641 37.5987 64.1641C35.8077 64.1641 34.5635 63.2344 34.5635 61.8262C34.5635 60.4043 35.8077 59.4609 37.5987 59.4609ZM37.5987 60.6367C36.6553 60.6367 36.0401 61.0742 36.0401 61.8262C36.0401 62.5645 36.6553 63.002 37.5987 62.9883C38.542 63.002 39.1709 62.5645 39.1709 61.8262C39.1709 61.0742 38.542 60.6367 37.5987 60.6367ZM44.1612 67.2402V68.4707H35.753V64.875H37.2705V67.2402H44.1612ZM55.6559 56.3574V61.457H57.3923V62.7285H55.6559V68.7168H54.1247V56.3574H55.6559ZM45.7302 65.2852C46.6667 65.2852 47.7536 65.2852 48.8884 65.2578V64.0957C47.5417 63.8701 46.6598 63.0225 46.6735 61.8672C46.6598 60.4727 47.8903 59.543 49.6677 59.543C51.4177 59.543 52.6618 60.4727 52.6755 61.8672C52.6618 63.0293 51.7663 63.877 50.4196 64.0957V65.2031C51.4587 65.1484 52.4977 65.0664 53.4684 64.9297L53.5641 66.0371C50.9118 66.5156 48.0544 66.543 45.9489 66.543L45.7302 65.2852ZM53.3317 57.7793V58.9824H45.9626V57.7793H48.8884V56.4121H50.4196V57.7793H53.3317ZM49.6677 60.7051C48.7243 60.7188 48.1091 61.1426 48.1091 61.8672C48.1091 62.5781 48.7243 63.002 49.6677 62.9883C50.5973 63.002 51.2126 62.5781 51.2126 61.8672C51.2126 61.1426 50.5973 60.7188 49.6677 60.7051ZM61.6956 58.6543C61.6956 59.9941 62.4749 61.334 64.1019 61.9492L63.2952 63.1113C62.1946 62.6875 61.429 61.9014 60.9847 60.9375C60.5335 62.0449 59.7269 62.9883 58.5511 63.4805L57.7308 62.3184C59.4261 61.5664 60.2191 60.0215 60.2327 58.6543V57.123H61.6956V58.6543ZM68.4085 56.3711V63.9453H66.9593V60.7324H65.7288V63.5625H64.307V56.6035H65.7288V59.4883H66.9593V56.3711H68.4085ZM64.2386 64.1504C66.8226 64.1504 68.4632 64.998 68.4769 66.4199C68.4632 67.8418 66.8226 68.7031 64.2386 68.7031C61.6273 68.7031 60.0003 67.8418 60.0003 66.4199C60.0003 64.998 61.6273 64.1504 64.2386 64.1504ZM64.2386 65.2988C62.5296 65.2988 61.5179 65.6953 61.5179 66.4199C61.5179 67.1582 62.5296 67.541 64.2386 67.541C65.9339 67.541 66.9456 67.1582 66.9456 66.4199C66.9456 65.6953 65.9339 65.2988 64.2386 65.2988ZM80.1494 56.3574V63.6309H78.6318V61.9219H76.1435V62.8789H70.333V57.2871H76.1435V58.2441H78.6318V56.3574H80.1494ZM71.8505 58.4902V61.6621H74.6396V58.4902H71.8505ZM75.9658 63.959C78.5908 63.959 80.1904 64.834 80.1904 66.3379C80.1904 67.8418 78.5908 68.7031 75.9658 68.7031C73.3545 68.7031 71.7548 67.8418 71.7685 66.3379C71.7548 64.834 73.3545 63.959 75.9658 63.959ZM75.9658 65.1211C74.2431 65.1211 73.2724 65.5449 73.2724 66.3379C73.2724 67.1035 74.2431 67.5273 75.9658 67.5273C77.6884 67.5273 78.6728 67.1035 78.6728 66.3379C78.6728 65.5449 77.6884 65.1211 75.9658 65.1211ZM76.1435 60.6914H78.6318V59.4473H76.1435V60.6914ZM42.8675 77.5488V78.5195H48.1996V77.5488H49.7035V81.6641H46.2582V82.6074H51.1664V83.8105H39.9007V82.6074H44.7543V81.6641H41.3636V77.5488H42.8675ZM42.8675 80.5293H48.1996V79.627H42.8675V80.5293ZM49.7582 84.5898V87.584H42.7308V88.4453H50.1V89.6074H41.2406V86.5176H48.2679V85.7109H41.2269V84.5898H49.7582ZM58.915 78.5605V79.8047H57.7256V85.3691C58.2861 85.3213 58.8398 85.2734 59.3662 85.2051L59.4346 86.2988C56.8779 86.7363 54.0205 86.791 51.874 86.791L51.6963 85.5469L53.1865 85.5332V79.8047H52.0107V78.5605H58.915ZM61.54 77.3574V82.1426H63.4404V83.3867H61.54V89.7168H60.0225V77.3574H61.54ZM54.6631 85.5059C55.1895 85.499 55.7227 85.4785 56.2627 85.4512V79.8047H54.6631V85.5059ZM73.8414 78.5059V79.9824C73.8414 81.7734 73.8414 83.4824 73.2946 86.0938L71.777 85.957C72.0299 84.877 72.1735 83.9268 72.2555 83.0449L64.9684 83.4277L64.7633 82.1973L72.3239 81.9102C72.3512 81.2471 72.3512 80.6113 72.3512 79.9824V79.7363H65.1325V78.5059H73.8414ZM75.0856 86.9004V88.1445H63.82V86.9004H75.0856Z" fill="black"/>
</g>
<defs>
<filter id="filter0_d_774_9255" x="0.25" y="0" width="114.5" height="128" filterUnits="userSpaceOnUse" color-interpolation-filters="sRGB">
<feFlood flood-opacity="0" result="BackgroundImageFix"/>
<feColorMatrix in="SourceAlpha" type="matrix" values="0 0 0 0 0 0 0 0 0 0 0 0 0 0 0 0 0 0 127 0" result="hardAlpha"/>
<feOffset dy="1"/>
<feGaussianBlur stdDeviation="2"/>
<feComposite in2="hardAlpha" operator="out"/>
<feColorMatrix type="matrix" values="0 0 0 0 0 0 0 0 0 0 0 0 0 0 0 0 0 0 0.25 0"/>
<feBlend mode="normal" in2="BackgroundImageFix" result="effect1_dropShadow_774_9255"/>
<feBlend mode="normal" in="SourceGraphic" in2="effect1_dropShadow_774_9255" result="shape"/>
</filter>
<linearGradient id="paint0_linear_774_9255" x1="19" y1="20.5" x2="95" y2="113.5" gradientUnits="userSpaceOnUse">
<stop stop-color="#FC4E00"/>
</linearGradient>
</defs>
</svg>
