<svg width="31" height="31" viewBox="0 0 31 31" fill="none" xmlns="http://www.w3.org/2000/svg">
<path d="M13.6875 3.66625C14.1947 3.23878 14.8367 3.00433 15.5 3.00433C16.1633 3.00433 16.8053 3.23878 17.3125 3.66625L25.75 10.785C26.385 11.3188 26.75 12.105 26.75 12.935V25.1875C26.75 25.7677 26.5195 26.3241 26.1093 26.7343C25.6991 27.1445 25.1427 27.375 24.5625 27.375H20.8125C20.2323 27.375 19.6759 27.1445 19.2657 26.7343C18.8555 26.3241 18.625 25.7677 18.625 25.1875V18.9375C18.625 18.6889 18.5262 18.4504 18.3504 18.2746C18.1746 18.0988 17.9361 18 17.6875 18H13.3125C13.0639 18 12.8254 18.0988 12.6496 18.2746C12.4738 18.4504 12.375 18.6889 12.375 18.9375V25.1875C12.375 25.7677 12.1445 26.3241 11.7343 26.7343C11.3241 27.1445 10.7677 27.375 10.1875 27.375H6.4375C6.15023 27.375 5.86578 27.3184 5.60038 27.2085C5.33498 27.0986 5.09383 26.9374 4.8907 26.7343C4.68758 26.5312 4.52645 26.29 4.41651 26.0246C4.30658 25.7592 4.25 25.4748 4.25 25.1875V12.9338C4.25 12.105 4.615 11.3188 5.25 10.7838L13.6875 3.66625Z" fill="#272727"/>
</svg>
