<svg xmlns="http://www.w3.org/2000/svg" width="31" height="31" viewBox="0 0 31 31" fill="none">
    <path d="M13.6875 3.66631C14.1947 3.23884 14.8367 3.00439 15.5 3.00439C16.1633 3.00439 16.8053 3.23884 17.3125 3.66631L25.75 10.7851C26.385 11.3188 26.75 12.1051 26.75 12.9351V25.1876C26.75 25.7677 26.5195 26.3241 26.1093 26.7344C25.6991 27.1446 25.1427 27.3751 24.5625 27.3751H20.8125C20.2323 27.3751 19.6759 27.1446 19.2657 26.7344C18.8555 26.3241 18.625 25.7677 18.625 25.1876V18.9376C18.625 18.6889 18.5262 18.4505 18.3504 18.2746C18.1746 18.0988 17.9361 18.0001 17.6875 18.0001H13.3125C13.0639 18.0001 12.8254 18.0988 12.6496 18.2746C12.4738 18.4505 12.375 18.6889 12.375 18.9376V25.1876C12.375 25.7677 12.1445 26.3241 11.7343 26.7344C11.3241 27.1446 10.7677 27.3751 10.1875 27.3751H6.4375C6.15023 27.3751 5.86578 27.3185 5.60038 27.2085C5.33498 27.0986 5.09383 26.9375 4.8907 26.7344C4.68758 26.5312 4.52645 26.2901 4.41651 26.0247C4.30658 25.7593 4.25 25.4748 4.25 25.1876V12.9338C4.25 12.1051 4.615 11.3188 5.25 10.7838L13.6875 3.66631Z" fill="#D3D3D3"/>
</svg>