<svg width="340" height="54" viewBox="0 0 340 54" fill="none" xmlns="http://www.w3.org/2000/svg">
<rect width="340" height="54" rx="27" fill="#FFE558"/>
<path d="M67.2903 31.2667V35L70.5806 32.3333C72.3974 32.6867 74.2915 32.8582 76.0484 32.2762C79.004 31.2972 81 29.2829 81 25.9333C81 21.6667 76.0645 19 72.2258 19C68.3871 19 64 22.2 64 25.9333C64 28.92 66.1935 30.7333 67.2903 31.2667Z" fill="#272727"/>
<path d="M106.047 33.1562C103.688 33.1562 101.969 31.7656 101.922 29.8125H104.203C104.25 30.7031 105.062 31.2969 106.047 31.2969C107.219 31.2969 108.047 30.4688 108.047 29.2969C108.047 28.0938 107.203 27.2656 106.016 27.25C105.172 27.25 104.578 27.5625 104.234 28.2031H102.109L102.719 21.6875H109.688V23.6094H104.656L104.344 26.4688H104.438C104.859 25.9062 105.703 25.5156 106.703 25.5156C108.781 25.5156 110.328 27.0625 110.328 29.2344C110.328 31.5156 108.594 33.1562 106.047 33.1562ZM124.309 31.1875V32.8125H111.293V31.1875H116.793V28.4062H118.778V31.1875H124.309ZM123.168 22.1719V23.7656H118.824C118.988 25.3438 120.598 26.9453 123.84 27.3438L123.121 28.8906C120.574 28.5703 118.738 27.5156 117.793 26.0469C116.832 27.5156 115.012 28.5703 112.465 28.8906L111.731 27.3438C114.973 26.9453 116.582 25.3438 116.762 23.7656H112.418V22.1719H116.793V20.3906H118.778V22.1719H123.168ZM135.739 21.3906V28.2188H128.911V21.3906H135.739ZM130.879 22.9844V26.6562H133.77V22.9844H130.879ZM139.77 20.2188V24.3125H141.692V25.9531H139.77V30.5938H137.77V20.2188H139.77ZM140.286 32.5938V34.1875H130.551V29.5781H132.536V32.5938H140.286ZM154.485 20.2188V34.4375H152.579V20.2188H154.485ZM151.516 20.4219V33.7812H149.641V27.0625H148.501C148.313 29.8594 147.126 31.5469 145.376 31.5469C143.501 31.5469 142.282 29.5781 142.282 26.375C142.282 23.1875 143.501 21.2344 145.376 21.2344C147.087 21.2344 148.258 22.8281 148.485 25.4844H149.641V20.4219H151.516ZM145.376 23.1094C144.579 23.1094 144.11 24.2031 144.126 26.375C144.11 28.5625 144.579 29.6406 145.376 29.625C146.188 29.6406 146.673 28.5625 146.673 26.375C146.673 24.2031 146.188 23.1094 145.376 23.1094ZM166.774 21.5781C166.759 25.9688 165.696 29.625 160.384 32.2812L159.29 30.7812C161.665 29.6016 163.079 28.2812 163.884 26.7031L159.681 27.0938L159.431 25.3906L164.493 25.0781C164.634 24.4844 164.735 23.8438 164.79 23.1719H160.181V21.5781H166.774ZM170.571 20.2188V25.6719H172.587V27.3125H170.571V34.4062H168.571V20.2188H170.571ZM180.442 21.5781C180.427 25.9688 179.364 29.625 174.052 32.2812L172.958 30.7812C175.333 29.6016 176.747 28.2812 177.552 26.7031L173.349 27.0938L173.099 25.3906L178.161 25.0781C178.302 24.4844 178.403 23.8438 178.458 23.1719H173.849V21.5781H180.442ZM184.239 20.2188V25.6719H186.255V27.3125H184.239V34.4062H182.239V20.2188H184.239ZM193.173 20.9531C196.236 20.9531 198.517 22.5 198.533 24.8438C198.517 26.9844 196.712 28.4297 194.158 28.7188V31.1406H199.704V32.7812H186.689V31.1406H192.173V28.7031C189.626 28.4297 187.829 26.9766 187.829 24.8438C187.829 22.5 190.111 20.9531 193.173 20.9531ZM193.173 22.5469C191.189 22.5469 189.798 23.4219 189.798 24.8438C189.798 26.3438 191.189 27.1875 193.173 27.1875C195.173 27.1875 196.548 26.3438 196.564 24.8438C196.548 23.4219 195.173 22.5469 193.173 22.5469ZM213.372 31.2188V32.8594H200.357V31.2188H205.841V29.0781H201.857V24.2969H209.904V22.7344H201.841V21.1406H211.872V25.8594H203.857V27.4531H212.201V29.0781H207.826V31.2188H213.372ZM223.084 23.4375C223.084 26.0469 224.271 28.6719 226.677 29.6875L225.506 31.2812C223.881 30.5469 222.756 29.1328 222.115 27.375C221.467 29.2891 220.302 30.8359 218.568 31.625L217.365 29.9688C219.849 28.9219 221.052 26.2031 221.068 23.4375V21.3125H223.084V23.4375ZM229.459 20.2188V34.4688H227.443V20.2188H229.459ZM239.299 21.0469V22.6406H236.471C236.486 24.3047 237.471 26.0078 239.783 26.75L238.768 28.2969C237.189 27.7891 236.103 26.7734 235.486 25.5C234.853 26.8906 233.721 27.9922 232.064 28.5312L231.002 27C233.353 26.2422 234.424 24.4219 234.455 22.6406H231.549V21.0469H239.299ZM242.502 20.2188V23.6719H244.424V25.3281H242.502V28.7969H240.502V20.2188H242.502ZM242.502 29.4062V34.4375H240.502V30.9844H232.924V29.4062H242.502ZM256.107 20.2188V25.7812H258.201V27.4219H256.107V34.4375H254.139V20.2188H256.107ZM253.17 22.3438V23.9375H244.811V22.3438H248.029V20.4375H250.029V22.3438H253.17ZM249.029 24.7344C251.107 24.7344 252.654 26.1406 252.654 28.125C252.654 30.1094 251.107 31.5156 249.029 31.5156C246.936 31.5156 245.389 30.1094 245.389 28.125C245.389 26.1406 246.936 24.7344 249.029 24.7344ZM249.029 26.3438C248.029 26.3594 247.295 27.0312 247.295 28.125C247.295 29.2344 248.029 29.8906 249.029 29.875C250.029 29.8906 250.748 29.2344 250.748 28.125C250.748 27.0312 250.029 26.3594 249.029 26.3438ZM270.51 20.2188V34.4375H268.494V20.2188H270.51ZM266.244 21.7031C266.244 26.0156 264.729 29.5938 259.651 32L258.604 30.4062C262.276 28.6719 263.893 26.4219 264.213 23.2656H259.369V21.7031H266.244Z" fill="#272727"/>
</svg>
