<svg width="115" height="128" viewBox="0 0 115 128" fill="none" xmlns="http://www.w3.org/2000/svg">
<g filter="url(#filter0_d_774_9260)">
<path d="M4.25 11C4.25 6.58172 7.83172 3 12.25 3H102.75C107.168 3 110.75 6.58172 110.75 11V115C110.75 119.418 107.168 123 102.75 123H12.25C7.83172 123 4.25 119.418 4.25 115V11Z" fill="white" shape-rendering="crispEdges"/>
<path d="M12.25 3.5H102.75C106.892 3.5 110.25 6.85786 110.25 11V115C110.25 119.142 106.892 122.5 102.75 122.5H12.25C8.10786 122.5 4.75 119.142 4.75 115V11C4.75 6.85786 8.10786 3.5 12.25 3.5Z" stroke="url(#paint0_linear_774_9260)" shape-rendering="crispEdges"/>
<path d="M52.7848 36.0684V36.834C52.7848 37.627 52.7848 38.7344 52.4841 40.1152L50.9938 39.9922C51.2126 38.8779 51.2604 38.0166 51.2809 37.3125H46.4821V36.0684H52.7848ZM49.6677 38.8027V41.0312C50.9528 40.9834 52.2585 40.9014 53.4548 40.7578L53.5368 41.8242C50.9665 42.2617 48.1091 42.3301 45.8805 42.3301L45.7438 41.0996C46.4889 41.0996 47.3093 41.0928 48.1637 41.0723V38.8027H49.6677ZM55.738 35.3574V38.5156H57.3376V39.7871H55.738V42.959H54.1794V35.3574H55.738ZM51.5954 43.0957C54.2067 43.1094 55.8337 43.957 55.8337 45.3652C55.8337 46.8281 54.2067 47.6758 51.5954 47.6758C48.9841 47.6758 47.3571 46.8281 47.3571 45.3652C47.3571 43.957 48.9841 43.1094 51.5954 43.0957ZM51.5954 44.2715C49.8864 44.2715 48.902 44.668 48.902 45.3652C48.902 46.1172 49.8864 46.4863 51.5954 46.4863C53.2907 46.4863 54.2614 46.1172 54.2751 45.3652C54.2614 44.668 53.2907 44.2715 51.5954 44.2715ZM69.1058 42.248V43.4785H64.1976V47.7031H62.6937V43.4785H57.8402V42.248H69.1058ZM68.0667 36.0547V37.2578H64.3616C64.4505 38.6113 66.0775 39.9102 68.5179 40.2246L67.971 41.4141C65.8655 41.1201 64.2249 40.1562 63.473 38.8164C62.721 40.1562 61.0804 41.1201 59.0023 41.4141L58.428 40.2246C60.8548 39.9102 62.4818 38.6113 62.598 37.2578H58.8792V36.0547H68.0667ZM56.2028 56.3574V68.7168H54.6716V56.3574H56.2028ZM52.5114 57.6699C52.5114 61.3477 51.0895 64.4785 46.7555 66.5293L45.9626 65.3125C49.196 63.7744 50.6999 61.6826 50.9665 58.873H46.5915V57.6699H52.5114ZM61.1624 57.2598C63.0218 57.2598 64.3616 58.9551 64.3753 61.6211C64.3616 64.3145 63.0218 65.9961 61.1624 65.9961C59.2894 65.9961 57.9359 64.3145 57.9495 61.6211C57.9359 58.9551 59.2894 57.2598 61.1624 57.2598ZM61.1624 58.627C60.1234 58.627 59.4124 59.7344 59.4124 61.6211C59.4124 63.5215 60.1234 64.6289 61.1624 64.6289C62.2152 64.6289 62.9124 63.5215 62.9124 61.6211C62.9124 59.7344 62.2152 58.627 61.1624 58.627ZM67.5198 56.3574V61.1016H69.4202V62.3867H67.5198V68.7168H66.0023V56.3574H67.5198ZM32.5297 77.3711V84.6172H31.0805V81.6504H29.891V84.5215H28.4555V77.5762H29.891V80.3926H31.0805V77.3711H32.5297ZM32.5297 85.1777V89.5664H24.1898V85.1777H32.5297ZM25.7074 86.3672V88.3359H31.0258V86.3672H25.7074ZM27.7855 78.752V79.9688H25.7758C25.7826 81.2744 26.5756 82.5391 28.1273 83.1133L27.4437 84.248C26.3021 83.8379 25.5229 83.0586 25.0922 82.0879C24.6479 83.1406 23.8617 84.0088 22.6996 84.4531L21.9887 83.332C23.5541 82.7031 24.3197 81.3428 24.3402 79.9688H22.3031V78.752H24.3402V77.4531H25.7758V78.752H27.7855ZM44.2432 77.3574V89.7168H42.712V77.3574H44.2432ZM41.2354 78.5605V79.8047H40.0459V85.3418C40.6407 85.3008 41.2217 85.2461 41.7823 85.1777L41.8643 86.3125C39.212 86.7363 36.3135 86.791 34.044 86.791L33.8936 85.5469L35.4248 85.5332V79.8047H34.2217V78.5605H41.2354ZM36.8877 85.4922C37.4346 85.4854 37.9952 85.4648 38.5557 85.4375V79.8047H36.8877V85.4922ZM56.2302 77.3711V86.4219H54.7126V81.9238H52.4841C52.1628 83.373 50.8845 84.3574 49.3122 84.3574C47.4528 84.3574 46.0446 83.0586 46.0446 81.2402C46.0446 79.4219 47.4528 78.1367 49.3122 78.1367C50.9255 78.1367 52.2311 79.1621 52.5114 80.6797H54.7126V77.3711H56.2302ZM56.5446 88.2402V89.4707H48.1227V85.5059H49.6403V88.2402H56.5446ZM49.3122 79.4629C48.2731 79.4629 47.4938 80.1465 47.4938 81.2402C47.4938 82.334 48.2731 83.0449 49.3122 83.0449C50.3239 83.0449 51.0895 82.334 51.1032 81.2402C51.0895 80.1465 50.3239 79.4629 49.3122 79.4629ZM64.2249 79.0527C64.2249 80.9668 66.098 82.8809 68.682 83.332L67.9984 84.6035C65.9271 84.166 64.2318 82.915 63.432 81.2539C62.6116 82.9014 60.9163 84.1592 58.8519 84.6035L58.182 83.332C60.7386 82.8672 62.598 80.9531 62.6116 79.0527V78.1367H64.2249V79.0527ZM69.1331 86.8867V88.1445H57.8402V86.8867H69.1331ZM80.1084 77.3574V83.7285H78.5908V77.3574H80.1084ZM80.1084 84.248V87.4336H73.3545V88.4043H80.5048V89.6074H71.8505V86.3262H78.6045V85.4375H71.8232V84.248H80.1084ZM77.0459 78.1504V79.3262H75.9384V82.0195C76.499 81.9717 77.0459 81.917 77.5654 81.8555L77.6337 82.9492C75.1728 83.332 72.3291 83.4141 70.1689 83.4141L70.0048 82.2109L71.413 82.1973V79.3262H70.333V78.1504H77.0459ZM72.8759 82.1699C73.4091 82.1562 73.9492 82.1357 74.4892 82.1016V79.3262H72.8759V82.1699ZM91.7945 83.1543V84.3711H83.1266V78.4375H91.6988V79.668H84.6305V83.1543H91.7945ZM93.0523 86.8867V88.1445H81.7594V86.8867H93.0523Z" fill="black"/>
</g>
<defs>
<filter id="filter0_d_774_9260" x="0.25" y="0" width="114.5" height="128" filterUnits="userSpaceOnUse" color-interpolation-filters="sRGB">
<feFlood flood-opacity="0" result="BackgroundImageFix"/>
<feColorMatrix in="SourceAlpha" type="matrix" values="0 0 0 0 0 0 0 0 0 0 0 0 0 0 0 0 0 0 127 0" result="hardAlpha"/>
<feOffset dy="1"/>
<feGaussianBlur stdDeviation="2"/>
<feComposite in2="hardAlpha" operator="out"/>
<feColorMatrix type="matrix" values="0 0 0 0 0 0 0 0 0 0 0 0 0 0 0 0 0 0 0.25 0"/>
<feBlend mode="normal" in2="BackgroundImageFix" result="effect1_dropShadow_774_9260"/>
<feBlend mode="normal" in="SourceGraphic" in2="effect1_dropShadow_774_9260" result="shape"/>
</filter>
<linearGradient id="paint0_linear_774_9260" x1="19" y1="20.5" x2="95" y2="113.5" gradientUnits="userSpaceOnUse">
<stop stop-color="#D10F31"/>
<stop offset="1" stop-color="#FFEC01"/>
</linearGradient>
</defs>
</svg>
