<svg width="116" height="128" viewBox="0 0 116 128" fill="none" xmlns="http://www.w3.org/2000/svg">
<g filter="url(#filter0_d_774_9275)">
<rect x="4.75" y="3" width="106.5" height="120" rx="8" fill="white" shape-rendering="crispEdges"/>
<rect x="5.25" y="3.5" width="105.5" height="119" rx="7.5" stroke="black" shape-rendering="crispEdges"/>
<path d="M52.82 36.3828C52.82 37.9414 54.5563 39.5137 57.195 39.8555L56.5934 41.0859C54.4948 40.7715 52.8268 39.7393 52.027 38.3379C51.2136 39.7393 49.5524 40.7715 47.4743 41.0859L46.8727 39.8555C49.4841 39.5137 51.2204 37.9414 51.2204 36.3828V35.7539H52.82V36.3828ZM57.6462 42.1523V43.4102H52.738V47.7168H51.2341V43.4102H46.3805V42.1523H57.6462ZM68.7034 35.3711V44.7227H67.1722V43.6426H64.7523V42.5762H67.1722V35.3711H68.7034ZM68.9905 46.2402V47.4707H59.9261V43.8203H61.4437V46.2402H68.9905ZM58.2855 40.9219C60.5687 40.9082 63.6312 40.8809 66.2562 40.5527L66.3382 41.6465C65.3196 41.8174 64.2669 41.9336 63.221 42.002V44.3809H61.7034V42.084C60.5482 42.1318 59.4476 42.1387 58.4769 42.1387L58.2855 40.9219ZM62.3187 35.8223C64.1234 35.8223 65.3812 36.7109 65.3948 38.0098C65.3812 39.3359 64.1234 40.1836 62.3187 40.1836C60.4866 40.1836 59.2288 39.3359 59.2288 38.0098C59.2288 36.7109 60.4866 35.8223 62.3187 35.8223ZM62.3187 36.9434C61.3343 36.9434 60.6644 37.3398 60.6644 38.0098C60.6644 38.6797 61.3343 39.0762 62.3187 39.0762C63.262 39.0762 63.932 38.6797 63.9456 38.0098C63.932 37.3398 63.262 36.9434 62.3187 36.9434ZM50.0173 67.5V57.6016H51.7946V62.1543H51.9313L55.8005 57.6016H57.9743L54.1462 62.0449L58.0153 67.5H55.8688L52.902 63.248L51.7946 64.5469V67.5H50.0173ZM58.5316 59.0918V57.6016H66.4202V59.0918H63.3714V67.5H61.5941V59.0918H58.5316ZM38.4541 77.9043C40.3272 77.8906 41.6944 78.957 41.6944 80.502C41.6944 82.0195 40.3272 83.0996 38.4541 83.0859C36.5948 83.0996 35.2412 82.0195 35.2412 80.502C35.2412 78.957 36.5948 77.8906 38.4541 77.9043ZM38.4541 79.1348C37.4424 79.1211 36.7041 79.6543 36.7178 80.502C36.7041 81.3359 37.4424 81.8418 38.4541 81.8418C39.5069 81.8418 40.2452 81.3359 40.2452 80.502C40.2452 79.6543 39.5069 79.1211 38.4541 79.1348ZM44.7569 77.3711V89.7031H43.253V77.3711H44.7569ZM34.4346 83.9336C36.6631 83.9336 39.7803 83.8926 42.4463 83.4961L42.5557 84.6172C41.4893 84.8223 40.3819 84.9521 39.3018 85.0273V89.334H37.7705V85.123C36.6289 85.1709 35.5557 85.1777 34.626 85.1914L34.4346 83.9336ZM57.6735 86.9141V88.1719H46.3805V86.9141H57.6735ZM52.8063 79.8867C52.8063 81.7051 54.652 83.3457 57.2223 83.7422L56.6208 84.9453C54.529 84.5762 52.82 83.4619 52.027 81.9102C51.2272 83.4824 49.5319 84.6309 47.4743 85.0137L46.8727 83.7832C49.3747 83.4004 51.2067 81.7051 51.2067 79.8867V79.6953H47.3239V78.4785H56.7028V79.6953H52.8063V79.8867ZM65.3948 78.5605V79.8047H64.2054V85.3691C64.7659 85.3213 65.3196 85.2734 65.846 85.2051L65.9144 86.2988C63.3577 86.7363 60.5003 86.791 58.3538 86.791L58.1761 85.5469L59.6663 85.5332V79.8047H58.4905V78.5605H65.3948ZM68.0198 77.3574V82.1426H69.9202V83.3867H68.0198V89.7168H66.5023V77.3574H68.0198ZM61.1429 85.5059C61.6693 85.499 62.2025 85.4785 62.7425 85.4512V79.8047H61.1429V85.5059ZM80.3213 78.5059V79.9824C80.3213 81.7734 80.3213 83.4824 79.7744 86.0938L78.2568 85.957C78.5097 84.877 78.6533 83.9268 78.7353 83.0449L71.4482 83.4277L71.2431 82.1973L78.8037 81.9102C78.831 81.2471 78.831 80.6113 78.831 79.9824V79.7363H71.6123V78.5059H80.3213ZM81.5654 86.9004V88.1445H70.2998V86.9004H81.5654Z" fill="black"/>
</g>
<defs>
<filter id="filter0_d_774_9275" x="0.75" y="0" width="114.5" height="128" filterUnits="userSpaceOnUse" color-interpolation-filters="sRGB">
<feFlood flood-opacity="0" result="BackgroundImageFix"/>
<feColorMatrix in="SourceAlpha" type="matrix" values="0 0 0 0 0 0 0 0 0 0 0 0 0 0 0 0 0 0 127 0" result="hardAlpha"/>
<feOffset dy="1"/>
<feGaussianBlur stdDeviation="2"/>
<feComposite in2="hardAlpha" operator="out"/>
<feColorMatrix type="matrix" values="0 0 0 0 0 0 0 0 0 0 0 0 0 0 0 0 0 0 0.25 0"/>
<feBlend mode="normal" in2="BackgroundImageFix" result="effect1_dropShadow_774_9275"/>
<feBlend mode="normal" in="SourceGraphic" in2="effect1_dropShadow_774_9275" result="shape"/>
</filter>
</defs>
</svg>
