<svg width="116" height="128" viewBox="0 0 116 128" fill="none" xmlns="http://www.w3.org/2000/svg">
<g filter="url(#filter0_d_774_9270)">
<path d="M4.5 11C4.5 6.58172 8.08172 3 12.5 3H103.5C107.918 3 111.5 6.58172 111.5 11V115C111.5 119.418 107.918 123 103.5 123H12.5C8.08172 123 4.5 119.418 4.5 115V11Z" fill="white" shape-rendering="crispEdges"/>
<path d="M12.5 3.5H103.5C107.642 3.5 111 6.85786 111 11V115C111 119.142 107.642 122.5 103.5 122.5H12.5C8.35786 122.5 5 119.142 5 115V11C5 6.85786 8.35786 3.5 12.5 3.5Z" stroke="url(#paint0_linear_774_9270)" shape-rendering="crispEdges"/>
<path d="M50.947 48.8242C50.947 51.1211 52.0407 53.377 54.0095 54.2383L53.0934 55.4551C51.6921 54.7715 50.7077 53.459 50.1813 51.8457C49.6413 53.5479 48.6364 54.9629 47.2145 55.6875L46.2575 54.457C48.2673 53.5137 49.3884 51.1348 49.402 48.8242V46.8555H50.947V48.8242ZM56.7438 45.8574V58.2305H55.2399V51.0801H52.6423V49.8496H55.2399V45.8574H56.7438ZM63.9593 45.9805C66.7757 45.9805 68.4027 46.7324 68.4163 48.0996C68.4027 49.4805 66.7757 50.2188 63.9593 50.2324C61.1429 50.2188 59.5023 49.4805 59.5023 48.0996C59.5023 46.7324 61.1429 45.9805 63.9593 45.9805ZM63.9593 47.1152C62.0726 47.1152 61.0882 47.457 61.1019 48.0996C61.0882 48.7832 62.0726 49.0977 63.9593 49.1113C65.8734 49.0977 66.8441 48.7832 66.8441 48.0996C66.8441 47.457 65.8734 47.1152 63.9593 47.1152ZM69.6058 50.875V52.0645H64.7113V53.0078H68.1976V56.0293H61.1702V56.9453H68.5394V58.1074H59.68V54.9492H66.7073V54.1289H59.6663V53.0078H63.1937V52.0645H58.3402V50.875H69.6058ZM30.96 67.9922V69.1816C30.9464 70.7129 30.9464 72.4355 30.4678 75.0195L28.9366 74.8555C29.4151 72.4492 29.4151 70.6924 29.4288 69.209H22.046V67.9922H30.96ZM32.1358 76.373V77.6172H20.8702V76.373H25.0264V72.0801H26.5303V76.373H32.1358ZM43.1794 74.9102V79.2305H41.6618V76.1543H34.7575V74.9102H43.1794ZM43.1794 66.8574V74.3633H41.6618V71.5605H39.4196V70.3164H41.6618V66.8574H43.1794ZM37.2732 69.5781C37.2732 71 38.2986 72.3672 40.24 72.9004L39.5564 74.1172C38.1208 73.6934 37.0954 72.8252 36.5349 71.7109C35.988 72.9209 34.9695 73.8643 33.5134 74.3086L32.7888 73.1328C34.7165 72.5449 35.7556 71.0957 35.7556 69.5781V69.4414H33.1716V68.2383H35.7556V66.8027H37.2868V68.2383H39.8571V69.4414H37.2732V69.5781ZM54.3564 68.5527C54.3564 70.4668 56.2295 72.3809 58.8135 72.832L58.1299 74.1035C56.0586 73.666 54.3633 72.415 53.5635 70.7539C52.7432 72.4014 51.0478 73.6592 48.9834 74.1035L48.3135 72.832C50.8701 72.3672 52.7295 70.4531 52.7432 68.5527V67.6367H54.3564V68.5527ZM59.2646 76.3867V77.6445H47.9717V76.3867H59.2646ZM66.3571 68.0742C66.3571 71.8066 65.3317 75.0059 60.7789 77.2754L59.945 76.127C62.0846 75.0674 63.3561 73.8369 64.0739 72.3672L60.2321 72.7363L60.0407 71.4238L64.5387 71.1367C64.6959 70.5625 64.7916 69.9541 64.8395 69.3047H60.6832V68.0742H66.3571ZM69.611 66.8574V71.6973H71.443V72.9414H69.611V79.1895H68.0934V66.8574H69.611ZM82.1721 66.8574V79.2305H80.6409V66.8574H82.1721ZM75.5139 67.7598C77.3733 67.7598 78.7268 69.4551 78.7405 72.1211C78.7268 74.8145 77.3733 76.4961 75.5139 76.4961C73.6409 76.4961 72.2874 74.8145 72.2874 72.1211C72.2874 69.4551 73.6409 67.7598 75.5139 67.7598ZM75.5139 69.127C74.4612 69.127 73.7503 70.2344 73.7503 72.1211C73.7503 74.0215 74.4612 75.1289 75.5139 75.1289C76.553 75.1289 77.2639 74.0215 77.2639 72.1211C77.2639 70.2344 76.553 69.127 75.5139 69.127ZM95.1298 72.6406V73.8574H83.8505V72.6406H88.7177V71.4922H85.2314V67.3359H93.7626V68.5664H86.7489V70.2891H93.872V71.4922H90.2216V72.6406H95.1298ZM93.7763 74.8418V79.0664H85.1767V74.8418H93.7763ZM86.6806 76.0449V77.8359H92.2861V76.0449H86.6806Z" fill="black"/>
</g>
<defs>
<filter id="filter0_d_774_9270" x="0.5" y="0" width="115" height="128" filterUnits="userSpaceOnUse" color-interpolation-filters="sRGB">
<feFlood flood-opacity="0" result="BackgroundImageFix"/>
<feColorMatrix in="SourceAlpha" type="matrix" values="0 0 0 0 0 0 0 0 0 0 0 0 0 0 0 0 0 0 127 0" result="hardAlpha"/>
<feOffset dy="1"/>
<feGaussianBlur stdDeviation="2"/>
<feComposite in2="hardAlpha" operator="out"/>
<feColorMatrix type="matrix" values="0 0 0 0 0 0 0 0 0 0 0 0 0 0 0 0 0 0 0.25 0"/>
<feBlend mode="normal" in2="BackgroundImageFix" result="effect1_dropShadow_774_9270"/>
<feBlend mode="normal" in="SourceGraphic" in2="effect1_dropShadow_774_9270" result="shape"/>
</filter>
<linearGradient id="paint0_linear_774_9270" x1="19.3192" y1="20.5" x2="95.2476" y2="113.849" gradientUnits="userSpaceOnUse">
<stop stop-color="#7E0022"/>
</linearGradient>
</defs>
</svg>
