<svg width="116" height="128" viewBox="0 0 116 128" fill="none" xmlns="http://www.w3.org/2000/svg">
<g filter="url(#filter0_d_774_9210)">
<path d="M4.75 11C4.75 6.58172 8.33172 3 12.75 3H103.25C107.668 3 111.25 6.58172 111.25 11V115C111.25 119.418 107.668 123 103.25 123H12.75C8.33172 123 4.75 119.418 4.75 115V11Z" fill="white" shape-rendering="crispEdges"/>
<path d="M12.75 3.5H103.25C107.392 3.5 110.75 6.85786 110.75 11V115C110.75 119.142 107.392 122.5 103.25 122.5H12.75C8.60786 122.5 5.25 119.142 5.25 115V11C5.25 6.85786 8.60786 3.5 12.75 3.5Z" stroke="url(#paint0_linear_774_9210)" shape-rendering="crispEdges"/>
<path d="M57.0173 35.3574V47.7168H55.568V41.4141H54.1735V47.0879H52.779V35.5898H54.1735V40.1973H55.568V35.3574H57.0173ZM51.3845 36.8203V38.0508H48.2946V43.5469C49.6413 43.5332 50.7487 43.4648 51.9997 43.2324L52.1091 44.4766C50.6188 44.7773 49.32 44.8184 47.5973 44.832H46.7634V36.8203H51.3845ZM68.2249 36.1094V37.2168C68.2249 38.3721 68.2249 39.6367 67.8968 41.3867H69.6058V42.6172H64.6976V47.7305H63.1663V42.6172H58.3402V41.3867H66.3519C66.6937 39.7051 66.7073 38.4473 66.7073 37.3398H59.6663V36.1094H68.2249ZM44.1006 56.3574V61.1016H46.001V62.373H44.1006V68.7305H42.5967V56.3574H44.1006ZM40.6006 57.4375V62.0996H36.4444V64.5605C38.3995 64.5469 39.9239 64.4648 41.6534 64.1641L41.7901 65.3945C39.8897 65.7363 38.1944 65.8184 35.9522 65.8184H34.9405V60.8828H39.083V58.668H34.9131V57.4375H40.6006ZM56.6618 56.3574V68.7305H55.1305V56.3574H56.6618ZM50.0036 57.2598C51.863 57.2598 53.2165 58.9551 53.2302 61.6211C53.2165 64.3145 51.863 65.9961 50.0036 65.9961C48.1305 65.9961 46.777 64.3145 46.777 61.6211C46.777 58.9551 48.1305 57.2598 50.0036 57.2598ZM50.0036 58.627C48.9509 58.627 48.2399 59.7344 48.2399 61.6211C48.2399 63.5215 48.9509 64.6289 50.0036 64.6289C51.0427 64.6289 51.7536 63.5215 51.7536 61.6211C51.7536 59.7344 51.0427 58.627 50.0036 58.627ZM69.6058 62.7969V64.0273H58.3402V62.7969H63.1937V61.7031C60.9378 61.5391 59.5023 60.6299 59.5023 59.2012C59.5023 57.6562 61.2659 56.6992 63.9593 56.6992C66.6527 56.6992 68.4027 57.6562 68.4163 59.2012C68.4027 60.6299 66.9808 61.5391 64.7249 61.7031V62.7969H69.6058ZM68.3343 67.2402V68.4707H59.7347V64.875H61.2523V67.2402H68.3343ZM63.9593 57.9023C62.1683 57.916 61.0745 58.3809 61.0882 59.2012C61.0745 60.0625 62.1683 60.5 63.9593 60.5C65.764 60.5 66.8441 60.0625 66.8441 59.2012C66.8441 58.3809 65.764 57.916 63.9593 57.9023ZM81.5927 65.9141V67.1719H70.2998V65.9141H81.5927ZM76.7255 58.8867C76.7255 60.7051 78.5713 62.3457 81.1416 62.7422L80.54 63.9453C78.4482 63.5762 76.7392 62.4619 75.9463 60.9102C75.1464 62.4824 73.4511 63.6309 71.3935 64.0137L70.792 62.7832C73.2939 62.4004 75.1259 60.7051 75.1259 58.8867V58.6953H71.2431V57.4785H80.622V58.6953H76.7255V58.8867ZM53.4352 78.5605V79.8047H52.2458V85.3691C52.8063 85.3213 53.36 85.2734 53.8864 85.2051L53.9548 86.2988C51.3981 86.7363 48.5407 86.791 46.3942 86.791L46.2165 85.5469L47.7067 85.5332V79.8047H46.5309V78.5605H53.4352ZM56.0602 77.3574V82.1426H57.9606V83.3867H56.0602V89.7168H54.5427V77.3574H56.0602ZM49.1833 85.5059C49.7096 85.499 50.2429 85.4785 50.7829 85.4512V79.8047H49.1833V85.5059ZM68.3616 78.5059V79.9824C68.3616 81.7734 68.3616 83.4824 67.8148 86.0938L66.2972 85.957C66.5501 84.877 66.6937 83.9268 66.7757 83.0449L59.4886 83.4277L59.2835 82.1973L66.8441 81.9102C66.8714 81.2471 66.8714 80.6113 66.8714 79.9824V79.7363H59.6527V78.5059H68.3616ZM69.6058 86.9004V88.1445H58.3402V86.9004H69.6058Z" fill="black"/>
</g>
<defs>
<filter id="filter0_d_774_9210" x="0.75" y="0" width="114.5" height="128" filterUnits="userSpaceOnUse" color-interpolation-filters="sRGB">
<feFlood flood-opacity="0" result="BackgroundImageFix"/>
<feColorMatrix in="SourceAlpha" type="matrix" values="0 0 0 0 0 0 0 0 0 0 0 0 0 0 0 0 0 0 127 0" result="hardAlpha"/>
<feOffset dy="1"/>
<feGaussianBlur stdDeviation="2"/>
<feComposite in2="hardAlpha" operator="out"/>
<feColorMatrix type="matrix" values="0 0 0 0 0 0 0 0 0 0 0 0 0 0 0 0 0 0 0.25 0"/>
<feBlend mode="normal" in2="BackgroundImageFix" result="effect1_dropShadow_774_9210"/>
<feBlend mode="normal" in="SourceGraphic" in2="effect1_dropShadow_774_9210" result="shape"/>
</filter>
<linearGradient id="paint0_linear_774_9210" x1="19.5" y1="20.5" x2="95.5" y2="113.5" gradientUnits="userSpaceOnUse">
<stop stop-color="#0064B2"/>
</linearGradient>
</defs>
</svg>
