<svg width="27" height="27" viewBox="0 0 27 27" fill="none" xmlns="http://www.w3.org/2000/svg">
<path d="M18 15.75C19.4495 15.7501 20.8431 16.3097 21.89 17.3122C22.9369 18.3148 23.5565 19.6827 23.6194 21.1309L23.625 21.375V22.5C23.6252 23.0676 23.4108 23.6144 23.0248 24.0306C22.6388 24.4468 22.1098 24.7018 21.5437 24.7444L21.375 24.75H5.625C5.05735 24.7502 4.51061 24.5358 4.09438 24.1498C3.67815 23.7638 3.4232 23.2348 3.38063 22.6687L3.375 22.5V21.375C3.37508 19.9255 3.93473 18.5319 4.93724 17.485C5.93975 16.4381 7.30772 15.8185 8.75588 15.7556L9 15.75H18ZM13.5 2.25C14.9918 2.25 16.4226 2.84263 17.4775 3.89752C18.5324 4.95242 19.125 6.38316 19.125 7.875C19.125 9.36684 18.5324 10.7976 17.4775 11.8525C16.4226 12.9074 14.9918 13.5 13.5 13.5C12.0082 13.5 10.5774 12.9074 9.52252 11.8525C8.46763 10.7976 7.875 9.36684 7.875 7.875C7.875 6.38316 8.46763 4.95242 9.52252 3.89752C10.5774 2.84263 12.0082 2.25 13.5 2.25Z" fill="#272727"/>
</svg>
