<svg width="115" height="128" viewBox="0 0 115 128" fill="none" xmlns="http://www.w3.org/2000/svg">
<g filter="url(#filter0_d_774_9280)">
<path d="M4.25 11C4.25 6.58172 7.83172 3 12.25 3H102.75C107.168 3 110.75 6.58172 110.75 11V115C110.75 119.418 107.168 123 102.75 123H12.25C7.83172 123 4.25 119.418 4.25 115V11Z" fill="white" shape-rendering="crispEdges"/>
<path d="M12.25 3.5H102.75C106.892 3.5 110.25 6.85786 110.25 11V115C110.25 119.142 106.892 122.5 102.75 122.5H12.25C8.10786 122.5 4.75 119.142 4.75 115V11C4.75 6.85786 8.10786 3.5 12.25 3.5Z" stroke="url(#paint0_linear_774_9280)" shape-rendering="crispEdges"/>
<path d="M50.3239 48.4961C50.3239 49.8496 51.322 51.1484 53.2634 51.6816L52.5661 52.8848C51.1511 52.4951 50.1462 51.6543 49.5856 50.6016C49.0456 51.7979 48.0202 52.7412 46.5641 53.1855L45.8259 51.9961C47.7673 51.4355 48.8063 50.0137 48.8063 48.4961V48.4414H46.2223V47.2383H48.8063V45.8027H50.3376V47.2383H52.9079V48.4414H50.3239V48.4961ZM55.6286 45.8574V48.8789H57.3512V50.123H55.6286V53.3496H54.111V45.8574H55.6286ZM51.6091 53.6094C54.1794 53.6094 55.738 54.4434 55.7516 55.9062C55.738 57.3555 54.1794 58.1895 51.6091 58.1895C49.0114 58.1895 47.4255 57.3555 47.4255 55.9062C47.4255 54.4434 49.0114 53.6094 51.6091 53.6094ZM51.6091 54.7852C49.9001 54.7852 48.943 55.1543 48.943 55.9062C48.943 56.6445 49.9001 57.0273 51.6091 57.0273C53.3044 57.0273 54.2477 56.6445 54.2477 55.9062C54.2477 55.1543 53.3044 54.7852 51.6091 54.7852ZM68.2034 45.8711V55.2227H66.6722V54.1426H64.2523V53.0762H66.6722V45.8711H68.2034ZM68.4905 56.7402V57.9707H59.4261V54.3203H60.9437V56.7402H68.4905ZM57.7855 51.4219C60.0687 51.4082 63.1312 51.3809 65.7562 51.0527L65.8382 52.1465C64.8196 52.3174 63.7669 52.4336 62.721 52.502V54.8809H61.2034V52.584C60.0482 52.6318 58.9476 52.6387 57.9769 52.6387L57.7855 51.4219ZM61.8187 46.3223C63.6234 46.3223 64.8812 47.2109 64.8948 48.5098C64.8812 49.8359 63.6234 50.6836 61.8187 50.6836C59.9866 50.6836 58.7288 49.8359 58.7288 48.5098C58.7288 47.2109 59.9866 46.3223 61.8187 46.3223ZM61.8187 47.4434C60.8343 47.4434 60.1644 47.8398 60.1644 48.5098C60.1644 49.1797 60.8343 49.5762 61.8187 49.5762C62.762 49.5762 63.432 49.1797 63.4456 48.5098C63.432 47.8398 62.762 47.4434 61.8187 47.4434ZM43.0896 68.1016V78H41.5036L36.8142 71.2324H36.7321V78H34.9548V68.1016H36.5681L41.2302 74.8691H41.3259V68.1016H43.0896ZM51.4535 71.4375C51.2484 70.248 50.2914 69.5645 49.0882 69.5645C47.4613 69.5645 46.3265 70.8086 46.3265 73.0508C46.3265 75.3203 47.475 76.5371 49.0882 76.5371C50.264 76.5371 51.2211 75.8809 51.4535 74.7188H53.2445C52.9711 76.6191 51.4125 78.1367 49.0609 78.1367C46.4496 78.1367 44.5355 76.2363 44.5355 73.0508C44.5355 69.8516 46.4769 67.9648 49.0609 67.9648C51.2484 67.9648 52.9437 69.2363 53.2445 71.4375H51.4535ZM64.3668 68.0605V69.3047H63.1774V74.8691C63.7379 74.8213 64.2916 74.7734 64.818 74.7051L64.8864 75.7988C62.3297 76.2363 59.4723 76.291 57.3258 76.291L57.1481 75.0469L58.6383 75.0332V69.3047H57.4625V68.0605H64.3668ZM66.9918 66.8574V71.6426H68.8922V72.8867H66.9918V79.2168H65.4743V66.8574H66.9918ZM60.1149 75.0059C60.6413 74.999 61.1745 74.9785 61.7145 74.9512V69.3047H60.1149V75.0059ZM79.2932 68.0059V69.4824C79.2932 71.2734 79.2932 72.9824 78.7464 75.5938L77.2288 75.457C77.4817 74.377 77.6253 73.4268 77.7073 72.5449L70.4202 72.9277L70.2151 71.6973L77.7757 71.4102C77.803 70.7471 77.803 70.1113 77.803 69.4824V69.2363H70.5843V68.0059H79.2932ZM80.5374 76.4004V77.6445H69.2718V76.4004H80.5374Z" fill="black"/>
</g>
<defs>
<filter id="filter0_d_774_9280" x="0.25" y="0" width="114.5" height="128" filterUnits="userSpaceOnUse" color-interpolation-filters="sRGB">
<feFlood flood-opacity="0" result="BackgroundImageFix"/>
<feColorMatrix in="SourceAlpha" type="matrix" values="0 0 0 0 0 0 0 0 0 0 0 0 0 0 0 0 0 0 127 0" result="hardAlpha"/>
<feOffset dy="1"/>
<feGaussianBlur stdDeviation="2"/>
<feComposite in2="hardAlpha" operator="out"/>
<feColorMatrix type="matrix" values="0 0 0 0 0 0 0 0 0 0 0 0 0 0 0 0 0 0 0.25 0"/>
<feBlend mode="normal" in2="BackgroundImageFix" result="effect1_dropShadow_774_9280"/>
<feBlend mode="normal" in="SourceGraphic" in2="effect1_dropShadow_774_9280" result="shape"/>
</filter>
<linearGradient id="paint0_linear_774_9280" x1="19" y1="20.5" x2="95" y2="113.5" gradientUnits="userSpaceOnUse">
<stop stop-color="#1F477A"/>
<stop offset="1" stop-color="#4AC7D5"/>
</linearGradient>
</defs>
</svg>
