<svg width="116" height="128" viewBox="0 0 116 128" fill="none" xmlns="http://www.w3.org/2000/svg">
<g filter="url(#filter0_d_774_9201)">
<path d="M4.25 11C4.25 6.58172 7.83172 3 12.25 3H103.25C107.668 3 111.25 6.58172 111.25 11V115C111.25 119.418 107.668 123 103.25 123H12.25C7.83172 123 4.25 119.418 4.25 115V11Z" fill="white" shape-rendering="crispEdges"/>
<path d="M12.25 3.5H103.25C107.392 3.5 110.75 6.85786 110.75 11V115C110.75 119.142 107.392 122.5 103.25 122.5H12.25C8.10786 122.5 4.75 119.142 4.75 115V11C4.75 6.85786 8.10786 3.5 12.25 3.5Z" stroke="url(#paint0_linear_774_9201)" shape-rendering="crispEdges"/>
<path d="M37.1462 38.3242C37.1462 40.6211 38.24 42.877 40.2087 43.7383L39.2927 44.9551C37.8913 44.2715 36.907 42.959 36.3806 41.3457C35.8405 43.0479 34.8357 44.4629 33.4138 45.1875L32.4568 43.957C34.4665 43.0137 35.5876 40.6348 35.6013 38.3242V36.3555H37.1462V38.3242ZM42.9431 35.3574V47.7305H41.4392V40.5801H38.8415V39.3496H41.4392V35.3574H42.9431ZM50.1586 35.4805C52.975 35.4805 54.6019 36.2324 54.6156 37.5996C54.6019 38.9805 52.975 39.7188 50.1586 39.7324C47.3421 39.7188 45.7015 38.9805 45.7015 37.5996C45.7015 36.2324 47.3421 35.4805 50.1586 35.4805ZM50.1586 36.6152C48.2718 36.6152 47.2875 36.957 47.3011 37.5996C47.2875 38.2832 48.2718 38.5977 50.1586 38.6113C52.0726 38.5977 53.0433 38.2832 53.0433 37.5996C53.0433 36.957 52.0726 36.6152 50.1586 36.6152ZM55.805 40.375V41.5645H50.9105V42.5078H54.3968V45.5293H47.3695V46.4453H54.7386V47.6074H45.8793V44.4492H52.9066V43.6289H45.8656V42.5078H49.3929V41.5645H44.5394V40.375H55.805ZM64.0973 37.4629C64.0836 38.9805 65.068 40.4297 67.0368 41.0449L66.2711 42.2617C64.8834 41.8174 63.8991 40.9082 63.3454 39.7734C62.7985 41.0381 61.7594 42.0498 60.3102 42.5352L59.5172 41.3184C61.527 40.6758 62.5524 39.1035 62.5661 37.4766V37.3535H59.9411V36.1367H66.6539V37.3535H64.0973V37.4629ZM69.4293 35.3574V38.2559H71.152V39.5H69.4293V42.5625H67.9118V35.3574H69.4293ZM69.4293 43.0684V47.5664H61.445V43.0684H69.4293ZM62.9489 44.2715V46.3359H67.9254V44.2715H62.9489ZM81.9085 35.3574V41.6602H80.4046V35.3574H81.9085ZM81.9358 42.2344V45.4473H75.2503V46.4043H82.305V47.6074H73.76V44.3125H80.4182V43.4102H73.7327V42.2344H81.9358ZM76.2483 36.6152C76.2483 38.1875 77.2874 39.6641 79.2425 40.252L78.5042 41.4277C77.0686 40.9902 76.0432 40.0674 75.4827 38.8848C74.9221 40.1699 73.8694 41.1748 72.3929 41.6465L71.6272 40.457C73.6233 39.8145 74.6761 38.2285 74.6761 36.6152V35.6582H76.2483V36.6152ZM34.5622 60.7734V62.3457H39.4568V63.5762H28.1911V62.3457H33.0583V60.7734H34.5622ZM33.8103 64.3691C36.49 64.3691 38.0759 65.1348 38.0896 66.5293C38.0759 67.9238 36.49 68.7031 33.8103 68.7031C31.1169 68.7031 29.5036 67.9238 29.5036 66.5293C29.5036 65.1348 31.1169 64.3691 33.8103 64.3691ZM33.8103 65.5312C31.9919 65.5312 31.0349 65.873 31.0486 66.5293C31.0349 67.2129 31.9919 67.5547 33.8103 67.5547C35.5876 67.5547 36.5583 67.2129 36.572 66.5293C36.5583 65.873 35.5876 65.5312 33.8103 65.5312ZM38.445 56.9043V58.1211H34.8904C35.1364 59.126 36.6198 60.0283 38.9236 60.2539L38.3767 61.4434C36.1345 61.2178 34.4802 60.3428 33.8103 59.0918C33.1404 60.3428 31.4997 61.2178 29.2575 61.4434L28.7243 60.2539C31.0075 60.0283 32.4909 59.1328 32.7439 58.1211H29.2165V56.9043H38.445ZM49.8988 56.3574V59.4062H51.6214V60.6641H49.8988V63.5762H48.3812V56.3574H49.8988ZM43.4183 64.0684V65.1348H48.3812V64.0684H49.8988V68.5664H41.9144V64.0684H43.4183ZM43.4183 67.3633H48.3812V66.3105H43.4183V67.3633ZM47.4925 57.5059V58.7227H40.1644V57.5059H43.0765V56.2617H44.5941V57.5059H47.4925ZM43.8285 59.1465C45.6195 59.1465 46.8363 60.0078 46.85 61.3203C46.8363 62.6328 45.6195 63.4941 43.8285 63.4941C42.0238 63.4941 40.7933 62.6328 40.7933 61.3203C40.7933 60.0078 42.0238 59.1465 43.8285 59.1465ZM43.8285 60.2676C42.8851 60.2676 42.2699 60.6641 42.2699 61.3203C42.2699 61.9902 42.8851 62.373 43.8285 62.373C44.7718 62.373 45.4007 61.9902 45.4007 61.3203C45.4007 60.6641 44.7718 60.2676 43.8285 60.2676ZM63.3896 62.4688V63.6855H58.6182V65.9551H57.0732V63.6855H52.0967V62.4688H63.3896ZM62.1455 67.2266V68.4707H53.4775V64.8066H55.0088V67.2266H62.1455ZM57.7295 56.6309C60.3955 56.6309 62.1592 57.6016 62.1592 59.1602C62.1592 60.7188 60.3955 61.6758 57.7295 61.6758C55.0635 61.6758 53.2998 60.7188 53.2998 59.1602C53.2998 57.6016 55.0635 56.6309 57.7295 56.6309ZM57.7295 57.834C56.0342 57.834 54.9268 58.3125 54.9404 59.1602C54.9268 59.9805 56.0342 60.459 57.7295 60.459C59.4385 60.459 60.5322 59.9805 60.5322 59.1602C60.5322 58.3125 59.4385 57.834 57.7295 57.834ZM75.3493 62.2773V63.4941H64.07V62.2773H68.9645V61.1016H65.4508V56.918H73.9821V58.1074H66.9684V59.8984H74.0504V61.1016H70.4547V62.2773H75.3493ZM69.6891 64.2051C72.3551 64.2051 73.9547 65.0117 73.9684 66.4609C73.9547 67.8965 72.3551 68.7168 69.6891 68.7168C66.9957 68.7168 65.3825 67.8965 65.3825 66.4609C65.3825 65.0117 66.9957 64.2051 69.6891 64.2051ZM69.6891 65.3672C67.8844 65.3672 66.9137 65.75 66.9274 66.4609C66.9137 67.1719 67.8844 67.541 69.6891 67.541C71.4528 67.541 72.4371 67.1719 72.4508 66.4609C72.4371 65.75 71.4528 65.3672 69.6891 65.3672ZM80.4593 58.5859C80.4593 60.1035 81.4436 61.5254 83.3714 62.1133L82.6468 63.3027C81.2591 62.8721 80.2747 61.9902 79.7346 60.8691C79.1878 62.168 78.1419 63.2002 76.6585 63.6992L75.8929 62.4961C77.8889 61.8398 78.928 60.2402 78.928 58.5996V58.4492H76.3167V57.2188H83.0296V58.4492H80.4593V58.5859ZM85.7776 56.3574V59.3242H87.5003V60.5684H85.7776V63.7266H84.26V56.3574H85.7776ZM81.7581 64C84.3147 64 85.887 64.8613 85.9007 66.3379C85.887 67.8281 84.3147 68.7031 81.7581 68.7031C79.1741 68.7031 77.5745 67.8281 77.5745 66.3379C77.5745 64.8613 79.1741 64 81.7581 64ZM81.7581 65.1895C80.0628 65.1895 79.0921 65.5859 79.0921 66.3379C79.0921 67.1035 80.0628 67.5137 81.7581 67.5137C83.4534 67.5137 84.3968 67.1035 84.3968 66.3379C84.3968 65.5859 83.4534 65.1895 81.7581 65.1895ZM31.016 79.4629C31.0023 80.9805 31.9867 82.4297 33.9555 83.0449L33.1898 84.2617C31.8021 83.8174 30.8178 82.9082 30.2641 81.7734C29.7172 83.0381 28.6781 84.0498 27.2289 84.5352L26.4359 83.3184C28.4457 82.6758 29.4711 81.1035 29.4848 79.4766V79.3535H26.8598V78.1367H33.5727V79.3535H31.016V79.4629ZM36.348 77.3574V80.2559H38.0707V81.5H36.348V84.5625H34.8305V77.3574H36.348ZM36.348 85.0684V89.5664H28.3637V85.0684H36.348ZM29.8676 86.2715V88.3359H34.8441V86.2715H29.8676ZM48.8272 77.3574V83.6602H47.3233V77.3574H48.8272ZM48.8545 84.2344V87.4473H42.169V88.4043H49.2237V89.6074H40.6788V86.3125H47.337V85.4102H40.6514V84.2344H48.8545ZM43.167 78.6152C43.167 80.1875 44.2061 81.6641 46.1612 82.252L45.4229 83.4277C43.9873 82.9902 42.962 82.0674 42.4014 80.8848C41.8409 82.1699 40.7881 83.1748 39.3116 83.6465L38.5459 82.457C40.542 81.8145 41.5948 80.2285 41.5948 78.6152V77.6582H43.167V78.6152ZM57.0238 78.2598C58.8831 78.2598 60.223 79.9551 60.2366 82.6211C60.223 85.3145 58.8831 86.9961 57.0238 86.9961C55.1507 86.9961 53.7972 85.3145 53.8109 82.6211C53.7972 79.9551 55.1507 78.2598 57.0238 78.2598ZM57.0238 79.627C55.9847 79.627 55.2738 80.7344 55.2738 82.6211C55.2738 84.5215 55.9847 85.6289 57.0238 85.6289C58.0765 85.6289 58.7738 84.5215 58.7738 82.6211C58.7738 80.7344 58.0765 79.627 57.0238 79.627ZM65.2132 80.3105V81.582H63.3812V83.9609H65.2132V85.2051H63.3812V89.7168H61.8636V77.3574H63.3812V80.3105H65.2132ZM75.5459 78.1094V79.2168C75.5459 80.3721 75.5459 81.6367 75.2177 83.3867H76.9267V84.6172H72.0185V89.7305H70.4873V84.6172H65.6611V83.3867H73.6728C74.0146 81.7051 74.0283 80.4473 74.0283 79.3398H66.9873V78.1094H75.5459ZM82.0504 79.5859C82.0504 81.1035 83.0348 82.5254 84.9625 83.1133L84.2379 84.3027C82.8502 83.8721 81.8658 82.9902 81.3258 81.8691C80.7789 83.168 79.733 84.2002 78.2496 84.6992L77.484 83.4961C79.4801 82.8398 80.5191 81.2402 80.5191 79.5996V79.4492H77.9078V78.2188H84.6207V79.4492H82.0504V79.5859ZM87.3688 77.3574V80.3242H89.0914V81.5684H87.3688V84.7266H85.8512V77.3574H87.3688ZM83.3492 85C85.9059 85 87.4781 85.8613 87.4918 87.3379C87.4781 88.8281 85.9059 89.7031 83.3492 89.7031C80.7652 89.7031 79.1656 88.8281 79.1656 87.3379C79.1656 85.8613 80.7652 85 83.3492 85ZM83.3492 86.1895C81.6539 86.1895 80.6832 86.5859 80.6832 87.3379C80.6832 88.1035 81.6539 88.5137 83.3492 88.5137C85.0445 88.5137 85.9879 88.1035 85.9879 87.3379C85.9879 86.5859 85.0445 86.1895 83.3492 86.1895Z" fill="black"/>
</g>
<defs>
<filter id="filter0_d_774_9201" x="0.25" y="0" width="115" height="128" filterUnits="userSpaceOnUse" color-interpolation-filters="sRGB">
<feFlood flood-opacity="0" result="BackgroundImageFix"/>
<feColorMatrix in="SourceAlpha" type="matrix" values="0 0 0 0 0 0 0 0 0 0 0 0 0 0 0 0 0 0 127 0" result="hardAlpha"/>
<feOffset dy="1"/>
<feGaussianBlur stdDeviation="2"/>
<feComposite in2="hardAlpha" operator="out"/>
<feColorMatrix type="matrix" values="0 0 0 0 0 0 0 0 0 0 0 0 0 0 0 0 0 0 0.25 0"/>
<feBlend mode="normal" in2="BackgroundImageFix" result="effect1_dropShadow_774_9201"/>
<feBlend mode="normal" in="SourceGraphic" in2="effect1_dropShadow_774_9201" result="shape"/>
</filter>
<linearGradient id="paint0_linear_774_9201" x1="19.0692" y1="20.5" x2="94.9976" y2="113.849" gradientUnits="userSpaceOnUse">
<stop stop-color="#010039"/>
<stop offset="1" stop-color="#C30136"/>
</linearGradient>
</defs>
</svg>
