<svg width="162" height="105" viewBox="0 0 162 105" fill="none" xmlns="http://www.w3.org/2000/svg">
<path d="M148.166 7.92016C149.8 7.97464 153.589 8.60612 155.68 10.6965L155.843 10.8596C156.279 10.2607 157.477 9.12888 158.783 9.38988C160.416 9.71647 160.744 9.88021 161.887 11.3498C162.104 12.2215 162.02 14.8584 161.56 18.6995C160.923 24.0145 158.969 34.4786 157.967 37.9729C157.477 40.2597 156.202 45.3559 155.027 47.4465C153.557 50.0596 152.903 51.0402 151.107 53.1633C149.31 55.2864 145.879 56.5932 143.593 57.0832C141.763 57.475 137.06 56.9197 134.937 56.593C132.868 56.2663 128.01 55.7767 125.136 56.4299C121.543 57.2465 119.746 57.737 117.296 59.5334C114.846 61.33 113.213 63.9434 112.397 65.4133C111.58 66.8834 110.273 70.1503 110.273 72.4368C110.273 74.7229 110.927 76.5194 112.723 77.3362C114.519 78.1527 117.133 77.9898 118.276 77.01C119.42 76.03 121.706 74.2324 122.85 70.3127C123.764 67.1773 123.993 64.1067 123.993 62.9631C124.32 61.602 125.529 58.9778 127.75 59.3694C130.526 59.8592 131.016 59.6975 131.996 63.2903C132.285 66.4735 131.507 74.5593 131.18 76.5198C130.853 78.4797 130.419 81.4711 129.873 84.1965C129.277 87.1754 128.495 89.7209 128.239 90.4036C127.847 91.4488 127.096 93.3426 126.77 94.1594C125.898 95.6295 123.797 98.8643 122.36 100.04C120.563 101.51 117.949 103.796 114.52 104.286C111.09 104.776 108.639 104.777 105.536 103.96C102.433 103.144 99.1666 101.346 98.3497 99.8762C97.5333 98.4066 97.043 97.5894 97.2062 95.7932C97.3696 93.9969 99.003 93.0171 100.473 93.0168C101.649 93.017 103.25 94.1052 103.903 94.6497C105.101 95.4663 108.182 97.067 110.926 96.9368C114.356 96.7734 117.296 94.9766 118.113 93.8332C118.93 92.6899 120.726 90.7294 121.543 87.3C122.36 83.8706 122.687 83.2163 122.687 81.4202C120.672 83.108 115.76 86.3528 112.233 85.8303C108.705 85.3076 106.626 84.1963 106.026 83.7063C105.264 83.216 103.38 81.3862 101.943 77.9895C100.527 79.024 97.3368 81.2895 95.8995 82.0735C94.2659 86.157 88.2872 94.5523 77.4425 95.467C73.9032 95.739 65.4535 94.4534 59.966 87.137C57.352 91.0661 50.4099 97.3318 44.9396 98.7336L44.8497 98.7561C43.1893 99.1817 41.7254 99.5573 40.2033 99.5637C39.0689 99.5684 37.9348 99.4752 36.7726 99.387C33.778 98.8422 27.6588 95.4985 27.1359 86.4836C26.6133 77.4679 28.7699 66.6111 29.9132 62.3098C31.1111 58.2809 34.813 49.9945 40.0392 49.0793C45.2654 48.1648 47.5529 51.0941 48.0431 52.6731C48.9686 54.089 50.2642 58.9789 48.0431 67.2102C45.2664 77.4994 37.2636 85.8296 35.1398 86.4836C35.1401 88.1172 36.2843 91.3829 40.8566 91.383C46.5728 91.3827 52.126 86.4828 56.2091 78.8069C55.5559 75.3769 56.1915 68.3412 58.3331 65.2502C60.1324 62.6539 62.2025 57.5071 71.2365 54.633C78.2852 52.3908 85.1734 55.2324 87.7326 56.9202C89.2026 57.9003 92.6988 60.7745 94.9201 64.4329C97.141 68.0911 97.4781 72.3815 97.3693 74.0696L101.616 70.3127C102.161 67.808 104.001 61.9176 107.006 58.3899C110.011 54.8624 112.94 52.6734 114.029 52.0198C115.826 50.8765 120.528 48.9527 124.81 48.426C128.865 47.9273 134.227 48.5174 136.794 49.133C137.081 49.202 137.37 49.2642 137.664 49.2903C139.918 49.4898 143.974 49.2627 145.88 47.7727C147.689 46.3578 150.085 43.2685 151.107 36.3401C147.785 39.1167 139.902 43.1664 134.937 37.1565C130.744 40.9675 121.706 45.6493 118.603 35.8498C118.385 33.8898 118.471 28.8795 119.256 26.05C120.142 22.8559 119.879 20.1598 119.746 19.5168C119.256 19.1903 117.852 18.9946 116.153 20.8235C114.03 23.11 112.396 26.2131 111.579 28.1731C110.763 30.1327 110.11 33.0724 109.783 34.2161C109.457 35.3607 109.292 43.526 104.067 42.8733C103.359 42.5465 101.911 41.5336 101.779 40.0969C100.854 40.8049 98.6432 42.2848 97.2062 42.5461C95.4094 42.8727 91.8162 42.5457 90.0197 39.2795C87.8417 41.8384 82.1139 45.78 76.6261 41.0764C75.8638 40.6401 74.4708 38.0696 74.9933 31.2766C75.211 29.5347 75.7439 25.7897 76.1359 24.7434C76.5169 22.8378 76.4953 19.7126 73.3595 22.4563C69.4397 25.8863 66.9894 33.2365 66.3361 37.1565C65.6828 41.076 65.1924 42.2196 63.8859 43.8528C62.5791 45.4856 58.4967 44.506 58.4962 41.5666C56.1549 43.7988 50.4922 47.0216 46.5724 42.0569C45.538 40.5322 43.9271 36.1107 45.756 30.6233C46.4638 27.7377 47.4545 22.1629 45.756 22.9465C43.6334 23.9259 44.7753 21.8036 39.3859 28.9895C38.4058 31.0042 36.1192 36.5693 34.8126 42.7102C33.9412 44.888 31.2518 48.3929 27.463 44.9963C27.1364 44.7369 26.5811 43.5247 26.9728 40.7502C27.9527 33.5097 30.2718 18.6696 31.7091 17.2297C33.1459 15.793 34.3767 15.6513 34.8126 15.76C35.5749 15.7601 37.1645 16.1848 37.4259 17.883C37.6871 19.5813 37.3175 21.7479 37.0997 22.6194C38.951 20.496 43.2085 16.0865 45.4298 15.4329C47.6504 14.7798 49.2952 14.9434 49.84 15.1067C50.8202 15.4337 52.9101 16.5771 53.4327 18.5364C53.9544 20.4927 54.0856 21.2019 54.0861 21.3127C54.0861 22.3473 54.0211 24.8084 53.7599 26.3762C53.4985 27.9443 52.78 31.8203 52.4533 33.5627C52.3988 34.3247 52.3229 35.9134 52.4533 36.176C52.6166 36.5026 52.9431 36.993 53.4327 37.1565C53.9227 37.3197 55.0658 37.1558 55.3927 36.8293C55.7198 36.5025 57.0267 35.6855 58.4962 32.4202C59.6721 29.8068 60.5111 22.6195 60.7833 19.3528C61.1646 17.6106 62.4492 14.0946 64.5392 13.9631C66.6288 13.8325 67.3703 14.2355 67.4796 14.4534C67.6432 14.5085 68.0349 15.0099 68.296 16.5764C68.5572 18.1437 68.2963 19.5157 68.1329 20.0061C69.8751 18.1006 73.7837 14.1593 75.4826 13.636C77.1806 13.1135 78.4773 13.0923 78.9132 13.1467C79.839 13.1469 81.951 13.6699 82.9962 15.76C84.0412 17.8507 83.8673 21.9662 83.6495 23.7629L82.1798 31.2766C82.0165 32.039 81.7556 33.7917 82.0167 34.7063C82.2779 35.6199 82.8868 35.8495 83.1593 35.8498C83.7583 35.9586 85.1852 35.7836 86.0997 34.2161C87.2429 32.2563 88.3861 29.9692 88.8761 27.6829C89.2681 25.8534 90.0192 21.3672 90.3458 19.3528C90.5092 18.3182 91.0652 15.923 91.9796 14.6164C92.8942 13.3101 94.7565 13.3096 95.5734 13.4729C96.118 13.691 97.272 14.4864 97.5333 15.9231C97.8597 17.72 96.88 22.6196 96.2267 25.886C95.5735 29.1521 95.2468 34.0518 96.716 34.7063C97.8917 35.2286 99.3835 34.1616 99.9826 33.5627C100.581 32.8549 101.943 30.7203 102.596 27.8459C103.249 24.9721 103.63 21.9673 103.739 20.8235C103.903 18.4281 104.654 13.5062 106.353 12.9827C106.788 12.656 107.954 12.0682 109.13 12.3293C110.305 12.5906 111.035 13.3091 111.253 13.636C111.471 14.6705 111.776 16.9683 111.253 17.883C112.505 16.5219 115.5 13.5388 117.46 12.4934C119.42 11.4484 121.271 11.4041 122.196 11.5129C123.503 11.5131 125.921 12.7216 126.443 14.2893C127.097 16.2491 127.75 18.0472 127.097 22.1301C126.574 25.396 126.008 28.4991 125.79 29.6428C125.627 31.0039 125.562 33.8236 126.607 34.2161C127.913 34.7056 130.036 32.9098 130.363 32.093C130.69 31.2767 131.833 30.9488 132.323 26.7034C132.813 22.4571 133.63 19.843 134.446 17.883C135.263 15.9228 139.837 7.9206 148.166 7.92016ZM84.3029 59.3694C70.8539 54.3064 63.6887 62.6292 61.3234 68.0051L61.1095 68.5159L61.173 68.5256C61.565 68.6224 63.0078 69.414 63.7228 69.8225C64.3758 68.9084 64.9746 68.4619 65.1925 68.3528C67.0218 68.0914 66.8258 69.986 66.4992 70.9661C67.0218 71.0967 68.6773 72.3271 69.4396 72.926C70.4847 71.7503 71.3989 71.8919 71.7257 72.1096C72.9017 72.8936 72.1071 74.614 71.5626 75.3762C72.6079 76.2909 73.6317 78.6974 74.0128 79.7864C75.3194 79.0024 76.1907 79.4597 76.463 79.7864C77.6384 81.2235 75.755 82.3447 74.6661 82.7258C74.7968 84.4244 74.612 85.8295 74.5031 86.3196C75.5481 86.3197 76.0269 87.082 76.1359 87.4631C76.5275 89.0307 74.8839 89.2048 74.0128 89.0959C73.621 90.0103 73.3054 90.7834 73.1964 91.0559C84.4336 93.1464 90.618 85.067 92.3058 80.7659C91.913 80.7652 90.0742 79.786 89.2033 79.2961C88.55 79.7861 87.0469 80.5701 86.2628 79.7864C85.4791 79.0024 86.4803 77.8262 87.0792 77.3362C86.034 76.5521 84.9016 74.2877 84.466 73.2532C83.9757 73.2532 82.3428 73.2526 81.8527 71.9465C81.4608 70.9013 82.7787 70.4216 83.4865 70.3127C83.2252 69.5285 83.1593 67.2631 83.1593 66.2288C82.5601 66.2286 80.7093 65.7392 80.7091 64.4329C80.7093 62.9635 82.5598 62.963 83.4855 63.1262C83.3549 61.6891 84.0306 59.9684 84.3029 59.3694ZM59.966 71.9455C59.1493 76.3011 60.1624 86.0581 70.0929 90.2395C70.4739 89.8039 71.0073 88.8022 70.7462 88.2795C70.3651 87.9528 69.8642 87.1684 70.9093 86.6457C71.1816 86.5367 71.6933 86.0246 71.5626 84.8489V83.7063C70.8004 83.7606 69.4073 83.4771 69.9298 81.9094C69.9845 81.7459 70.2898 81.3207 71.0734 80.9289C70.8011 80.0033 70.0928 78.1529 69.4396 78.1526C69.0477 78.4269 68.3225 78.6621 67.8009 78.0901C67.2648 77.5018 67.2867 76.5774 67.6427 75.8655C67.9025 75.3427 66.0091 74.4506 65.0294 74.0696C64.757 74.5596 63.9515 75.3427 62.9064 74.5588C62.743 74.3953 62.4161 73.8728 62.4161 73.0891C61.9805 72.7624 60.8805 72.0762 59.966 71.9455ZM41.5099 56.9192C37.1001 56.5932 34.8127 71.4566 34.8126 78.3166C42.489 70.4767 43.1427 58.7165 42.4894 57.4094C42.3057 56.92 41.728 56.865 41.5099 56.9192ZM87.2423 61.3293C86.72 61.7216 86.4804 63.3434 86.4259 64.1057C86.8176 64.1057 87.2428 64.3239 87.4064 64.4329C88.5818 66.1312 87.2425 66.7732 86.4259 66.8821C86.2953 68.1884 86.6983 69.7135 86.9161 70.3127C87.4061 70.1495 88.549 70.0519 89.2023 70.9661C89.8556 71.8807 88.6034 72.7624 87.8956 73.0891C88.5487 74.3952 89.4742 75.1581 89.8556 75.3762C90.3779 75.1151 90.7269 75.0492 90.8361 75.0491C92.0117 74.9185 91.9788 76.1925 91.8156 76.8459C92.2075 77.2379 93.0681 77.3361 93.4493 77.3362C94.4945 68.843 89.7467 63.126 87.2423 61.3293ZM22.5626 0.732656C25.6655 0.242762 33.8296 -0.18166 35.1388 0.0793353C36.4452 0.340651 37.208 1.82162 37.4259 2.52953C37.6436 3.18301 37.7852 4.8168 36.6095 6.12328C35.4334 7.42968 32.961 7.97435 31.8722 8.08324L24.6857 8.89965L18.6427 39.1164C20.0038 39.0076 22.9868 38.9861 24.0324 39.7698C25.0774 40.5537 25.012 42.8181 24.8488 43.8528C24.794 44.5063 23.8359 46.0093 20.4396 46.7932C17.4501 47.483 8.46755 48.2229 4.34974 48.3909C3.42894 48.4283 2.48462 48.3356 1.70521 47.844C0.759426 47.247 -0.154229 46.2498 0.0225922 44.8332C0.283909 42.7433 1.32933 41.7847 1.81947 41.5666C2.41854 41.2399 4.10613 40.5214 6.06556 40.26C8.025 39.9987 9.71331 39.8243 10.3126 39.7698L15.3761 9.88012C11.4561 10.1524 4.43244 10.8594 3.45228 9.55297C2.58123 8.73612 1.36231 6.61226 3.45228 4.65258C5.54304 2.6929 12.4898 1.76792 15.7023 1.55004L22.5626 0.732656ZM152.413 18.5364C149.8 12.8204 144.954 16.032 143.103 18.5364C142.058 19.4517 140.925 22.5106 140.489 23.926C139.094 28.9858 140.533 31.2216 142.357 32.051C144.026 32.8097 145.963 32.1002 147.454 31.0334C152.737 27.253 153.037 21.3225 152.413 18.5364ZM96.3898 1.0598C98.9155 1.05983 100.637 2.61711 100.637 5.14281C100.637 7.6686 98.4253 10.0432 95.8995 10.0432C93.3739 10.0431 91.3271 7.91978 91.6535 5.46996C92.1435 3.01995 93.864 1.0598 96.3898 1.0598Z" fill="#94C32C"/>
</svg>
