<svg width="162" height="105" viewBox="0 0 162 105" fill="none" xmlns="http://www.w3.org/2000/svg">
<circle cx="77" cy="74" r="18" fill="white"/>
<path d="M148.166 7.9205C149.799 7.97499 153.589 8.60649 155.679 10.6969L155.842 10.86C156.278 10.2611 157.476 9.12946 158.783 9.39022C160.416 9.71681 160.743 9.88054 161.886 11.3502C162.104 12.2219 162.019 14.8588 161.559 18.6998C160.922 24.015 158.969 34.4791 157.966 37.9732C157.476 40.2602 156.202 45.3563 155.026 47.4469C153.556 50.0597 152.903 51.0406 151.106 53.1637C149.309 55.2866 145.879 56.5936 143.592 57.0836C141.762 57.4751 137.059 56.92 134.936 56.5933C132.867 56.2667 128.01 55.7771 125.135 56.4303C121.543 57.2467 119.745 57.7374 117.296 59.5338C114.846 61.3304 113.213 63.9438 112.396 65.4137C111.579 66.884 110.272 70.1508 110.272 72.4371C110.272 74.723 110.926 76.5198 112.722 77.3365C114.519 78.1529 117.132 77.9898 118.276 77.0103C119.419 76.0304 121.706 74.2325 122.849 70.3131C123.764 67.1778 123.993 64.1072 123.993 62.9635C124.319 61.6024 125.529 58.9784 127.75 59.3697C130.526 59.8596 131.016 59.6977 131.996 63.2906C132.284 66.474 131.506 74.5599 131.179 76.5201C130.853 78.4801 130.419 81.4715 129.873 84.1969C129.276 87.1757 128.495 89.7214 128.239 90.4039C127.847 91.4492 127.096 93.3431 126.769 94.1598C125.898 95.63 123.796 98.8647 122.359 100.041C120.562 101.511 117.948 103.797 114.519 104.287C111.09 104.777 108.639 104.777 105.536 103.961C102.433 103.144 99.1661 101.346 98.3492 99.8765C97.5328 98.407 97.0425 97.5896 97.2057 95.7935C97.369 93.9974 99.0026 93.0176 100.472 93.0172C101.648 93.0173 103.249 94.1055 103.903 94.65C105.101 95.4666 108.182 97.0672 110.925 96.9371C114.355 96.7737 117.296 94.9769 118.113 93.8336C118.93 92.6903 120.726 90.7296 121.543 87.3004C122.359 83.871 122.686 83.2165 122.686 81.4205C120.671 83.1084 115.76 86.3531 112.232 85.8307C108.705 85.308 106.625 84.1967 106.026 83.7066C105.263 83.2162 103.379 81.3863 101.942 77.9898C100.526 79.0245 97.3361 81.2899 95.899 82.0738C94.2652 86.1575 88.2864 94.5527 77.442 95.4674C73.9024 95.7392 65.4528 94.4535 59.9654 87.1373C57.3513 91.0665 50.4092 97.3322 44.9391 98.734L44.8492 98.7564C43.1889 99.182 41.7248 99.5576 40.2027 99.564C39.0685 99.5687 37.9341 99.4756 36.7721 99.3873C33.7774 98.8424 27.6583 95.4984 27.1354 86.484C26.6127 77.4684 28.7693 66.6117 29.9127 62.3101C31.1105 58.2814 34.8126 49.9952 40.0387 49.0797C45.265 48.1651 47.5525 51.0945 48.0426 52.6734C48.9681 54.0894 50.2637 58.9792 48.0426 67.2105C45.2658 77.4996 37.263 85.8299 35.1393 86.484C35.1397 88.1175 36.2843 91.383 40.8561 91.3834C46.5722 91.383 52.1255 86.483 56.2086 78.8072C55.5554 75.3774 56.1911 68.3418 58.3326 65.2506C60.1318 62.6543 62.2023 57.5075 71.2359 54.6334C78.2846 52.3912 85.1728 55.2327 87.732 56.9205C89.2021 57.9006 92.6983 60.7748 94.9195 64.4332C97.1406 68.0915 97.4776 72.3819 97.3688 74.0699L101.616 70.3131C102.16 67.8085 104.001 61.9181 107.005 58.3902C110.01 54.8632 112.939 52.6741 114.029 52.0201C115.826 50.8768 120.528 48.9531 124.809 48.4264C128.864 47.9277 134.226 48.5177 136.794 49.1334C137.081 49.2023 137.369 49.2645 137.664 49.2906C139.918 49.4901 143.973 49.2628 145.879 47.773C147.689 46.3582 150.084 43.2687 151.106 36.3404C147.785 39.117 139.901 43.1665 134.936 37.1568C130.744 40.9678 121.705 45.6492 118.602 35.8502C118.384 33.8903 118.471 28.88 119.255 26.0504C120.142 22.8564 119.878 20.1603 119.746 19.5172C119.255 19.1907 117.851 18.9951 116.153 20.8238C114.03 23.1104 112.395 26.2136 111.579 28.1734C110.762 30.1331 110.109 33.0728 109.783 34.2164C109.456 35.3622 109.291 43.5263 104.066 42.8736C103.358 42.5468 101.91 41.5337 101.779 40.0973C100.853 40.8053 98.6425 42.2851 97.2057 42.5465C95.4087 42.8729 91.8156 42.5458 90.0191 39.2799C87.841 41.8388 82.1131 45.7801 76.6256 41.0767C75.8633 40.6402 74.4704 38.0693 74.9928 31.2769C75.2105 29.5353 75.7434 25.7906 76.1354 24.7437C76.5164 22.8382 76.4948 19.7128 73.359 22.4566C69.4394 25.8868 66.9889 33.237 66.3355 37.1568C65.6823 41.0762 65.1919 42.2199 63.8853 43.8531C62.5783 45.4854 58.4964 44.506 58.4957 41.567C56.1542 43.7991 50.4915 47.0217 46.5719 42.0572C45.5375 40.5327 43.9267 36.111 45.7555 30.6236C46.4632 27.7381 47.4539 22.1632 45.7555 22.9469C43.6334 23.9258 44.7745 21.8043 39.3853 28.9898C38.4052 31.0048 36.1186 36.5699 34.8121 42.7105C33.9405 44.8884 31.2511 48.393 27.4625 44.9967C27.1358 44.7371 26.5807 43.5246 26.9723 40.7506C27.9521 33.5107 30.2712 18.6718 31.7086 17.2301C33.1451 15.7936 34.3759 15.6518 34.8121 15.7603C35.5744 15.7604 37.164 16.185 37.4254 17.8834C37.6865 19.5817 37.317 21.7483 37.0992 22.6197C38.9503 20.4965 43.2079 16.0873 45.4293 15.4332C47.6495 14.7803 49.2944 14.9438 49.8395 15.107C50.8197 15.434 52.9096 16.5773 53.4322 18.5367C53.9541 20.4937 54.0852 21.2027 54.0855 21.3131C54.0855 22.3478 54.0206 24.8088 53.7594 26.3766C53.498 27.9448 52.7794 31.8208 52.4527 33.5631C52.3983 34.3252 52.3223 35.9141 52.4527 36.1764C52.616 36.5029 52.9427 36.9933 53.4322 37.1568C53.9221 37.3199 55.0648 37.1559 55.3922 36.8297C55.7192 36.5029 57.0262 35.6856 58.4957 32.4205C59.6716 29.8072 60.5105 22.62 60.7828 19.3531C61.164 17.611 62.4489 14.0953 64.5387 13.9635C66.6287 13.8329 67.3699 14.2359 67.4791 14.4537C67.6427 14.5088 68.0344 15.0101 68.2955 16.5767C68.5566 18.1441 68.2957 19.5161 68.1324 20.0064C69.8744 18.1012 73.7829 14.1602 75.482 13.6363C77.1796 13.114 78.4764 13.0927 78.9127 13.1471C79.8385 13.1473 81.9505 13.6702 82.9957 15.7603C84.0407 17.8511 83.8668 21.9666 83.649 23.7633L82.1793 31.2769C82.016 32.0395 81.755 33.7922 82.0162 34.7066C82.2773 35.6198 82.8861 35.8496 83.1588 35.8502C83.7577 35.959 85.1846 35.7836 86.0992 34.2164C87.2424 32.2567 88.3855 29.9695 88.8756 27.6832C89.2676 25.8539 90.0186 21.3678 90.3453 19.3531C90.5087 18.3187 91.0648 15.9235 91.9791 14.6168C92.8935 13.3106 94.7558 13.31 95.5729 13.4732C96.1175 13.6913 97.2715 14.4867 97.5328 15.9234C97.8591 17.7205 96.8794 22.62 96.2262 25.8863C95.5731 29.1523 95.2465 34.0518 96.7154 34.7066C97.891 35.2289 99.3828 34.162 99.982 33.5631C100.581 32.8553 101.942 30.7205 102.595 27.8463C103.248 24.9726 103.63 21.9679 103.739 20.8238C103.902 18.4287 104.654 13.5073 106.352 12.983C106.788 12.6564 107.954 12.0687 109.129 12.3297C110.305 12.591 111.034 13.3095 111.253 13.6363C111.47 14.6709 111.775 16.9688 111.253 17.8834C112.505 16.5224 115.5 13.5394 117.46 12.4937C119.419 11.4488 121.27 11.4045 122.196 11.5133C123.503 11.5134 125.92 12.7219 126.443 14.2896C127.096 16.2495 127.75 18.0475 127.096 22.1305C126.574 25.3963 126.007 28.4996 125.79 29.6432C125.626 31.0042 125.562 33.8236 126.606 34.2164C127.912 34.7059 130.035 32.9103 130.363 32.0933C130.69 31.277 131.833 30.949 132.323 26.7037C132.813 22.4576 133.629 19.8433 134.446 17.8834C135.263 15.9233 139.836 7.92119 148.166 7.9205ZM84.3023 59.3697C70.8535 54.3069 63.6881 62.6295 61.3228 68.0055L61.109 68.5162L61.1725 68.526C61.5644 68.6227 63.0073 69.4143 63.7223 69.8228C64.3749 68.9093 64.9737 68.4626 65.192 68.3531C67.0213 68.0918 66.8253 69.9864 66.4986 70.9664C67.0213 71.0971 68.6768 72.3274 69.4391 72.9264C70.484 71.7508 71.3983 71.8923 71.7252 72.1099C72.9012 72.894 72.1066 74.6143 71.5621 75.3765C72.6074 76.2913 73.6312 78.6978 74.0123 79.7867C75.3189 79.0028 76.1902 79.46 76.4625 79.7867C77.6379 81.2238 75.7544 82.3451 74.6656 82.7262C74.7963 84.4248 74.6114 85.8299 74.5025 86.3199C75.5477 86.3201 76.0265 87.0824 76.1354 87.4635C76.5269 89.031 74.8833 89.2051 74.0123 89.0963C73.6205 90.0106 73.3048 90.7839 73.1959 91.0562C84.4328 93.1467 90.6173 85.0674 92.3053 80.7662C91.9116 80.7649 90.0734 79.7862 89.2027 79.2965C88.5492 79.7865 87.0462 80.5703 86.2623 79.7867C85.4788 79.003 86.4798 77.8268 87.0787 77.3365C86.0336 76.5524 84.901 74.288 84.4654 73.2535C83.9747 73.2535 82.3421 73.2526 81.8521 71.9469C81.4602 70.9018 82.778 70.4221 83.4859 70.3131C83.2247 69.529 83.1588 67.2636 83.1588 66.2291C82.5592 66.2287 80.709 65.7391 80.7086 64.4332C80.7087 62.9639 82.5591 62.9634 83.485 63.1266C83.3544 61.6896 84.03 59.969 84.3023 59.3697ZM59.9654 71.9459C59.1489 76.3015 60.1623 86.0585 70.0924 90.2398C70.4734 89.8043 71.0067 88.8026 70.7457 88.2799C70.3647 87.9532 69.8643 87.1687 70.9088 86.6461C71.181 86.5371 71.6927 86.0249 71.5621 84.8492V83.7066C70.7998 83.7608 69.4072 83.4769 69.9293 81.9098C69.9839 81.7463 70.2894 81.3211 71.0729 80.9293C70.8006 80.0037 70.0923 78.1532 69.4391 78.1529C69.0471 78.4271 68.3218 78.6623 67.8004 78.0904C67.2643 77.5022 67.2864 76.5777 67.6422 75.8658C67.9022 75.3431 66.0087 74.4509 65.0289 74.0699C64.7563 74.56 63.9507 75.3428 62.9059 74.5592C62.7425 74.3956 62.4157 73.873 62.4156 73.0894C61.9799 72.7627 60.8799 72.0765 59.9654 71.9459ZM42.4889 57.4098C42.3052 56.9202 41.7275 56.8653 41.5094 56.9195C37.0998 56.5944 34.8122 71.4572 34.8121 78.317C42.4885 70.4771 43.1421 58.7169 42.4889 57.4098ZM87.2418 61.3297C86.7197 61.7225 86.4799 63.344 86.4254 64.106C86.817 64.106 87.2422 64.3242 87.4059 64.4332C88.5813 66.1315 87.242 66.7735 86.4254 66.8824C86.2948 68.1888 86.6978 69.714 86.9156 70.3131C87.4056 70.1498 88.5484 70.0522 89.2018 70.9664C89.8551 71.8811 88.6029 72.7628 87.8951 73.0894C88.5481 74.3954 89.4736 75.1583 89.8551 75.3765C90.3767 75.1157 90.7259 75.0497 90.8355 75.0494C92.0113 74.9189 91.9783 76.1929 91.815 76.8463C92.2068 77.2381 93.0674 77.3364 93.4488 77.3365C94.494 68.8433 89.7462 63.1263 87.2418 61.3297ZM22.5621 0.732997C25.6647 0.243143 33.8281 -0.181188 35.1383 0.0796767C36.4448 0.341008 37.2075 1.82202 37.4254 2.52987C37.6431 3.1834 37.7847 4.81717 36.609 6.12362C35.4328 7.42978 32.9604 7.9747 31.8717 8.08358L24.6852 8.89999L18.6422 39.1168C20.0033 39.0079 22.9862 38.9865 24.0318 39.7701C25.077 40.5541 25.0115 42.8185 24.8482 43.8531C24.7932 44.5067 23.8349 46.0098 20.4391 46.7935C17.4491 47.4833 8.46683 48.2232 4.34922 48.3912C3.42854 48.4286 2.48399 48.3359 1.70469 47.8443C0.759008 47.2474 -0.154599 46.2499 0.0220694 44.8336C0.283283 42.7442 1.3286 41.7855 1.81894 41.567C2.41796 41.2403 4.10577 40.5218 6.06504 40.2603C8.02402 39.9991 9.71242 39.8246 10.3121 39.7701L15.3756 9.88046C11.4555 10.1527 4.43188 10.8597 3.45176 9.55331C2.58076 8.73648 1.3623 6.61248 3.45176 4.65292C5.54239 2.69331 12.4891 1.76831 15.7018 1.55038L22.5621 0.732997ZM152.413 18.5367C149.799 12.8205 144.953 16.0323 143.102 18.5367C142.057 19.4524 140.924 22.5112 140.489 23.9264C139.093 28.9858 140.533 31.2219 142.356 32.0514C144.025 32.81 145.963 32.1004 147.454 31.0338C152.737 27.2534 153.037 21.3229 152.413 18.5367ZM96.3893 1.05917C98.915 1.05917 100.636 2.61736 100.636 5.14315C100.636 7.66871 98.4255 10.0423 95.9 10.0426C93.3742 10.0426 91.3264 7.91933 91.6529 5.46933C92.143 3.01954 93.8637 1.05933 96.3893 1.05917Z" fill="#1A1A1A"/>
</svg>
