<svg width="115" height="128" viewBox="0 0 115 128" fill="none" xmlns="http://www.w3.org/2000/svg">
<g filter="url(#filter0_d_774_9265)">
<path d="M4.25 11C4.25 6.58172 7.83172 3 12.25 3H102.75C107.168 3 110.75 6.58172 110.75 11V115C110.75 119.418 107.168 123 102.75 123H12.25C7.83172 123 4.25 119.418 4.25 115V11Z" fill="white" shape-rendering="crispEdges"/>
<path d="M12.25 3.5H102.75C106.892 3.5 110.25 6.85786 110.25 11V115C110.25 119.142 106.892 122.5 102.75 122.5H12.25C8.10786 122.5 4.75 119.142 4.75 115V11C4.75 6.85786 8.10786 3.5 12.25 3.5Z" stroke="url(#paint0_linear_774_9265)" shape-rendering="crispEdges"/>
<path d="M56.1755 35.3711V44.2988H54.6442V35.3711H56.1755ZM56.5173 46.2402V47.4707H47.9997V43.3965H49.5309V46.2402H56.5173ZM49.4352 36.1777C51.3083 36.1777 52.7575 37.4766 52.7575 39.2676C52.7575 41.0996 51.3083 42.3711 49.4352 42.3711C47.5485 42.3711 46.0993 41.0996 46.0993 39.2676C46.0993 37.4766 47.5485 36.1777 49.4352 36.1777ZM49.4352 37.5039C48.3825 37.5039 47.5759 38.2012 47.5895 39.2676C47.5759 40.3613 48.3825 41.0449 49.4352 41.0449C50.4606 41.0449 51.2673 40.3613 51.2673 39.2676C51.2673 38.2012 50.4606 37.5039 49.4352 37.5039ZM62.2835 38.2832C62.2835 39.7598 63.3089 41.1816 65.264 41.7832L64.5257 42.9727C63.1243 42.5488 62.1126 41.6533 61.5452 40.5117C60.9984 41.7422 59.9798 42.7129 58.5374 43.1777L57.7991 41.9883C59.7405 41.373 60.7659 39.8691 60.7659 38.2832V38.0918H58.182V36.8887H60.7659V35.4395H62.2972V36.8887H64.8675V38.0918H62.2835V38.2832ZM68.1898 35.3711V44.5449H66.6722V40.2656H64.4573V39.0488H66.6722V35.3711H68.1898ZM68.5042 46.2402V47.4707H60.0823V43.752H61.5999V46.2402H68.5042ZM50.1615 60.3223C50.0795 59.4746 49.3548 58.9824 48.2884 58.9824C47.1673 58.9824 46.4837 59.5293 46.4837 60.2676C46.4837 61.1016 47.3587 61.4434 48.1791 61.6348L49.1087 61.8809C50.5853 62.2227 52.0072 63.002 52.0072 64.7246C52.0072 66.4609 50.64 67.6504 48.2611 67.6504C45.9505 67.6504 44.5013 66.543 44.4193 64.5879H46.1693C46.2513 65.627 47.1263 66.1328 48.2474 66.1328C49.4232 66.1328 50.2298 65.5586 50.2298 64.7109C50.2298 63.9316 49.5052 63.6035 48.4388 63.3301L47.3177 63.043C45.6908 62.6191 44.6791 61.7988 44.6791 60.377C44.6791 58.627 46.2377 57.4648 48.3158 57.4648C50.4212 57.4648 51.8431 58.6543 51.8705 60.3223H50.1615ZM58.7305 60.3223C58.6484 59.4746 57.9238 58.9824 56.8574 58.9824C55.7363 58.9824 55.0527 59.5293 55.0527 60.2676C55.0527 61.1016 55.9277 61.4434 56.748 61.6348L57.6777 61.8809C59.1543 62.2227 60.5762 63.002 60.5762 64.7246C60.5762 66.4609 59.209 67.6504 56.8301 67.6504C54.5195 67.6504 53.0703 66.543 52.9883 64.5879H54.7383C54.8203 65.627 55.6953 66.1328 56.8164 66.1328C57.9922 66.1328 58.7988 65.5586 58.7988 64.7109C58.7988 63.9316 58.0742 63.6035 57.0078 63.3301L55.8867 63.043C54.2598 62.6191 53.248 61.7988 53.248 60.377C53.248 58.627 54.8066 57.4648 56.8848 57.4648C58.9902 57.4648 60.4121 58.6543 60.4395 60.3223H58.7305ZM68.5436 60.7598C68.2291 59.707 67.4088 59.0645 66.2057 59.0645C64.6061 59.0645 63.4577 60.3086 63.4577 62.5371C63.4577 64.793 64.5924 66.0371 66.2467 66.0371C67.737 66.0371 68.694 65.1348 68.7213 63.7266H66.4245V62.3184H70.444V63.5078C70.444 66.0508 68.694 67.6367 66.2467 67.6367C63.5123 67.6367 61.6666 65.6953 61.6666 62.5508C61.6666 59.3789 63.5944 57.4648 66.192 57.4648C68.3795 57.4648 70.0612 58.8184 70.362 60.7598H68.5436ZM38.5095 77.3711V86.5449H37.0603V82.1836H35.7751V86.2578H34.3532V77.6035H35.7751V80.9395H37.0603V77.3711H38.5095ZM38.8513 88.2402V89.4707H30.238V85.6836H31.7556V88.2402H38.8513ZM33.1501 78.3828V82.1289H29.9372V83.5918C31.3728 83.5781 32.4665 83.5029 33.7243 83.2637L33.8611 84.4805C32.3708 84.7402 31.113 84.7949 29.3083 84.7949H28.4607V80.9805H31.6872V79.5859H28.447V78.3828H33.1501ZM46.1488 78.4785V79.7227H42.0336V85.4785C43.9613 85.4648 45.3216 85.3828 46.8597 85.0957L47.0238 86.3262C45.2875 86.668 43.7972 86.7363 41.4867 86.7363H40.5023V78.4785H46.1488ZM50.2777 77.3574V89.7305H48.7601V82.9492H45.4925V81.7051H48.7601V77.3574H50.2777ZM58.2451 79.0527C58.2451 80.9668 60.1182 82.8809 62.7021 83.332L62.0186 84.6035C59.9473 84.166 58.252 82.915 57.4521 81.2539C56.6318 82.9014 54.9365 84.1592 52.8721 84.6035L52.2021 83.332C54.7588 82.8672 56.6182 80.9531 56.6318 79.0527V78.1367H58.2451V79.0527ZM63.1533 86.8867V88.1445H51.8604V86.8867H63.1533ZM74.1286 77.3574V83.7285H72.611V77.3574H74.1286ZM74.1286 84.248V87.4336H67.3746V88.4043H74.525V89.6074H65.8707V86.3262H72.6246V85.4375H65.8434V84.248H74.1286ZM71.0661 78.1504V79.3262H69.9586V82.0195C70.5192 81.9717 71.0661 81.917 71.5856 81.8555L71.6539 82.9492C69.193 83.332 66.3493 83.4141 64.1891 83.4141L64.025 82.2109L65.4332 82.1973V79.3262H64.3532V78.1504H71.0661ZM66.8961 82.1699C67.4293 82.1562 67.9694 82.1357 68.5094 82.1016V79.3262H66.8961V82.1699ZM85.8147 83.1543V84.3711H77.1468V78.4375H85.719V79.668H78.6507V83.1543H85.8147ZM87.0725 86.8867V88.1445H75.7796V86.8867H87.0725Z" fill="black"/>
</g>
<defs>
<filter id="filter0_d_774_9265" x="0.25" y="0" width="114.5" height="128" filterUnits="userSpaceOnUse" color-interpolation-filters="sRGB">
<feFlood flood-opacity="0" result="BackgroundImageFix"/>
<feColorMatrix in="SourceAlpha" type="matrix" values="0 0 0 0 0 0 0 0 0 0 0 0 0 0 0 0 0 0 127 0" result="hardAlpha"/>
<feOffset dy="1"/>
<feGaussianBlur stdDeviation="2"/>
<feComposite in2="hardAlpha" operator="out"/>
<feColorMatrix type="matrix" values="0 0 0 0 0 0 0 0 0 0 0 0 0 0 0 0 0 0 0.25 0"/>
<feBlend mode="normal" in2="BackgroundImageFix" result="effect1_dropShadow_774_9265"/>
<feBlend mode="normal" in="SourceGraphic" in2="effect1_dropShadow_774_9265" result="shape"/>
</filter>
<linearGradient id="paint0_linear_774_9265" x1="19" y1="20.5" x2="95" y2="113.5" gradientUnits="userSpaceOnUse">
<stop stop-color="#C81431"/>
</linearGradient>
</defs>
</svg>
